{"glyphs":{"0":{"ha":961,"x_min":0,"x_max":852,"o":"m 241 9 q 213 34 234 14 q 166 80 193 54 q 110 138 139 107 q 56 194 81 168 q 16 239 32 220 q 0 259 0 257 l 0 806 q 18 828 0 808 q 64 877 36 848 q 125 938 92 905 q 190 999 159 971 q 244 1046 220 1027 q 278 1065 269 1065 l 574 1065 q 604 1046 581 1065 q 658 999 627 1027 q 723 935 689 970 q 786 869 758 901 q 833 812 814 837 q 852 778 852 787 l 852 278 q 841 261 852 275 q 812 227 830 247 q 772 182 795 206 q 726 132 749 157 q 679 83 702 106 q 637 41 655 59 q 606 11 618 22 q 593 0 594 0 l 259 0 l 241 9 m 352 120 l 370 111 l 481 111 q 496 126 490 119 q 509 138 503 132 q 519 148 515 144 q 544 174 526 158 q 581 208 562 191 q 615 242 600 226 q 629 269 629 258 l 629 787 q 620 808 629 794 q 597 840 611 823 q 566 876 583 858 q 532 910 549 895 q 502 935 516 925 q 481 945 488 945 l 361 945 q 347 935 359 945 q 318 909 335 925 q 283 875 302 894 q 249 837 265 856 q 223 803 233 819 q 213 778 213 787 l 213 278 q 221 255 213 269 q 243 227 230 242 q 272 196 256 212 q 303 165 288 180 q 332 139 319 151 q 352 120 345 127 m 315 528 q 338 611 315 583 q 416 639 361 639 q 452 637 434 639 q 486 629 471 635 q 513 612 502 623 q 528 583 524 601 l 528 537 q 527 508 528 527 q 522 471 526 490 q 508 439 517 453 q 481 426 499 426 l 361 426 q 334 438 344 426 q 320 466 325 450 q 315 500 316 483 q 315 528 315 517 z "},"1":{"ha":961,"x_min":111,"x_max":732,"o":"m 111 46 q 131 87 111 74 q 176 106 150 101 q 228 112 202 112 q 269 111 254 111 l 306 148 l 306 694 q 291 727 306 718 q 255 740 277 736 q 209 742 234 743 q 162 745 183 742 q 126 760 140 749 q 111 796 111 770 q 127 821 111 801 q 168 867 143 840 q 221 926 192 895 q 277 984 250 957 q 325 1031 304 1011 q 352 1055 345 1050 q 385 1064 366 1063 q 426 1065 405 1065 q 455 1063 436 1065 q 492 1055 473 1061 q 524 1038 510 1048 q 537 1009 537 1027 l 537 157 q 552 125 537 134 q 588 112 566 115 q 634 109 609 109 q 681 104 660 109 q 717 86 703 99 q 732 46 732 74 q 728 31 732 39 q 720 16 725 23 q 708 5 715 9 q 694 0 701 0 l 148 0 q 131 5 138 0 q 119 16 123 9 q 113 31 115 23 q 111 46 111 39 z "},"2":{"ha":961,"x_min":0,"x_max":741,"o":"m 0 269 q 22 305 0 279 q 81 368 45 332 q 164 447 117 404 q 259 535 211 490 q 355 622 308 579 q 438 699 401 664 q 496 757 474 733 q 519 787 519 781 l 519 907 q 514 917 519 911 q 504 930 510 924 q 491 940 498 936 q 481 945 485 945 l 250 945 q 227 930 236 945 q 207 898 217 916 q 186 866 197 881 q 157 852 175 852 l 46 852 q 31 858 39 852 q 16 873 23 864 q 5 891 9 882 q 0 907 0 901 q 11 929 0 914 q 37 961 21 943 q 73 997 54 978 q 111 1030 93 1015 q 145 1055 130 1045 q 167 1065 160 1065 l 574 1065 q 596 1055 581 1065 q 630 1030 611 1045 q 668 997 648 1015 q 703 961 687 978 q 730 929 720 943 q 741 907 741 914 l 741 796 q 718 758 741 784 q 658 696 695 732 q 574 617 621 661 q 477 529 526 574 q 380 437 427 484 q 295 350 332 391 q 236 273 258 308 q 213 213 213 237 q 214 185 213 203 q 219 152 214 168 q 233 123 223 135 q 259 111 242 111 l 481 111 q 498 118 491 111 q 512 135 505 125 q 524 157 518 145 q 538 180 530 170 q 554 197 545 190 q 574 203 563 203 l 694 203 q 709 199 701 203 q 724 187 718 194 q 736 172 731 180 q 741 157 741 164 l 741 46 q 736 31 741 39 q 724 16 731 23 q 709 5 718 9 q 694 0 701 0 l 37 0 l 0 37 l 0 269 z "},"3":{"ha":961,"x_min":0,"x_max":741,"o":"m 0 157 q 4 169 0 161 q 15 184 9 176 q 27 198 21 192 q 37 203 34 203 l 167 203 q 183 197 176 203 q 197 180 191 190 q 210 157 203 170 q 223 135 216 145 q 239 118 230 125 q 259 111 248 111 l 481 111 l 519 148 l 519 481 q 513 495 519 489 q 500 509 507 502 q 493 512 496 509 q 488 519 490 515 q 481 528 484 522 l 278 528 q 250 531 260 528 q 233 542 239 534 q 224 559 227 549 q 222 583 222 570 q 227 605 222 593 q 240 626 232 616 q 258 642 248 636 q 278 648 268 648 l 481 648 q 488 653 484 651 q 493 656 490 654 q 500 657 496 657 q 513 671 507 665 q 519 685 519 678 l 519 907 q 514 917 519 911 q 504 930 510 924 q 491 940 498 936 q 481 945 485 945 l 250 945 q 227 930 236 945 q 207 898 217 916 q 186 866 197 881 q 157 852 175 852 l 46 852 q 31 858 39 852 q 16 873 23 864 q 5 891 9 882 q 0 907 0 901 q 11 929 0 914 q 37 961 21 943 q 73 997 54 978 q 111 1030 93 1015 q 145 1055 130 1045 q 167 1065 160 1065 l 574 1065 q 596 1055 581 1065 q 630 1030 611 1045 q 668 997 648 1015 q 703 961 687 978 q 730 929 720 943 q 741 907 741 914 l 741 685 q 734 665 741 673 q 717 648 727 656 q 694 633 707 640 q 672 617 682 626 q 655 598 662 609 q 648 574 648 588 q 655 554 648 563 q 672 539 662 546 q 694 526 682 532 q 717 513 707 520 q 734 496 727 505 q 741 472 741 486 l 741 157 q 670 79 701 113 q 644 50 656 64 q 620 25 631 36 q 602 7 609 14 q 593 0 595 0 l 148 0 q 127 10 141 0 q 97 35 113 20 q 63 68 81 50 q 32 104 46 87 q 9 136 18 121 q 0 157 0 151 z "},"4":{"ha":961,"x_min":0,"x_max":732,"o":"m 324 56 q 331 76 324 67 q 348 93 338 85 q 370 108 358 100 q 393 124 382 115 q 410 143 403 132 q 416 167 416 153 l 416 361 q 410 379 416 368 q 396 400 404 390 q 378 418 387 411 q 361 426 368 426 l 46 426 q 35 432 43 426 q 20 446 28 438 q 6 461 12 454 q 0 472 0 469 l 0 593 q 16 613 0 596 q 57 655 31 629 q 116 712 83 680 q 185 777 149 743 q 256 843 220 810 q 320 904 291 876 q 370 952 349 932 q 398 981 391 972 q 428 1022 416 1006 q 453 1047 439 1038 q 487 1061 467 1057 q 537 1065 506 1065 q 570 1062 551 1065 q 607 1052 589 1060 q 636 1030 624 1044 q 648 991 648 1015 l 648 574 q 661 550 648 560 q 690 530 674 541 q 719 506 706 519 q 732 472 732 493 q 719 444 732 455 q 690 422 706 432 q 661 403 674 413 q 648 380 648 393 l 648 148 q 661 120 648 131 q 690 100 674 110 q 719 79 706 91 q 732 46 732 67 q 728 31 732 39 q 720 16 725 23 q 708 5 715 9 q 694 0 701 0 l 361 0 q 343 6 351 0 q 332 21 336 12 q 326 39 328 30 q 324 56 324 49 m 222 583 q 225 568 222 576 q 234 553 229 560 q 245 542 239 547 q 259 537 252 537 l 370 537 q 397 549 388 537 q 411 577 406 561 q 416 611 415 594 q 416 639 416 629 q 416 665 416 649 q 411 696 415 681 q 397 721 406 711 q 370 732 388 732 q 353 722 366 732 q 324 697 340 712 q 289 664 307 682 q 257 630 271 646 q 232 601 242 613 q 222 583 222 588 z "},"5":{"ha":961,"x_min":0,"x_max":741,"o":"m 0 157 q 4 169 0 161 q 15 184 9 176 q 27 198 21 192 q 37 203 34 203 l 167 203 q 183 197 176 203 q 197 180 191 190 q 210 157 203 170 q 223 135 216 145 q 239 118 230 125 q 259 111 248 111 l 481 111 l 519 148 l 519 481 q 513 495 519 489 q 500 509 507 502 q 493 512 496 509 q 488 519 490 515 q 481 528 484 522 l 65 528 q 51 531 62 528 q 29 541 40 534 q 9 555 18 547 q 0 574 0 564 l 0 1019 q 7 1037 0 1029 q 25 1052 15 1046 q 47 1061 36 1058 q 65 1065 58 1065 l 676 1065 q 696 1060 686 1065 q 714 1047 707 1055 q 727 1029 722 1040 q 732 1009 732 1019 q 726 989 732 999 q 710 971 720 979 q 688 958 700 963 q 667 954 677 954 l 250 954 q 237 946 243 954 q 224 928 230 939 q 216 907 219 918 q 213 889 213 896 l 213 704 q 216 687 213 697 q 224 669 219 677 q 237 654 230 661 q 250 648 243 648 l 565 648 q 594 638 576 648 q 631 611 612 627 q 670 574 650 595 q 705 534 690 554 q 731 498 721 515 q 741 472 741 481 l 741 157 q 670 79 701 113 q 644 50 656 64 q 620 25 631 36 q 602 7 609 14 q 593 0 595 0 l 148 0 q 127 10 141 0 q 97 35 113 20 q 63 68 81 50 q 32 104 46 87 q 9 136 18 121 q 0 157 0 151 z "},"6":{"ha":961,"x_min":0,"x_max":741,"o":"m 519 1009 q 506 985 519 996 q 471 966 492 975 q 422 948 450 957 q 366 927 395 939 q 310 900 337 916 q 261 862 282 884 q 226 810 239 840 q 213 741 213 781 q 214 719 213 734 q 218 688 214 703 q 229 660 221 672 q 250 648 236 648 l 565 648 q 594 638 576 648 q 631 611 612 627 q 670 574 650 595 q 705 534 690 554 q 731 498 721 515 q 741 472 741 481 l 741 157 q 670 79 701 113 q 644 50 656 64 q 620 25 631 36 q 602 7 609 14 q 593 0 595 0 l 148 0 q 131 10 143 0 q 101 34 118 20 q 67 67 85 49 q 34 101 49 85 q 10 131 20 118 q 0 148 0 143 l 0 806 q 18 828 0 808 q 64 877 36 848 q 125 938 92 905 q 190 999 159 971 q 244 1046 220 1027 q 278 1065 269 1065 l 463 1065 q 484 1060 473 1065 q 502 1047 494 1055 q 514 1029 509 1040 q 519 1009 519 1019 m 519 481 q 514 491 519 485 q 504 504 510 498 q 491 514 498 510 q 481 519 485 519 l 259 519 q 244 513 252 519 q 229 498 236 507 q 218 479 222 489 q 213 463 213 470 l 213 167 q 218 154 213 163 q 229 136 222 145 q 244 119 236 126 q 259 111 252 111 l 481 111 l 519 148 l 519 481 z "},"7":{"ha":961,"x_min":0,"x_max":741,"o":"m 380 0 l 259 0 q 244 5 252 0 q 229 16 236 9 q 218 31 222 23 q 213 46 213 39 l 213 380 q 226 404 213 389 q 261 439 239 419 q 310 482 282 459 q 366 529 337 505 q 422 576 395 553 q 471 620 450 600 q 506 658 492 641 q 519 685 519 675 l 519 907 q 514 917 519 911 q 504 930 510 924 q 491 940 498 936 q 481 945 485 945 l 250 945 q 227 930 236 945 q 207 898 217 916 q 186 866 197 881 q 157 852 175 852 l 46 852 q 31 857 39 852 q 16 868 23 861 q 5 883 9 875 q 0 898 0 891 l 0 1019 q 7 1037 0 1029 q 25 1052 15 1046 q 47 1061 36 1058 q 65 1065 58 1065 l 676 1065 q 698 1060 686 1065 q 719 1047 709 1055 q 734 1029 728 1040 q 741 1009 741 1019 l 741 685 q 727 659 741 676 q 691 620 713 642 q 641 571 669 597 q 584 518 613 545 q 526 466 554 492 q 475 417 497 439 q 439 378 453 395 q 426 352 426 361 l 426 37 l 380 0 z "},"8":{"ha":961,"x_min":0,"x_max":741,"o":"m 83 583 q 71 612 83 601 q 42 634 58 624 q 13 656 26 644 q 0 685 0 668 l 0 907 q 11 929 0 914 q 37 961 21 943 q 73 997 54 978 q 111 1030 93 1015 q 145 1055 130 1045 q 167 1065 160 1065 l 574 1065 q 596 1055 581 1065 q 630 1030 611 1045 q 668 997 648 1015 q 703 961 687 978 q 730 929 720 943 q 741 907 741 914 l 741 685 q 734 665 741 673 q 717 648 727 656 q 694 633 707 640 q 672 617 682 626 q 655 598 662 609 q 648 574 648 588 q 655 554 648 563 q 672 539 662 546 q 694 526 682 532 q 717 513 707 520 q 734 496 727 505 q 741 472 741 486 l 741 157 q 670 79 701 113 q 644 50 656 64 q 620 25 631 36 q 602 7 609 14 q 593 0 595 0 l 148 0 q 131 10 143 0 q 101 34 118 20 q 67 67 85 49 q 34 101 49 85 q 10 131 20 118 q 0 148 0 143 l 0 481 q 6 501 0 493 q 22 516 12 509 q 42 529 31 523 q 62 543 52 535 q 77 560 71 550 q 83 583 83 570 m 519 481 q 514 491 519 485 q 504 504 510 498 q 491 514 498 510 q 481 519 485 519 l 259 519 q 244 513 252 519 q 229 498 236 507 q 218 479 222 489 q 213 463 213 470 l 213 167 q 218 154 213 163 q 229 136 222 145 q 244 119 236 126 q 259 111 252 111 l 481 111 l 519 148 l 519 481 m 222 676 q 231 668 226 673 q 239 659 235 663 q 250 648 245 654 l 481 648 q 491 653 485 648 q 504 663 498 657 q 514 675 510 669 q 519 685 519 682 l 519 907 q 514 917 519 911 q 504 930 510 924 q 491 940 498 936 q 481 945 485 945 l 250 945 q 237 939 243 945 q 224 924 230 932 q 216 905 219 915 q 213 889 213 896 l 213 704 l 222 676 z "},"9":{"ha":961,"x_min":0,"x_max":741,"o":"m 111 46 q 116 64 111 54 q 127 86 121 75 q 142 104 134 96 q 157 111 151 111 l 370 111 q 388 121 375 111 q 417 145 400 131 q 451 178 433 160 q 484 213 469 196 q 509 242 499 229 q 519 259 519 254 l 519 481 q 513 495 519 489 q 500 509 507 502 q 493 512 496 509 q 488 519 490 515 q 481 528 484 522 l 167 528 q 145 537 160 528 q 111 562 130 547 q 73 596 93 577 q 37 632 54 614 q 11 664 21 649 q 0 685 0 678 l 0 907 q 11 929 0 914 q 37 961 21 943 q 73 997 54 978 q 111 1030 93 1015 q 145 1055 130 1045 q 167 1065 160 1065 l 574 1065 q 596 1055 581 1065 q 630 1030 611 1045 q 668 997 648 1015 q 703 961 687 978 q 730 929 720 943 q 741 907 741 914 l 741 259 q 730 245 741 258 q 701 215 719 233 q 661 173 684 197 q 614 126 638 150 q 568 80 591 102 q 526 39 545 57 q 495 11 507 22 q 481 0 484 0 l 148 0 q 131 5 138 0 q 119 16 123 9 q 113 31 115 23 q 111 46 111 39 m 222 676 q 231 668 226 673 q 239 659 235 663 q 250 648 245 654 l 481 648 q 491 653 485 648 q 504 663 498 657 q 514 675 510 669 q 519 685 519 682 l 519 907 q 514 917 519 911 q 504 930 510 924 q 491 940 498 936 q 481 945 485 945 l 250 945 q 237 939 243 945 q 224 924 230 932 q 216 905 219 915 q 213 889 213 896 l 213 704 l 222 676 z "},"\u0000":{"ha":0,"x_min":0,"x_max":0,"o":""},"\r":{"ha":347,"x_min":0,"x_max":0,"o":""}," ":{"ha":374,"x_min":0,"x_max":0,"o":""},"!":{"ha":961,"x_min":213,"x_max":639,"o":"m 315 102 q 315 129 315 112 q 320 163 316 146 q 334 192 325 180 q 361 203 344 203 l 481 203 q 496 199 488 203 q 511 187 505 194 q 523 172 518 180 q 528 157 528 164 l 528 46 q 523 31 528 39 q 511 16 518 23 q 496 5 505 9 q 481 0 488 0 l 361 0 q 334 12 344 0 q 320 40 325 24 q 315 74 316 57 q 315 102 315 92 m 426 1065 q 484 1053 456 1065 q 535 1020 511 1040 q 577 972 558 999 q 610 916 597 945 q 631 855 624 886 q 639 796 639 824 q 631 722 639 752 q 612 671 624 692 q 588 638 601 650 q 564 616 575 625 q 545 600 552 607 q 537 583 537 593 l 537 370 q 524 342 537 353 q 492 326 510 332 q 455 317 473 319 q 426 315 436 315 q 389 317 409 315 q 353 327 370 319 q 326 346 336 334 q 315 380 315 359 l 315 583 q 307 604 315 595 q 288 620 300 612 q 264 634 277 627 q 239 648 251 641 q 220 665 228 656 q 213 685 213 673 l 213 907 q 225 935 213 919 q 256 969 237 951 q 298 1003 275 986 q 346 1034 322 1021 q 391 1056 370 1048 q 426 1065 412 1065 z "},"\"":{"ha":961,"x_min":102,"x_max":741,"o":"m 269 750 q 247 760 262 750 q 213 785 231 770 q 175 818 195 800 q 139 854 155 837 q 112 886 123 871 q 102 907 102 901 l 102 1111 q 106 1123 102 1114 q 118 1142 111 1133 q 133 1159 125 1152 q 148 1166 141 1166 l 269 1166 q 283 1160 275 1166 q 298 1146 292 1154 q 310 1128 305 1137 q 315 1111 315 1118 l 315 796 q 310 781 315 789 q 298 766 305 773 q 283 755 292 760 q 269 750 275 750 m 574 750 q 559 755 568 750 q 544 767 551 760 q 532 785 537 775 q 528 806 528 795 l 528 1102 q 531 1120 528 1109 q 541 1141 534 1131 q 555 1159 547 1152 q 574 1166 564 1166 l 694 1166 q 709 1162 701 1166 q 724 1150 718 1157 q 736 1135 731 1143 q 741 1120 741 1127 l 741 898 q 731 874 741 889 q 706 843 721 860 q 671 810 690 827 q 634 780 652 793 q 599 759 615 767 q 574 750 583 750 z "},"#":{"ha":961,"x_min":0,"x_max":732,"o":"m 0 259 q 15 292 0 280 q 46 315 29 304 q 78 337 64 325 q 93 370 93 349 l 93 583 q 78 612 93 601 q 46 635 64 624 q 15 660 29 646 q 0 694 0 673 q 13 724 0 712 q 43 745 26 735 q 75 767 60 755 q 93 796 90 779 q 96 818 95 803 q 97 849 96 832 q 101 885 98 867 q 110 919 103 904 q 127 944 116 934 q 157 954 139 954 l 269 954 q 302 939 292 954 q 315 903 312 925 q 319 857 319 882 q 323 810 320 831 q 337 774 327 788 q 370 760 347 760 q 404 774 393 760 q 417 810 414 788 q 421 857 421 831 q 425 903 422 882 q 439 939 429 925 q 472 954 449 954 l 583 954 q 611 943 600 954 q 629 916 622 932 q 640 881 636 900 q 646 843 644 861 q 648 809 648 824 q 648 787 648 794 q 673 766 659 777 q 701 744 688 755 q 723 721 713 733 q 732 694 732 709 q 726 671 732 681 q 710 654 720 661 q 690 640 701 646 q 670 627 680 634 q 654 612 661 621 q 648 593 648 604 l 648 361 q 661 333 648 344 q 690 313 674 323 q 719 292 706 304 q 732 259 732 280 q 723 229 732 242 q 701 206 713 216 q 673 186 688 196 q 648 167 659 177 q 648 151 648 165 q 646 119 648 138 q 642 80 645 101 q 632 41 638 59 q 616 12 626 24 q 593 0 607 0 l 472 0 q 439 15 449 0 q 425 51 429 29 q 420 97 421 72 q 415 144 419 123 q 398 180 410 165 q 361 195 387 195 q 337 186 345 195 q 325 164 328 178 q 320 133 321 151 q 318 97 319 115 q 317 62 318 79 q 310 31 315 44 q 296 8 305 17 q 269 0 286 0 l 148 0 q 119 11 130 0 q 102 39 108 22 q 95 77 97 56 q 92 118 93 98 q 90 153 91 137 q 83 176 88 169 q 63 195 77 186 q 35 214 49 204 q 11 235 21 224 q 0 259 0 245 m 370 621 q 355 617 363 621 q 340 609 347 614 q 329 597 334 604 q 324 583 324 590 l 324 370 q 329 357 324 363 q 340 345 334 350 q 355 337 347 340 q 370 334 363 334 q 404 346 391 334 q 416 380 416 359 l 416 574 q 404 608 416 595 q 370 621 391 621 z "},"$":{"ha":961,"x_min":0,"x_max":741,"o":"m 46 306 q 78 291 60 306 q 114 255 95 277 q 153 209 133 234 q 191 162 172 183 q 228 126 210 140 q 259 111 245 111 l 481 111 l 519 148 l 519 481 q 513 495 519 489 q 500 509 507 502 q 493 512 496 509 q 488 519 490 515 q 481 528 484 522 l 167 528 q 145 537 160 528 q 111 562 130 547 q 73 596 93 577 q 37 632 54 614 q 11 664 21 649 q 0 685 0 678 l 0 907 q 9 927 0 914 q 32 954 18 939 q 62 985 45 969 q 95 1015 79 1001 q 122 1040 110 1029 q 139 1055 134 1050 q 169 1067 153 1065 q 201 1070 184 1069 q 233 1069 217 1070 q 263 1072 249 1069 q 288 1084 277 1075 q 306 1111 299 1093 q 309 1180 306 1149 q 324 1233 312 1211 q 360 1266 336 1255 q 426 1278 385 1278 q 452 1277 440 1278 q 476 1273 465 1276 q 498 1262 487 1270 q 519 1241 509 1255 q 531 1208 529 1227 q 533 1171 533 1190 q 535 1134 533 1152 q 547 1102 536 1116 q 571 1077 553 1093 q 609 1043 588 1062 q 654 1005 631 1025 q 696 966 677 985 q 728 932 715 947 q 741 907 741 917 l 741 796 q 736 781 741 789 q 723 766 731 773 q 705 755 715 760 q 685 750 695 750 q 657 765 673 750 q 622 801 641 779 q 583 847 603 822 q 545 894 564 873 q 509 930 526 916 q 481 945 493 945 l 250 945 q 237 939 243 945 q 224 924 230 932 q 216 905 219 915 q 213 889 213 896 l 213 704 q 216 687 213 697 q 224 669 219 677 q 237 654 230 661 q 250 648 243 648 l 565 648 q 594 638 576 648 q 631 611 612 627 q 670 574 650 595 q 705 534 690 554 q 731 498 721 515 q 741 472 741 481 l 741 157 q 728 133 741 148 q 696 99 715 117 q 654 60 677 80 q 609 21 631 40 q 571 -13 588 3 q 547 -37 553 -28 q 540 -60 542 -44 q 537 -95 538 -76 q 534 -136 536 -115 q 527 -174 532 -157 q 511 -202 522 -191 q 481 -213 500 -213 l 361 -213 q 330 -201 340 -213 q 315 -171 319 -189 q 309 -130 311 -153 q 306 -85 308 -107 q 298 -46 304 -64 q 278 -18 292 -28 q 246 -8 268 -12 q 203 -2 224 -4 q 148 0 177 0 q 127 9 141 0 q 97 32 113 18 q 63 63 81 46 q 32 97 46 81 q 9 127 18 113 q 0 148 0 141 l 0 269 q 5 286 0 279 q 16 297 9 293 q 31 304 23 302 q 46 306 39 306 z "},"%":{"ha":961,"x_min":0,"x_max":741,"o":"m 685 842 q 705 838 695 842 q 723 826 715 833 q 736 811 731 819 q 741 796 741 803 l 741 685 q 722 661 741 682 q 670 607 703 640 q 594 529 637 573 q 502 436 551 485 q 400 336 452 387 q 299 236 349 284 q 204 144 249 187 q 126 70 160 102 q 70 19 92 37 q 46 0 49 0 q 35 6 43 0 q 20 19 28 12 q 0 37 11 27 l 0 167 l 685 842 m 528 111 q 530 137 528 121 q 537 168 532 153 q 551 193 543 182 q 574 203 560 203 l 694 203 q 709 199 701 203 q 724 187 718 194 q 736 172 731 180 q 741 157 741 164 l 741 46 q 736 31 741 39 q 724 16 731 23 q 709 5 718 9 q 694 0 701 0 l 574 0 q 547 14 557 0 q 533 45 538 27 q 528 82 529 64 q 528 111 528 101 m 102 852 q 129 851 112 852 q 163 846 146 850 q 192 832 180 842 q 203 806 203 823 l 203 676 q 184 658 193 666 q 169 645 176 650 q 157 639 161 639 l 46 639 q 31 644 39 639 q 16 655 23 648 q 5 670 9 662 q 0 685 0 678 l 0 806 q 12 832 0 823 q 40 846 24 842 q 74 851 57 850 q 102 852 92 852 z "},"&":{"ha":961,"x_min":0,"x_max":732,"o":"m 195 694 q 188 715 195 706 q 171 733 181 724 q 148 752 160 742 q 126 776 136 762 q 109 808 115 789 q 102 852 102 826 q 110 887 102 866 q 133 932 119 908 q 165 979 147 956 q 203 1022 184 1003 q 242 1053 223 1041 q 278 1065 262 1065 l 463 1065 q 499 1052 479 1065 q 537 1020 518 1040 q 575 975 557 1000 q 608 925 593 949 q 630 878 622 900 q 639 842 639 856 q 631 806 639 822 q 612 777 624 790 q 588 751 601 763 q 564 727 575 739 q 545 700 552 714 q 537 667 537 685 q 538 658 537 661 q 542 651 540 654 q 547 648 543 648 q 570 649 553 648 q 607 648 587 649 q 649 644 627 647 q 690 633 671 640 q 720 614 708 626 q 732 583 732 602 q 726 560 732 570 q 710 543 720 550 q 690 529 701 535 q 670 516 680 523 q 654 501 661 509 q 648 481 648 493 l 648 148 q 661 120 648 131 q 690 100 674 110 q 719 79 706 91 q 732 46 732 67 q 728 31 732 39 q 720 16 725 23 q 708 5 715 9 q 694 0 701 0 l 574 0 q 545 15 557 0 q 521 46 533 29 q 493 78 509 64 q 454 93 478 93 q 436 86 442 93 q 426 69 430 79 q 420 46 422 58 q 413 24 418 35 q 401 7 409 14 q 380 0 394 0 l 148 0 q 131 10 143 0 q 101 34 118 20 q 67 67 85 49 q 34 101 49 85 q 10 131 20 118 q 0 148 0 143 l 0 481 q 15 509 0 493 q 51 545 29 526 q 97 584 72 564 q 144 625 123 605 q 180 662 165 644 q 195 694 195 680 m 269 509 q 230 497 248 509 q 213 463 213 484 l 213 167 q 218 154 213 163 q 229 136 222 145 q 244 119 236 126 q 259 111 252 111 l 398 111 l 416 130 l 416 361 q 408 379 416 368 q 387 406 400 391 q 359 435 374 420 q 329 465 343 450 q 303 491 315 479 q 287 509 292 503 l 269 509 m 435 583 q 448 554 435 562 q 481 547 460 547 q 499 551 492 547 q 510 564 506 556 q 517 582 515 572 q 519 602 519 591 l 519 621 q 505 628 511 627 q 491 629 498 629 q 474 626 484 629 q 456 616 465 623 q 441 602 448 610 q 435 583 435 593 m 370 945 q 355 941 363 945 q 340 933 347 938 q 329 921 334 928 q 324 907 324 914 l 324 796 q 329 783 324 789 q 340 771 334 776 q 355 763 347 766 q 370 760 363 760 q 397 769 388 760 q 411 792 406 778 q 416 822 415 806 q 416 852 416 838 q 416 878 416 862 q 411 909 415 894 q 397 934 406 924 q 370 945 388 945 z "},"'":{"ha":961,"x_min":111,"x_max":416,"o":"m 111 796 q 127 831 111 817 q 162 857 143 844 q 197 882 181 869 q 213 917 213 896 l 213 1120 q 219 1132 213 1124 q 233 1147 225 1139 q 248 1161 241 1155 q 259 1166 256 1166 l 370 1166 q 381 1161 374 1166 q 397 1148 389 1156 q 416 1130 406 1140 l 416 889 q 404 865 416 880 q 372 834 391 850 q 329 801 353 817 q 282 771 305 784 q 241 749 260 758 q 213 741 222 741 q 178 742 196 741 q 145 748 159 743 q 121 764 130 753 q 111 796 111 775 z "},"(":{"ha":961,"x_min":213,"x_max":629,"o":"m 537 1065 q 567 1064 551 1065 q 597 1058 583 1063 q 620 1041 611 1053 q 629 1009 629 1030 q 614 966 629 986 q 577 929 600 947 q 528 893 554 911 q 478 858 501 876 q 441 821 456 840 q 426 778 426 801 l 426 278 q 441 243 426 262 q 478 204 456 224 q 528 163 501 184 q 577 124 554 143 q 614 87 600 104 q 629 56 629 70 q 628 39 629 49 q 622 21 626 30 q 610 6 617 12 q 593 0 603 0 l 472 0 q 450 19 470 0 q 401 65 430 37 q 339 126 372 94 q 278 188 307 159 q 232 237 250 217 q 213 259 213 257 l 213 806 q 226 824 213 810 q 259 856 239 838 q 302 893 279 873 q 346 931 326 913 q 381 963 366 949 q 398 981 395 977 q 428 1022 416 1006 q 453 1047 439 1038 q 487 1061 467 1057 q 537 1065 506 1065 z "},")":{"ha":961,"x_min":222,"x_max":639,"o":"m 222 46 q 237 84 222 64 q 273 124 251 104 q 319 164 294 144 q 366 202 345 184 q 402 238 388 221 q 416 269 416 255 l 416 787 q 402 830 416 810 q 366 867 388 850 q 319 902 345 885 q 273 935 294 918 q 237 970 251 952 q 222 1009 222 988 q 232 1041 222 1030 q 256 1058 241 1053 q 289 1064 271 1063 q 324 1065 307 1065 q 367 1048 338 1065 q 430 1005 395 1031 q 502 945 465 978 q 570 881 539 913 q 620 822 600 849 q 639 778 639 794 l 639 278 q 628 263 639 276 q 600 231 617 250 q 559 186 582 211 q 513 136 536 161 q 466 85 489 110 q 424 42 442 61 q 393 12 406 23 q 380 0 381 0 l 259 0 q 242 5 249 0 q 230 16 235 9 q 224 31 226 23 q 222 46 222 39 z "},"*":{"ha":961,"x_min":0,"x_max":842,"o":"m 111 269 q 124 296 111 286 q 153 315 137 306 q 182 334 169 323 q 195 361 195 344 q 186 393 195 382 q 164 411 178 405 q 133 419 151 417 q 97 421 115 420 q 62 424 79 422 q 31 431 44 425 q 8 449 17 437 q 0 481 0 460 q 15 514 0 505 q 51 526 29 524 q 97 528 72 529 q 144 530 123 527 q 180 542 165 532 q 195 574 195 551 q 189 601 195 591 q 173 620 182 612 q 153 634 163 627 q 133 649 142 641 q 117 667 123 656 q 111 694 111 678 q 121 721 111 712 q 145 735 130 730 q 178 740 159 739 q 213 741 196 741 q 256 734 239 741 q 287 717 274 727 q 308 694 299 707 q 325 672 317 682 q 341 655 332 662 q 361 648 349 648 l 481 648 q 502 655 493 648 q 518 672 511 662 q 532 694 526 682 q 547 717 539 707 q 563 734 554 727 q 583 741 572 741 l 694 741 q 712 736 705 741 q 723 724 719 731 q 730 709 728 718 q 732 694 732 701 q 719 656 732 670 q 690 630 706 642 q 661 607 674 619 q 648 574 648 595 q 663 545 648 553 q 699 534 677 536 q 745 531 720 531 q 792 528 770 532 q 828 515 814 525 q 842 481 842 505 q 828 445 842 456 q 792 428 814 433 q 745 422 770 423 q 699 418 720 422 q 663 404 677 414 q 648 370 648 393 q 661 337 648 349 q 690 315 674 325 q 719 292 706 304 q 732 259 732 280 q 728 244 732 252 q 720 229 725 236 q 708 218 715 222 q 694 213 701 213 l 574 213 q 547 228 557 213 q 528 259 536 242 q 509 291 519 277 q 481 306 499 306 l 361 306 q 337 291 347 306 q 318 259 328 277 q 297 228 309 242 q 269 213 286 213 l 148 213 q 131 219 138 213 q 119 234 123 225 q 113 252 115 243 q 111 269 111 262 z "},"+":{"ha":961,"x_min":111,"x_max":732,"o":"m 111 481 q 122 514 111 503 q 151 530 134 525 q 191 538 169 536 q 235 544 213 541 q 275 554 256 547 q 306 574 294 561 q 307 617 306 592 q 314 668 308 643 q 333 713 320 693 q 370 741 346 734 l 426 741 q 484 731 465 741 q 509 707 503 722 q 516 671 516 691 q 518 630 516 651 q 530 587 521 608 q 565 547 540 565 q 593 534 576 537 q 629 529 610 530 q 666 527 647 528 q 699 520 684 526 q 723 504 713 515 q 732 472 732 493 q 718 436 732 447 q 683 421 704 425 q 638 418 663 418 q 592 415 614 418 q 555 403 570 412 q 537 370 540 393 q 537 355 537 368 q 537 325 538 342 q 534 288 536 308 q 525 252 531 269 q 508 224 519 235 q 481 213 498 213 l 361 213 q 330 225 340 213 q 315 255 319 237 q 309 296 311 273 q 306 340 308 319 q 298 380 304 362 q 278 408 292 398 q 250 416 267 414 q 214 418 233 418 q 177 420 195 419 q 144 427 159 421 q 120 446 130 433 q 111 481 111 458 z "},",":{"ha":961,"x_min":222,"x_max":528,"o":"m 222 -56 q 229 -32 222 -42 q 246 -15 236 -22 q 269 -1 256 -7 q 291 12 281 5 q 308 26 301 18 q 315 46 315 35 l 315 250 q 321 271 315 260 q 336 290 327 281 q 354 305 345 298 q 370 315 363 311 l 426 315 q 453 314 436 315 q 487 308 471 313 q 516 291 504 302 q 528 259 528 280 l 528 46 q 515 15 528 33 q 483 -19 503 -2 q 438 -53 463 -37 q 391 -83 414 -70 q 347 -103 367 -96 q 315 -111 326 -111 q 281 -110 298 -111 q 251 -104 264 -109 q 230 -88 238 -99 q 222 -56 222 -77 z "},"-":{"ha":961,"x_min":0,"x_max":732,"o":"m 0 481 q 5 493 0 485 q 16 508 9 500 q 31 522 23 516 q 46 528 39 528 l 685 528 q 708 523 699 528 q 722 510 717 518 q 730 492 728 503 q 732 472 732 482 q 730 457 732 465 q 723 442 728 449 q 712 431 719 435 q 694 426 705 426 l 46 426 q 31 432 39 426 q 16 447 23 438 q 5 465 9 456 q 0 481 0 475 z "},".":{"ha":961,"x_min":315,"x_max":528,"o":"m 315 102 q 315 129 315 112 q 320 163 316 146 q 334 192 325 180 q 361 203 344 203 l 481 203 q 496 199 488 203 q 511 187 505 194 q 523 172 518 180 q 528 157 528 164 l 528 46 q 523 31 528 39 q 511 16 518 23 q 496 5 505 9 q 481 0 488 0 l 361 0 q 334 12 344 0 q 320 40 325 24 q 315 74 316 57 q 315 102 315 92 z "},"/":{"ha":961,"x_min":0,"x_max":741,"o":"m 685 842 q 705 838 695 842 q 723 826 715 833 q 736 811 731 819 q 741 796 741 803 l 741 685 q 722 661 741 682 q 670 607 703 640 q 594 529 637 573 q 502 436 551 485 q 400 336 452 387 q 299 236 349 284 q 204 144 249 187 q 126 70 160 102 q 70 19 92 37 q 46 0 49 0 q 35 6 43 0 q 20 19 28 12 q 0 37 11 27 l 0 167 l 685 842 z "},":":{"ha":961,"x_min":315,"x_max":528,"o":"m 315 213 q 316 243 315 227 q 322 275 317 260 q 338 300 327 290 q 370 315 349 311 l 426 315 q 505 292 481 315 q 528 213 528 269 l 528 157 q 514 130 524 140 q 491 113 505 119 q 460 104 477 106 q 426 102 444 102 q 342 126 370 102 q 315 213 315 151 m 315 741 q 320 793 315 772 q 339 827 326 814 q 373 846 352 840 q 426 852 395 852 q 460 850 444 852 q 491 842 477 848 q 514 825 505 836 q 528 796 524 814 l 528 750 q 527 721 528 740 q 522 684 526 703 q 508 652 517 666 q 481 639 499 639 l 370 639 q 338 650 349 639 q 322 676 327 661 q 316 709 317 692 q 315 741 315 727 z "},";":{"ha":961,"x_min":222,"x_max":528,"o":"m 222 46 q 232 77 222 64 q 254 101 241 90 q 281 123 267 112 q 306 148 296 134 q 307 191 306 165 q 314 242 308 217 q 333 288 320 267 q 370 315 346 308 l 426 315 q 505 292 481 315 q 528 213 528 269 l 528 157 q 510 126 524 143 q 479 94 496 110 q 444 62 462 77 q 416 37 427 47 q 407 27 413 34 q 395 15 401 21 q 380 0 388 8 l 259 0 q 242 5 249 0 q 230 16 235 9 q 224 31 226 23 q 222 46 222 39 m 315 741 q 320 793 315 772 q 339 827 326 814 q 373 846 352 840 q 426 852 395 852 q 460 850 444 852 q 491 842 477 848 q 514 825 505 836 q 528 796 524 814 l 528 750 q 527 721 528 740 q 522 684 526 703 q 508 652 517 666 q 481 639 499 639 l 370 639 q 338 650 349 639 q 322 676 327 661 q 316 709 317 692 q 315 741 315 727 z "},"<":{"ha":961,"x_min":111,"x_max":732,"o":"m 111 481 q 131 505 111 484 q 184 559 151 526 q 258 635 216 593 q 344 721 300 677 q 430 807 388 765 q 506 881 472 848 q 561 933 539 913 q 583 954 582 954 l 694 954 q 712 949 705 954 q 723 937 719 944 q 730 922 728 930 q 732 907 732 914 q 715 867 732 892 q 670 813 698 843 q 606 750 642 783 q 533 683 570 717 q 459 616 495 649 q 396 556 424 584 q 351 506 368 528 q 334 472 334 484 q 351 438 334 460 q 396 389 368 416 q 459 329 424 361 q 533 263 495 296 q 606 196 570 229 q 670 135 642 163 q 715 83 698 106 q 732 46 732 60 q 728 31 732 39 q 720 16 725 23 q 708 5 715 9 q 694 0 701 0 l 574 0 q 549 20 571 0 q 494 72 527 39 q 419 145 460 104 q 336 230 378 186 q 253 317 293 274 q 181 394 212 359 q 130 453 149 429 q 111 481 111 476 z "},"=":{"ha":961,"x_min":111,"x_max":732,"o":"m 111 370 q 113 385 111 377 q 119 400 115 393 q 131 412 123 407 q 148 416 138 416 l 704 416 q 720 412 714 416 q 728 400 726 407 q 731 385 731 393 q 732 370 732 377 q 727 350 732 360 q 714 332 722 340 q 696 319 707 324 q 676 315 686 315 l 167 315 q 146 319 157 315 q 129 332 136 324 q 116 350 121 340 q 111 370 111 360 m 111 694 q 115 709 111 701 q 124 724 118 718 q 139 736 130 731 q 157 741 147 741 l 694 741 q 712 736 705 741 q 723 724 719 731 q 730 709 728 718 q 732 694 732 701 q 730 674 732 684 q 723 656 728 664 q 712 644 719 648 q 694 639 705 639 l 157 639 q 124 656 136 639 q 111 694 111 673 z "},">":{"ha":961,"x_min":111,"x_max":732,"o":"m 111 46 q 128 80 111 58 q 173 130 145 102 q 237 191 201 158 q 310 257 273 223 q 384 324 348 291 q 447 387 419 357 q 492 441 475 417 q 509 481 509 466 q 492 515 509 494 q 447 565 475 537 q 384 625 419 593 q 310 691 348 658 q 237 757 273 724 q 173 819 201 790 q 128 871 145 848 q 111 907 111 894 q 115 922 111 914 q 124 937 118 930 q 139 949 130 944 q 157 954 147 954 l 269 954 q 294 933 272 954 q 349 881 315 913 q 423 806 382 848 q 507 720 465 764 q 590 633 549 675 q 662 555 631 590 q 713 498 694 521 q 732 472 732 475 q 713 447 732 469 q 662 391 694 425 q 590 315 631 357 q 507 229 549 273 q 423 144 465 186 q 349 71 382 103 q 294 20 315 39 q 269 0 272 0 l 148 0 q 131 5 138 0 q 119 16 123 9 q 113 31 115 23 q 111 46 111 39 z "},"?":{"ha":961,"x_min":0,"x_max":741,"o":"m 315 102 q 315 129 315 112 q 320 163 316 146 q 334 192 325 180 q 361 203 344 203 l 481 203 q 496 199 488 203 q 511 187 505 194 q 523 172 518 180 q 528 157 528 164 l 528 46 q 523 31 528 39 q 511 16 518 23 q 496 5 505 9 q 481 0 488 0 l 361 0 q 334 12 344 0 q 320 40 325 24 q 315 74 316 57 q 315 102 315 92 m 102 741 q 74 741 92 741 q 40 746 57 742 q 12 760 24 751 q 0 787 0 770 l 0 907 q 11 929 0 914 q 37 961 21 943 q 73 997 54 978 q 111 1030 93 1015 q 145 1055 130 1045 q 167 1065 160 1065 l 574 1065 q 596 1055 581 1065 q 630 1030 611 1045 q 668 997 648 1015 q 703 961 687 978 q 730 929 720 943 q 741 907 741 914 l 741 796 q 726 767 741 785 q 688 729 711 749 q 639 686 665 708 q 590 645 612 665 q 552 609 567 625 q 537 583 537 593 l 537 370 q 524 342 537 353 q 492 326 510 332 q 455 317 473 319 q 426 315 436 315 q 389 317 409 315 q 353 327 370 319 q 326 346 336 334 q 315 380 315 359 l 315 574 q 330 607 315 588 q 368 646 345 625 q 417 687 390 666 q 466 728 444 709 q 504 762 488 747 q 519 787 519 778 l 519 907 q 514 917 519 911 q 504 930 510 924 q 491 940 498 936 q 481 945 485 945 l 250 945 q 230 936 236 945 q 220 913 223 927 q 217 880 218 899 q 214 843 216 862 q 207 805 212 823 q 189 772 201 787 q 156 749 176 758 q 102 741 135 741 z "},"@":{"ha":961,"x_min":0,"x_max":741,"o":"m 629 56 q 628 39 629 49 q 622 21 626 30 q 610 6 617 12 q 593 0 603 0 l 148 0 q 131 10 143 0 q 101 34 118 20 q 67 67 85 49 q 34 101 49 85 q 10 131 20 118 q 0 148 0 143 l 0 806 q 11 826 0 812 q 37 857 21 840 q 72 890 53 873 q 109 921 91 907 q 139 944 126 935 q 157 954 153 954 l 583 954 q 601 943 588 954 q 632 917 614 932 q 669 882 650 901 q 704 845 688 863 q 730 814 720 827 q 741 796 741 801 l 741 370 q 726 344 741 360 q 692 310 711 328 q 655 277 673 293 q 629 250 637 260 q 620 240 626 247 q 608 228 614 234 q 593 213 601 221 l 361 213 q 346 220 354 213 q 331 237 338 228 q 319 256 324 247 q 315 269 315 265 l 315 574 q 330 615 315 602 q 368 634 345 629 q 417 640 390 639 q 466 644 444 641 q 504 655 488 647 q 519 685 519 664 l 519 806 q 499 824 508 816 q 483 837 491 831 q 472 842 475 842 l 269 842 q 248 836 258 842 q 230 821 238 830 q 218 800 222 811 q 213 778 213 788 l 213 167 q 219 152 216 159 q 225 139 222 146 q 231 130 228 133 l 241 120 q 248 119 244 120 q 254 116 251 117 q 259 111 256 114 l 574 111 q 591 105 581 111 q 609 90 600 99 q 623 72 617 81 q 629 56 629 62 z "},"A":{"ha":961,"x_min":0,"x_max":741,"o":"m 0 694 q 15 713 0 696 q 55 755 31 729 q 112 813 80 781 q 177 878 144 845 q 243 943 210 911 q 301 1000 275 975 q 343 1040 326 1025 q 361 1055 359 1055 q 385 1040 366 1055 q 432 1001 404 1025 q 493 946 460 977 q 561 882 527 915 q 628 817 595 849 q 685 759 660 785 q 725 715 710 732 q 741 694 741 698 l 741 46 q 736 31 741 39 q 724 16 731 23 q 709 5 718 9 q 694 0 701 0 l 574 0 q 555 9 564 0 q 541 29 547 18 q 531 51 534 40 q 528 65 528 62 l 528 370 q 520 381 528 374 q 503 397 513 389 q 485 411 494 405 q 472 416 475 416 l 269 416 q 252 409 262 416 q 234 391 243 401 q 219 370 225 380 q 213 352 213 359 l 213 37 l 167 0 l 37 0 l 0 37 l 0 694 m 213 639 q 214 611 213 629 q 219 577 214 594 q 233 549 223 561 q 259 537 242 537 l 472 537 q 483 543 475 537 q 499 556 491 549 q 519 574 508 564 l 519 694 q 510 714 519 701 q 486 743 500 728 q 455 774 472 758 q 421 804 437 791 q 391 825 405 817 q 370 833 377 833 q 339 823 357 833 q 305 795 322 812 q 271 757 288 779 q 241 714 254 736 q 221 672 229 692 q 213 639 213 652 z "},"B":{"ha":961,"x_min":0,"x_max":741,"o":"m 0 46 q 15 79 0 67 q 46 102 29 92 q 78 124 64 112 q 93 157 93 136 l 93 907 q 86 927 93 919 q 69 942 79 935 q 46 955 58 949 q 24 968 35 961 q 7 986 14 976 q 0 1009 0 996 q 6 1029 0 1019 q 22 1047 12 1040 q 43 1060 32 1055 q 65 1065 55 1065 l 574 1065 q 596 1055 581 1065 q 630 1030 611 1045 q 668 997 648 1015 q 703 961 687 978 q 730 929 720 943 q 741 907 741 914 l 741 685 q 734 665 741 673 q 717 648 727 656 q 694 633 707 640 q 672 617 682 626 q 655 598 662 609 q 648 574 648 588 q 655 554 648 563 q 672 539 662 546 q 694 526 682 532 q 717 513 707 520 q 734 496 727 505 q 741 472 741 486 l 741 157 q 670 79 701 113 q 644 50 656 64 q 620 25 631 36 q 602 7 609 14 q 593 0 595 0 l 37 0 q 19 20 27 11 q 6 35 12 28 q 0 46 0 43 m 519 481 q 514 491 519 485 q 504 504 510 498 q 491 514 498 510 q 481 519 485 519 l 361 519 q 342 499 351 508 q 330 483 336 491 q 324 472 324 475 l 324 157 q 329 142 324 151 q 340 127 334 134 q 355 116 347 121 q 370 111 363 111 l 481 111 l 519 148 l 519 481 m 342 657 l 361 648 l 481 648 q 491 653 485 648 q 504 663 498 657 q 514 675 510 669 q 519 685 519 682 l 519 907 q 514 917 519 911 q 504 930 510 924 q 491 940 498 936 q 481 945 485 945 l 361 945 q 347 940 354 945 q 335 930 340 936 q 327 917 330 924 q 324 907 324 911 l 324 685 q 330 675 327 680 q 342 657 336 665 z "},"C":{"ha":961,"x_min":0,"x_max":741,"o":"m 685 750 q 657 765 673 750 q 622 801 641 779 q 583 847 603 822 q 545 894 564 873 q 509 930 526 916 q 481 945 493 945 l 361 945 q 347 935 359 945 q 318 909 335 925 q 283 875 302 894 q 249 837 265 856 q 223 803 233 819 q 213 778 213 787 l 213 278 q 223 256 213 271 q 248 222 233 241 q 281 184 262 204 q 317 149 300 165 q 349 122 334 132 q 370 111 363 111 l 481 111 q 505 126 491 111 q 537 162 519 140 q 574 209 554 183 q 615 255 594 234 q 656 291 635 277 q 694 306 676 306 q 721 297 712 306 q 735 274 730 288 q 740 243 739 260 q 741 213 741 227 q 733 181 741 201 q 712 137 725 161 q 684 89 700 113 q 652 45 668 65 q 620 13 635 25 q 593 0 604 0 l 259 0 q 237 19 257 0 q 188 65 217 37 q 126 126 159 94 q 65 188 94 159 q 19 237 37 217 q 0 259 0 257 l 0 806 q 18 828 0 808 q 64 877 36 848 q 125 938 92 905 q 190 999 159 971 q 244 1046 220 1027 q 278 1065 269 1065 l 574 1065 q 596 1055 581 1065 q 630 1030 611 1045 q 668 997 648 1015 q 703 961 687 978 q 730 929 720 943 q 741 907 741 914 l 741 796 q 736 781 741 789 q 723 766 731 773 q 705 755 715 760 q 685 750 695 750 z "},"D":{"ha":961,"x_min":0,"x_max":741,"o":"m 0 46 q 15 79 0 67 q 46 102 29 92 q 78 124 64 112 q 93 157 93 136 l 93 907 q 86 927 93 919 q 69 942 79 935 q 46 955 58 949 q 24 968 35 961 q 7 986 14 976 q 0 1009 0 996 q 6 1029 0 1019 q 22 1047 12 1040 q 43 1060 32 1055 q 65 1065 55 1065 l 463 1065 q 480 1054 467 1065 q 514 1025 494 1043 q 559 985 534 1008 q 609 937 584 962 q 658 889 634 913 q 700 846 682 865 q 729 813 718 826 q 741 796 741 800 l 741 259 q 730 245 741 258 q 701 215 719 233 q 661 173 684 197 q 614 126 638 150 q 568 80 591 102 q 526 39 545 57 q 495 11 507 22 q 481 0 484 0 l 37 0 q 19 20 27 11 q 6 35 12 28 q 0 46 0 43 m 370 945 q 355 941 363 945 q 340 933 347 938 q 329 921 334 928 q 324 907 324 914 l 324 157 q 329 144 324 151 q 340 132 334 137 q 355 123 347 127 q 370 120 363 120 q 391 129 377 120 q 421 150 405 137 q 455 179 437 163 q 486 211 472 195 q 510 239 500 226 q 519 259 519 252 l 519 806 q 509 819 519 808 q 483 846 498 830 q 448 879 467 861 q 413 910 429 896 q 385 935 397 925 q 370 945 373 945 z "},"E":{"ha":961,"x_min":0,"x_max":741,"o":"m 0 46 q 15 79 0 67 q 46 102 29 92 q 78 124 64 112 q 93 157 93 136 l 93 907 q 86 927 93 919 q 69 942 79 935 q 46 955 58 949 q 24 968 35 961 q 7 986 14 976 q 0 1009 0 996 q 6 1029 0 1019 q 22 1047 12 1040 q 43 1060 32 1055 q 65 1065 55 1065 l 676 1065 q 698 1060 686 1065 q 719 1047 709 1055 q 734 1029 728 1040 q 741 1009 741 1019 l 741 796 q 736 781 741 789 q 723 766 731 773 q 705 755 715 760 q 685 750 695 750 q 657 765 673 750 q 622 801 641 779 q 583 847 603 822 q 545 894 564 873 q 509 930 526 916 q 481 945 493 945 l 361 945 q 347 940 354 945 q 335 930 340 936 q 327 917 330 924 q 324 907 324 911 l 324 685 q 329 671 324 678 q 340 660 334 665 q 355 651 347 654 q 370 648 363 648 q 390 654 382 648 q 405 670 398 661 q 418 690 412 680 q 431 710 424 701 q 448 726 439 720 q 472 732 458 732 q 492 730 482 732 q 510 722 503 728 q 523 708 518 717 q 528 685 528 699 l 528 481 q 523 463 528 471 q 511 448 518 454 q 496 439 505 442 q 481 435 488 435 q 448 447 460 435 q 426 472 436 458 q 404 498 416 486 q 370 509 391 509 q 355 506 363 509 q 340 498 347 503 q 329 486 334 492 q 324 472 324 479 l 324 157 q 329 142 324 151 q 340 127 334 134 q 355 116 347 121 q 370 111 363 111 l 481 111 q 505 126 491 111 q 537 162 519 140 q 574 209 554 183 q 615 255 594 234 q 656 291 635 277 q 694 306 676 306 q 709 302 701 306 q 724 293 718 299 q 736 278 731 287 q 741 259 741 269 l 741 46 q 736 31 741 39 q 724 16 731 23 q 709 5 718 9 q 694 0 701 0 l 37 0 q 19 20 27 11 q 6 35 12 28 q 0 46 0 43 z "},"F":{"ha":961,"x_min":0,"x_max":741,"o":"m 0 46 q 15 79 0 67 q 46 102 29 92 q 78 124 64 112 q 93 157 93 136 l 93 907 q 86 927 93 919 q 69 942 79 935 q 46 955 58 949 q 24 968 35 961 q 7 986 14 976 q 0 1009 0 996 q 6 1029 0 1019 q 22 1047 12 1040 q 43 1060 32 1055 q 65 1065 55 1065 l 676 1065 q 698 1060 686 1065 q 719 1047 709 1055 q 734 1029 728 1040 q 741 1009 741 1019 l 741 796 q 736 781 741 789 q 723 766 731 773 q 705 755 715 760 q 685 750 695 750 q 657 765 673 750 q 622 801 641 779 q 583 847 603 822 q 545 894 564 873 q 509 930 526 916 q 481 945 493 945 l 361 945 q 347 940 354 945 q 335 930 340 936 q 327 917 330 924 q 324 907 324 911 l 324 685 q 329 671 324 678 q 340 660 334 665 q 355 651 347 654 q 370 648 363 648 q 390 654 382 648 q 405 670 398 661 q 418 690 412 680 q 431 710 424 701 q 448 726 439 720 q 472 732 458 732 q 492 730 482 732 q 510 722 503 728 q 523 708 518 717 q 528 685 528 699 l 528 481 q 523 463 528 471 q 511 448 518 454 q 496 439 505 442 q 481 435 488 435 q 448 447 460 435 q 426 472 436 458 q 404 498 416 486 q 370 509 391 509 q 355 506 363 509 q 340 498 347 503 q 329 486 334 492 q 324 472 324 479 l 324 157 q 331 134 324 144 q 348 116 338 124 q 370 102 358 109 q 393 87 382 95 q 410 70 403 79 q 416 46 416 60 l 416 37 q 407 27 413 34 q 395 15 401 21 q 380 0 388 8 l 37 0 q 19 20 27 11 q 6 35 12 28 q 0 46 0 43 z "},"G":{"ha":961,"x_min":0,"x_max":741,"o":"m 685 750 q 657 765 673 750 q 622 801 641 779 q 583 847 603 822 q 545 894 564 873 q 509 930 526 916 q 481 945 493 945 l 361 945 q 347 935 359 945 q 318 909 335 925 q 283 875 302 894 q 249 837 265 856 q 223 803 233 819 q 213 778 213 787 l 213 278 q 223 256 213 271 q 248 222 233 241 q 281 184 262 204 q 317 149 300 165 q 349 122 334 132 q 370 111 363 111 l 519 111 l 519 370 q 510 400 519 389 q 488 415 502 410 q 457 421 475 420 q 421 422 439 422 q 386 424 404 422 q 355 432 368 426 q 333 449 341 437 q 324 481 324 460 q 329 496 324 488 q 340 511 334 505 q 355 523 347 518 q 370 528 363 528 l 685 528 q 705 523 695 528 q 723 510 715 518 q 736 492 731 503 q 741 472 741 482 l 741 46 q 735 31 741 39 q 721 16 729 23 q 706 5 713 9 q 694 0 698 0 q 667 7 678 0 q 646 24 655 14 q 630 46 637 35 q 613 69 622 58 q 592 86 604 79 q 565 93 581 93 q 547 86 553 93 q 535 69 540 79 q 527 46 530 58 q 517 24 523 35 q 504 7 512 14 q 481 0 495 0 l 259 0 q 237 19 257 0 q 188 65 217 37 q 126 126 159 94 q 65 188 94 159 q 19 237 37 217 q 0 259 0 257 l 0 806 q 18 828 0 808 q 64 877 36 848 q 125 938 92 905 q 190 999 159 971 q 244 1046 220 1027 q 278 1065 269 1065 l 574 1065 q 596 1055 581 1065 q 630 1030 611 1045 q 668 997 648 1015 q 703 961 687 978 q 730 929 720 943 q 741 907 741 914 l 741 796 q 736 781 741 789 q 723 766 731 773 q 705 755 715 760 q 685 750 695 750 z "},"H":{"ha":961,"x_min":0,"x_max":741,"o":"m 0 1019 q 14 1045 0 1036 q 45 1059 27 1055 q 82 1064 64 1063 q 111 1065 101 1065 q 135 1063 118 1065 q 169 1056 152 1061 q 200 1041 186 1050 q 213 1019 213 1032 l 213 704 q 217 691 213 701 q 228 673 222 682 q 240 656 234 663 q 250 648 247 648 l 481 648 q 495 654 489 648 q 509 667 502 659 q 512 673 509 670 q 519 680 515 677 q 528 685 522 682 l 528 1000 q 538 1034 528 1021 q 566 1053 549 1046 q 602 1062 583 1060 q 639 1065 622 1065 q 666 1064 649 1065 q 700 1058 684 1063 q 729 1041 717 1053 q 741 1009 741 1030 l 741 46 q 736 31 741 39 q 724 16 731 23 q 709 5 718 9 q 694 0 701 0 l 574 0 q 555 9 564 0 q 541 29 547 18 q 531 51 534 40 q 528 65 528 62 l 528 481 q 519 488 522 484 q 512 493 515 490 q 509 500 509 496 q 495 513 502 507 q 481 519 489 519 l 259 519 q 244 513 252 519 q 229 498 236 507 q 218 479 222 489 q 213 463 213 470 l 213 37 l 167 0 l 37 0 l 0 37 l 0 1019 z "},"I":{"ha":961,"x_min":222,"x_max":629,"o":"m 222 46 q 235 79 222 67 q 264 100 248 91 q 293 120 280 110 q 306 148 306 131 l 306 907 q 300 927 306 919 q 284 942 294 935 q 264 955 275 949 q 244 968 254 961 q 229 986 235 976 q 222 1009 222 996 q 278 1065 222 1065 l 574 1065 q 594 1060 585 1065 q 612 1047 604 1055 q 625 1029 620 1040 q 629 1009 629 1019 q 623 986 629 996 q 606 968 616 976 q 583 954 595 960 q 561 939 571 947 q 544 922 551 931 q 537 898 537 912 l 537 157 q 544 134 537 144 q 561 117 551 124 q 583 103 571 109 q 606 90 595 97 q 623 75 616 83 q 629 56 629 67 q 628 39 629 49 q 622 21 626 30 q 610 6 617 12 q 593 0 603 0 l 259 0 q 242 5 249 0 q 230 16 235 9 q 224 31 226 23 q 222 46 222 39 z "},"J":{"ha":961,"x_min":0,"x_max":732,"o":"m 37 416 l 167 416 q 180 411 174 416 q 195 398 187 406 q 198 391 195 395 q 204 385 201 388 q 213 380 208 382 l 213 167 q 218 154 213 163 q 229 136 222 145 q 244 119 236 126 q 259 111 252 111 l 370 111 q 385 117 377 111 q 400 132 393 123 q 412 150 407 140 q 416 167 416 160 l 416 898 q 410 922 416 912 q 393 939 403 931 q 370 954 382 947 q 348 968 358 960 q 331 986 338 976 q 324 1009 324 996 q 329 1029 324 1019 q 341 1047 334 1040 q 359 1060 349 1055 q 380 1065 370 1065 l 676 1065 q 696 1060 686 1065 q 714 1047 707 1055 q 727 1029 722 1040 q 732 1009 732 1019 q 726 986 732 996 q 710 968 720 976 q 690 955 701 961 q 670 942 680 949 q 654 927 661 935 q 648 907 648 919 l 648 176 q 638 153 648 169 q 611 118 627 137 q 575 77 595 98 q 537 39 555 56 q 504 11 519 22 q 481 0 488 0 l 148 0 q 131 10 143 0 q 101 34 118 20 q 67 67 85 49 q 34 101 49 85 q 10 131 20 118 q 0 148 0 143 l 0 380 l 37 416 z "},"K":{"ha":961,"x_min":0,"x_max":741,"o":"m 0 46 q 15 79 0 67 q 46 102 29 92 q 78 124 64 112 q 93 157 93 136 l 93 907 q 86 927 93 919 q 69 942 79 935 q 46 955 58 949 q 24 968 35 961 q 7 986 14 976 q 0 1009 0 996 q 6 1029 0 1019 q 22 1047 12 1040 q 43 1060 32 1055 q 65 1065 55 1065 l 250 1065 q 270 1059 257 1065 q 294 1044 282 1053 q 315 1026 307 1036 q 324 1009 324 1017 l 324 685 q 329 671 324 678 q 340 660 334 665 q 355 651 347 654 q 370 648 363 648 q 400 660 385 648 q 430 689 415 672 q 458 723 444 705 q 481 750 471 740 q 493 760 485 753 q 508 772 500 766 q 528 787 517 779 l 528 1000 q 538 1034 528 1021 q 566 1053 549 1046 q 602 1062 583 1060 q 639 1065 622 1065 q 666 1064 649 1065 q 700 1058 684 1063 q 729 1041 717 1053 q 741 1009 741 1030 l 741 796 q 727 768 741 785 q 692 733 713 752 q 646 693 671 714 q 598 653 621 673 q 558 615 575 633 q 537 583 542 597 l 537 537 q 552 474 537 503 q 590 422 567 446 q 639 377 612 398 q 688 337 665 357 q 726 299 711 318 q 741 259 741 280 l 741 46 q 736 31 741 39 q 724 16 731 23 q 709 5 718 9 q 694 0 701 0 l 574 0 q 555 9 564 0 q 541 29 547 18 q 531 51 534 40 q 528 65 528 62 l 528 269 q 516 292 528 283 q 488 309 504 301 q 457 325 473 317 q 435 342 442 332 q 419 369 425 357 q 405 389 412 380 q 388 402 398 397 q 361 408 378 408 q 351 404 357 408 q 339 396 345 401 q 329 384 333 391 q 324 370 324 377 l 324 56 q 318 39 324 49 q 303 21 312 30 q 285 6 294 12 q 269 0 275 0 l 37 0 q 19 20 27 11 q 6 35 12 28 q 0 46 0 43 z "},"L":{"ha":961,"x_min":0,"x_max":741,"o":"m 0 46 q 15 79 0 67 q 46 102 29 92 q 78 124 64 112 q 93 157 93 136 l 93 907 q 86 927 93 919 q 69 942 79 935 q 46 955 58 949 q 24 968 35 961 q 7 986 14 976 q 0 1009 0 996 q 6 1029 0 1019 q 22 1047 12 1040 q 43 1060 32 1055 q 65 1065 55 1065 l 361 1065 q 381 1060 371 1065 q 399 1047 391 1055 q 412 1029 407 1040 q 416 1009 416 1019 q 410 986 416 996 q 393 968 403 976 q 370 955 382 961 q 348 942 358 949 q 331 927 338 935 q 324 907 324 919 l 324 157 q 329 142 324 151 q 340 127 334 134 q 355 116 347 121 q 370 111 363 111 l 481 111 q 505 126 491 111 q 537 162 519 140 q 574 209 554 183 q 615 255 594 234 q 656 291 635 277 q 694 306 676 306 q 709 302 701 306 q 724 293 718 299 q 736 278 731 287 q 741 259 741 269 l 741 46 q 736 31 741 39 q 724 16 731 23 q 709 5 718 9 q 694 0 701 0 l 37 0 q 19 20 27 11 q 6 35 12 28 q 0 46 0 43 z "},"M":{"ha":961,"x_min":0,"x_max":852,"o":"m 0 1019 q 14 1045 0 1036 q 45 1059 27 1055 q 82 1064 64 1063 q 111 1065 101 1065 q 165 1050 139 1065 q 215 1012 191 1035 q 260 963 239 989 q 300 914 282 937 q 334 876 319 891 q 361 861 349 861 l 481 861 q 518 876 500 861 q 555 914 536 891 q 595 963 574 937 q 640 1012 616 989 q 690 1050 663 1035 q 750 1065 718 1065 q 786 1062 768 1065 q 818 1052 804 1060 q 842 1030 833 1044 q 852 991 852 1015 l 852 65 q 848 47 852 58 q 839 25 845 36 q 824 7 833 15 q 806 0 816 0 l 685 0 q 674 6 682 0 q 659 20 667 12 q 645 35 651 28 q 639 46 639 43 l 639 574 q 633 593 639 585 q 618 608 627 602 q 600 617 609 614 q 583 621 590 621 q 555 614 567 621 q 532 596 543 607 q 512 574 522 586 q 490 552 502 562 q 462 534 477 541 q 426 528 447 528 q 389 534 405 528 q 360 552 373 541 q 337 574 347 562 q 316 596 326 586 q 294 614 305 607 q 269 621 283 621 q 248 616 258 621 q 230 603 238 611 q 218 585 222 595 q 213 565 213 575 l 213 37 l 167 0 l 37 0 l 0 37 l 0 1019 z "},"N":{"ha":961,"x_min":0,"x_max":741,"o":"m 0 1019 q 14 1045 0 1036 q 45 1059 27 1055 q 82 1064 64 1063 q 111 1065 101 1065 q 161 1052 136 1065 q 213 1017 187 1038 q 266 968 239 996 q 316 912 292 941 q 363 856 340 884 q 407 807 387 829 q 443 773 427 786 q 472 760 460 760 q 489 761 479 760 q 507 766 498 763 q 522 775 515 770 q 528 787 528 781 l 528 1000 q 538 1034 528 1021 q 566 1053 549 1046 q 602 1062 583 1060 q 639 1065 622 1065 q 666 1064 649 1065 q 700 1058 684 1063 q 729 1041 717 1053 q 741 1009 741 1030 l 741 46 q 736 31 741 39 q 724 16 731 23 q 709 5 718 9 q 694 0 701 0 l 574 0 q 555 9 564 0 q 541 29 547 18 q 531 51 534 40 q 528 65 528 62 l 528 370 q 516 384 528 372 q 487 413 505 395 q 446 454 469 431 q 398 499 422 476 q 269 621 341 553 q 248 616 258 621 q 230 603 238 611 q 218 585 222 595 q 213 565 213 575 l 213 37 l 167 0 l 37 0 l 0 37 l 0 1019 z "},"O":{"ha":961,"x_min":0,"x_max":741,"o":"m 130 9 q 110 24 123 14 q 83 47 98 35 q 54 75 69 60 q 27 103 39 90 q 8 129 16 117 q 0 148 0 141 l 0 907 q 11 929 0 914 q 37 961 21 943 q 73 997 54 978 q 111 1030 93 1015 q 145 1055 130 1045 q 167 1065 160 1065 l 574 1065 q 596 1055 581 1065 q 630 1030 611 1045 q 668 997 648 1015 q 703 961 687 978 q 730 929 720 943 q 741 907 741 914 l 741 157 q 670 79 701 113 q 644 50 656 64 q 620 25 631 36 q 602 7 609 14 q 593 0 595 0 l 148 0 l 130 9 m 519 907 q 514 917 519 911 q 504 930 510 924 q 491 940 498 936 q 481 945 485 945 l 250 945 q 237 939 243 945 q 224 924 230 932 q 216 905 219 915 q 213 889 213 896 l 213 167 q 218 154 213 163 q 229 136 222 145 q 244 119 236 126 q 259 111 252 111 l 481 111 l 519 148 l 519 907 z "},"P":{"ha":961,"x_min":0,"x_max":741,"o":"m 0 46 q 15 79 0 67 q 46 102 29 92 q 78 124 64 112 q 93 157 93 136 l 93 907 q 86 927 93 919 q 69 942 79 935 q 46 955 58 949 q 24 968 35 961 q 7 986 14 976 q 0 1009 0 996 q 6 1029 0 1019 q 22 1047 12 1040 q 43 1060 32 1055 q 65 1065 55 1065 l 574 1065 q 596 1055 581 1065 q 630 1030 611 1045 q 668 997 648 1015 q 703 961 687 978 q 730 929 720 943 q 741 907 741 914 l 741 685 q 730 664 741 678 q 703 632 720 649 q 668 596 687 614 q 630 562 648 577 q 596 537 611 547 q 574 528 581 528 l 361 528 q 351 513 355 519 q 342 500 347 507 q 334 491 337 494 l 324 472 l 324 157 q 331 134 324 144 q 348 116 338 124 q 370 102 358 109 q 393 87 382 95 q 410 70 403 79 q 416 46 416 60 l 416 37 q 407 27 413 34 q 395 15 401 21 q 380 0 388 8 l 37 0 q 19 20 27 11 q 6 35 12 28 q 0 46 0 43 m 342 657 l 361 648 l 481 648 q 491 653 485 648 q 504 663 498 657 q 514 675 510 669 q 519 685 519 682 l 519 907 q 514 917 519 911 q 504 930 510 924 q 491 940 498 936 q 481 945 485 945 l 361 945 q 347 940 354 945 q 335 930 340 936 q 327 917 330 924 q 324 907 324 911 l 324 685 q 330 675 327 680 q 342 657 336 665 z "},"Q":{"ha":961,"x_min":0,"x_max":741,"o":"m 732 -167 q 728 -182 732 -174 q 720 -197 725 -190 q 708 -208 715 -203 q 694 -213 701 -213 l 463 -213 q 434 -197 442 -213 q 422 -158 425 -181 q 419 -106 420 -134 q 414 -55 418 -79 q 398 -16 410 -32 q 361 0 387 0 l 148 0 q 131 10 143 0 q 101 34 118 20 q 67 67 85 49 q 34 101 49 85 q 10 131 20 118 q 0 148 0 143 l 0 907 q 11 929 0 914 q 37 961 21 943 q 73 997 54 978 q 111 1030 93 1015 q 145 1055 130 1045 q 167 1065 160 1065 l 574 1065 q 596 1055 581 1065 q 630 1030 611 1045 q 668 997 648 1015 q 703 961 687 978 q 730 929 720 943 q 741 907 741 914 l 741 157 q 734 134 741 144 q 717 117 727 124 q 694 103 707 109 q 672 90 682 97 q 655 75 662 83 q 648 56 648 67 l 648 -65 q 654 -85 648 -77 q 670 -100 661 -93 q 690 -113 680 -106 q 710 -126 701 -119 q 726 -143 720 -134 q 732 -167 732 -153 m 472 222 q 488 225 479 222 q 503 234 496 229 q 514 245 509 239 q 519 259 519 252 l 519 907 q 514 917 519 911 q 504 930 510 924 q 491 940 498 936 q 481 945 485 945 l 250 945 q 237 939 243 945 q 224 924 230 932 q 216 905 219 915 q 213 889 213 896 l 213 167 q 225 133 213 146 q 259 120 238 120 q 273 120 267 120 q 286 123 280 121 q 297 132 292 126 q 306 148 302 138 q 306 173 306 157 q 306 205 305 188 q 310 241 307 223 q 320 273 313 259 q 340 297 328 288 q 370 306 352 306 q 399 293 388 306 q 421 264 411 280 q 443 235 431 248 q 472 222 455 222 z "},"R":{"ha":961,"x_min":0,"x_max":741,"o":"m 0 46 q 15 79 0 67 q 46 102 29 92 q 78 124 64 112 q 93 157 93 136 l 93 907 q 86 927 93 919 q 69 942 79 935 q 46 955 58 949 q 24 968 35 961 q 7 986 14 976 q 0 1009 0 996 q 6 1029 0 1019 q 22 1047 12 1040 q 43 1060 32 1055 q 65 1065 55 1065 l 574 1065 q 596 1055 581 1065 q 630 1030 611 1045 q 668 997 648 1015 q 703 961 687 978 q 730 929 720 943 q 741 907 741 914 l 741 685 q 734 665 741 673 q 717 649 727 656 q 694 635 707 642 q 672 623 682 629 q 655 609 662 616 q 648 593 648 602 l 648 472 q 655 452 648 460 q 672 435 662 443 q 694 421 682 428 q 717 407 707 414 q 734 391 727 399 q 741 370 741 382 l 741 46 q 736 31 741 39 q 724 16 731 23 q 709 5 718 9 q 694 0 701 0 l 574 0 q 555 9 564 0 q 541 29 547 18 q 531 51 534 40 q 528 65 528 62 l 528 370 q 517 390 528 377 q 491 419 507 404 q 456 450 475 434 q 419 479 437 467 q 388 501 401 492 q 370 509 375 509 q 355 506 363 509 q 340 498 347 503 q 329 486 334 492 q 324 472 324 479 l 324 56 q 318 39 324 49 q 303 21 312 30 q 285 6 294 12 q 269 0 275 0 l 37 0 q 19 20 27 11 q 6 35 12 28 q 0 46 0 43 m 342 657 l 361 648 l 481 648 q 491 653 485 648 q 504 663 498 657 q 514 675 510 669 q 519 685 519 682 l 519 907 q 514 917 519 911 q 504 930 510 924 q 491 940 498 936 q 481 945 485 945 l 361 945 q 347 940 354 945 q 335 930 340 936 q 327 917 330 924 q 324 907 324 911 l 324 685 q 330 675 327 680 q 342 657 336 665 z "},"S":{"ha":961,"x_min":0,"x_max":741,"o":"m 102 315 q 171 300 148 315 q 204 262 195 285 q 215 213 214 239 q 218 164 216 186 q 228 126 220 141 q 259 111 236 111 l 481 111 l 519 148 l 519 370 q 509 388 519 375 q 484 417 499 400 q 451 451 469 433 q 417 484 433 469 q 388 509 400 499 q 370 519 375 519 q 299 535 329 526 q 246 557 269 545 q 205 586 223 570 q 168 622 186 602 q 126 667 149 642 q 74 722 104 692 q 37 745 53 733 q 12 766 23 754 q 0 787 0 777 l 0 907 q 11 929 0 914 q 37 961 21 943 q 73 997 54 978 q 111 1030 93 1015 q 145 1055 130 1045 q 167 1065 160 1065 l 574 1065 q 596 1055 581 1065 q 630 1030 611 1045 q 668 997 648 1015 q 703 961 687 978 q 730 929 720 943 q 741 907 741 914 l 741 796 q 730 768 741 779 q 704 751 720 758 q 671 743 688 745 q 639 741 653 741 q 583 749 604 741 q 548 772 561 758 q 530 805 535 787 q 522 843 524 823 q 519 880 520 862 q 515 913 518 899 q 505 936 512 927 q 481 945 497 945 l 250 945 q 229 933 236 945 q 218 905 221 921 q 214 874 214 889 q 213 852 213 859 q 221 815 213 836 q 241 772 229 794 q 270 729 254 751 q 302 691 286 708 q 334 662 318 673 q 361 648 349 650 q 378 647 364 648 q 407 644 391 646 q 437 640 423 642 q 454 639 450 639 q 485 621 460 639 q 541 575 509 603 q 608 515 572 548 q 672 452 643 482 q 721 400 702 422 q 741 370 741 377 l 741 157 q 670 79 701 113 q 644 50 656 64 q 620 25 631 36 q 602 7 609 14 q 593 0 595 0 l 148 0 q 131 10 143 0 q 101 34 118 20 q 67 67 85 49 q 34 101 49 85 q 10 131 20 118 q 0 148 0 143 l 0 269 q 12 295 0 286 q 40 309 24 304 q 74 314 57 313 q 102 315 92 315 z "},"T":{"ha":961,"x_min":0,"x_max":854,"o":"m 222 46 q 235 79 222 67 q 264 100 248 91 q 293 120 280 110 q 306 148 306 131 l 306 907 q 301 921 306 914 q 291 933 297 928 q 278 941 285 938 q 269 945 272 945 q 229 930 248 945 q 193 894 210 916 q 158 847 175 873 q 125 801 142 822 q 91 765 109 779 q 56 750 74 750 q 39 752 49 750 q 21 759 30 754 q 6 770 12 763 q 0 787 0 777 l 0 1019 q 7 1037 0 1029 q 25 1052 15 1046 q 47 1061 36 1058 q 65 1065 58 1065 l 787 1065 q 821 1056 808 1065 q 841 1032 833 1046 q 850 1000 848 1018 q 853 965 853 982 q 853 932 854 947 q 852 907 852 917 l 852 814 q 844 793 848 804 q 834 772 840 782 q 819 756 828 762 q 796 750 810 750 q 756 765 775 750 q 720 801 738 779 q 685 847 703 822 q 650 894 668 873 q 614 930 633 916 q 574 945 595 945 q 565 940 571 945 q 552 928 558 935 q 542 913 546 922 q 537 898 537 905 l 537 157 q 544 134 537 144 q 561 117 551 124 q 583 103 571 109 q 606 90 595 97 q 623 75 616 83 q 629 56 629 67 q 628 39 629 49 q 622 21 626 30 q 610 6 617 12 q 593 0 603 0 l 259 0 q 242 5 249 0 q 230 16 235 9 q 224 31 226 23 q 222 46 222 39 z "},"U":{"ha":961,"x_min":0,"x_max":741,"o":"m 111 1065 q 135 1063 118 1065 q 169 1056 152 1061 q 200 1041 186 1050 q 213 1019 213 1032 l 213 167 q 218 154 213 163 q 229 136 222 145 q 244 119 236 126 q 259 111 252 111 l 481 111 l 528 148 l 528 1000 q 538 1034 528 1021 q 566 1053 549 1046 q 602 1062 583 1060 q 639 1065 622 1065 q 666 1064 649 1065 q 700 1058 684 1063 q 729 1041 717 1053 q 741 1009 741 1030 l 741 157 q 670 79 701 113 q 644 50 656 64 q 620 25 631 36 q 602 7 609 14 q 593 0 595 0 l 148 0 q 131 10 143 0 q 101 34 118 20 q 67 67 85 49 q 34 101 49 85 q 10 131 20 118 q 0 148 0 143 l 0 1019 q 14 1045 0 1036 q 45 1059 27 1055 q 82 1064 64 1063 q 111 1065 101 1065 z "},"V":{"ha":961,"x_min":0,"x_max":852,"o":"m 111 1065 q 135 1063 118 1065 q 169 1056 152 1061 q 200 1041 186 1050 q 213 1019 213 1032 l 213 389 q 224 353 213 372 q 254 314 235 334 q 295 277 272 295 q 342 244 318 258 q 388 221 366 230 q 426 213 410 213 q 458 222 437 213 q 502 245 478 231 q 550 278 526 260 q 594 313 574 296 q 626 346 614 331 q 639 370 639 361 l 639 1009 q 651 1038 639 1027 q 681 1055 663 1048 q 717 1063 698 1061 q 750 1065 736 1065 q 786 1062 768 1065 q 818 1052 804 1060 q 842 1030 833 1044 q 852 991 852 1015 l 852 389 q 837 364 852 383 q 797 316 821 345 q 740 253 772 288 q 673 184 707 219 q 607 116 640 149 q 547 57 574 83 q 503 16 520 31 q 481 0 485 0 l 361 0 q 343 15 359 0 q 301 55 326 31 q 243 112 275 80 q 177 177 210 144 q 112 243 144 210 q 55 301 80 275 q 15 343 31 326 q 0 361 0 359 l 0 1019 q 14 1045 0 1036 q 45 1059 27 1055 q 82 1064 64 1063 q 111 1065 101 1065 z "},"W":{"ha":961,"x_min":0,"x_max":852,"o":"m 111 1065 q 135 1063 118 1065 q 169 1056 152 1061 q 200 1041 186 1050 q 213 1019 213 1032 l 213 389 q 225 347 213 361 q 259 334 238 334 q 286 337 273 334 q 306 361 298 340 q 307 404 306 378 q 314 455 308 430 q 333 500 320 480 q 370 528 346 521 l 426 528 q 481 519 460 528 q 514 497 503 511 q 530 466 526 484 q 536 431 534 449 q 537 395 537 412 q 542 364 538 378 q 555 342 545 351 q 583 334 564 334 q 600 337 590 334 q 618 345 609 340 q 633 357 627 350 q 639 370 639 363 l 639 1009 q 651 1038 639 1027 q 681 1055 663 1048 q 717 1063 698 1061 q 750 1065 736 1065 q 786 1062 768 1065 q 818 1052 804 1060 q 842 1030 833 1044 q 852 991 852 1015 l 852 278 q 840 245 852 257 q 812 223 828 233 q 782 203 797 214 q 760 176 766 193 q 753 150 755 167 q 750 114 751 134 q 747 74 749 94 q 740 37 745 54 q 724 11 734 21 q 694 0 713 0 l 574 0 q 543 15 551 0 q 532 53 534 30 q 528 102 529 75 q 518 151 527 128 q 488 189 509 174 q 426 203 467 203 q 357 189 380 203 q 326 151 334 174 q 316 102 317 128 q 313 53 315 75 q 302 15 311 30 q 269 0 294 0 l 148 0 q 119 11 130 0 q 102 39 108 22 q 95 77 97 56 q 92 118 93 98 q 90 153 91 137 q 83 176 88 169 q 63 195 77 186 q 35 214 49 204 q 11 235 21 224 q 0 259 0 245 l 0 1019 q 14 1045 0 1036 q 45 1059 27 1055 q 82 1064 64 1063 q 111 1065 101 1065 z "},"X":{"ha":961,"x_min":0,"x_max":852,"o":"m 0 167 q 13 191 0 176 q 48 226 26 206 q 97 269 69 246 q 153 316 124 292 q 209 363 182 340 q 258 407 237 387 q 293 445 279 428 q 306 472 306 462 l 306 583 q 283 625 306 600 q 227 679 260 650 q 153 741 193 709 q 79 802 113 772 q 23 857 45 831 q 0 898 0 882 l 0 1019 q 14 1045 0 1036 q 45 1059 27 1055 q 82 1064 64 1063 q 111 1065 101 1065 q 164 1058 146 1065 q 190 1038 182 1050 q 198 1008 197 1025 q 200 972 199 991 q 205 931 201 952 q 222 889 209 910 q 238 869 227 882 q 263 841 249 856 q 293 809 277 825 q 323 780 309 793 q 351 759 338 767 q 370 750 363 750 l 472 750 q 490 761 477 750 q 521 787 504 771 q 558 822 538 803 q 593 859 577 841 q 619 889 609 876 q 629 907 629 903 q 636 951 634 930 q 642 989 639 972 q 652 1021 646 1007 q 669 1045 658 1035 q 701 1060 681 1055 q 750 1065 720 1065 q 829 1037 806 1065 q 852 954 852 1010 q 830 886 852 919 q 777 821 809 852 q 705 758 744 789 q 631 697 666 727 q 570 640 596 668 q 537 583 544 611 l 537 537 q 561 456 537 493 q 619 385 584 418 q 694 319 654 351 q 770 254 735 288 q 828 183 805 220 q 852 102 852 146 q 851 74 852 92 q 846 40 850 57 q 832 12 842 24 q 806 0 823 0 l 685 0 q 659 10 669 0 q 642 36 648 20 q 633 71 635 52 q 629 105 630 89 q 629 134 629 122 q 629 148 629 146 q 620 166 629 153 q 595 197 610 180 q 563 234 581 215 q 528 269 545 253 q 499 295 511 285 q 481 306 486 306 l 361 306 q 348 296 359 306 q 323 272 338 286 q 292 240 309 257 q 260 207 275 222 q 235 180 245 191 q 222 167 224 169 q 218 156 220 161 q 215 147 216 152 q 213 139 213 142 q 212 118 213 132 q 208 88 210 104 q 205 58 206 73 q 203 37 203 44 l 167 0 l 37 0 l 0 37 l 0 167 z "},"Y":{"ha":961,"x_min":0,"x_max":852,"o":"m 222 46 q 235 79 222 67 q 264 100 248 91 q 293 120 280 110 q 306 148 306 131 l 306 481 q 293 502 306 487 q 258 537 279 516 q 209 583 237 558 q 153 634 182 608 q 97 686 124 661 q 48 732 69 711 q 13 767 26 753 q 0 787 0 782 l 0 1019 q 14 1045 0 1036 q 45 1059 27 1055 q 82 1064 64 1063 q 111 1065 101 1065 q 135 1063 118 1065 q 169 1056 152 1061 q 200 1041 186 1050 q 213 1019 213 1032 l 213 814 q 223 796 213 810 q 249 763 233 782 q 283 724 265 745 q 318 687 302 704 q 347 660 335 671 q 361 648 359 648 l 481 648 q 503 658 488 648 q 535 683 517 668 q 571 716 552 698 q 604 752 589 735 q 629 784 619 770 q 639 806 639 799 l 639 1009 q 651 1038 639 1027 q 681 1055 663 1048 q 717 1063 698 1061 q 750 1065 736 1065 q 809 1053 788 1065 q 839 1021 829 1042 q 850 971 848 1000 q 852 907 852 942 l 852 814 q 819 760 845 791 q 758 695 793 729 q 684 626 723 661 q 612 561 645 591 q 558 507 580 531 q 537 472 537 484 l 537 157 q 544 134 537 144 q 561 117 551 124 q 583 103 571 109 q 606 90 595 97 q 623 75 616 83 q 629 56 629 67 q 628 39 629 49 q 622 21 626 30 q 610 6 617 12 q 593 0 603 0 l 259 0 q 242 5 249 0 q 230 16 235 9 q 224 31 226 23 q 222 46 222 39 z "},"Z":{"ha":961,"x_min":0,"x_max":852,"o":"m 0 269 q 17 294 0 274 q 64 345 35 315 q 134 414 94 376 q 218 496 174 453 q 310 585 263 539 q 402 673 357 630 q 487 756 447 717 q 556 827 526 795 q 603 879 586 858 q 621 907 621 901 q 619 917 621 911 q 613 930 617 924 q 605 940 610 936 q 593 945 600 945 l 250 945 q 229 930 243 945 q 196 894 214 916 q 156 847 177 873 q 116 801 136 822 q 81 765 97 779 q 56 750 65 750 q 39 752 49 750 q 21 759 30 754 q 6 770 12 763 q 0 787 0 777 l 0 1019 q 7 1037 0 1029 q 25 1052 15 1046 q 47 1061 36 1058 q 65 1065 58 1065 l 787 1065 q 821 1054 808 1065 q 840 1027 833 1043 q 849 991 847 1010 q 852 954 852 971 q 824 876 852 919 q 752 786 797 833 q 650 687 707 738 q 532 583 592 635 q 415 480 473 531 q 313 381 357 429 q 240 290 268 333 q 213 213 213 248 q 214 185 213 203 q 219 152 214 168 q 233 123 223 135 q 259 111 242 111 l 583 111 q 615 126 597 111 q 651 162 632 140 q 690 209 670 183 q 728 255 709 234 q 765 291 747 277 q 796 306 783 306 q 817 301 806 306 q 834 289 827 296 q 847 271 842 281 q 852 250 852 260 l 852 65 q 848 47 852 58 q 839 25 845 36 q 824 7 833 15 q 806 0 816 0 l 37 0 l 0 37 l 0 269 z "},"[":{"ha":961,"x_min":213,"x_max":629,"o":"m 629 1009 q 621 979 629 990 q 597 963 612 968 q 565 956 583 958 q 528 951 547 954 q 490 947 509 949 q 458 937 472 944 q 435 916 444 929 q 426 880 426 902 l 426 176 q 441 132 426 146 q 478 114 456 119 q 528 109 501 109 q 577 105 554 109 q 614 92 600 102 q 629 56 629 81 q 628 39 629 49 q 622 21 626 30 q 610 6 617 12 q 593 0 603 0 l 259 0 q 244 5 252 0 q 229 16 236 9 q 218 31 222 23 q 213 46 213 39 l 213 1019 q 220 1037 213 1029 q 238 1052 228 1046 q 260 1061 249 1058 q 278 1065 271 1065 l 574 1065 q 594 1060 585 1065 q 612 1047 604 1055 q 625 1029 620 1040 q 629 1009 629 1019 z "},"\\":{"ha":961,"x_min":0,"x_max":741,"o":"m 46 945 q 72 926 50 945 q 129 876 94 908 q 208 802 163 844 q 302 711 253 760 q 404 612 352 663 q 504 513 456 562 q 596 419 553 464 q 671 341 639 375 q 722 285 703 307 q 741 259 741 263 l 741 46 q 735 31 741 39 q 721 16 729 23 q 706 5 713 9 q 694 0 698 0 q 671 19 692 0 q 615 71 650 38 q 536 146 581 103 q 442 239 492 190 q 340 339 393 288 q 239 440 288 391 q 146 533 190 489 q 71 610 103 577 q 19 664 38 644 q 0 685 0 684 l 0 907 q 5 921 0 914 q 16 933 9 928 q 31 941 23 938 q 46 945 39 945 z "},"]":{"ha":961,"x_min":222,"x_max":639,"o":"m 222 46 q 237 86 222 74 q 273 102 251 98 q 319 106 294 106 q 366 111 345 106 q 402 127 388 115 q 416 167 416 139 l 416 898 q 411 913 416 905 q 398 928 406 921 q 380 945 390 937 q 352 944 368 945 q 318 945 336 944 q 284 949 301 946 q 253 959 267 952 q 231 979 239 966 q 222 1009 222 991 q 278 1065 222 1065 l 574 1065 q 600 1057 588 1065 q 621 1038 612 1049 q 634 1014 629 1027 q 639 991 639 1001 l 639 65 q 635 47 639 58 q 626 25 632 36 q 611 7 620 15 q 593 0 603 0 l 259 0 q 242 5 249 0 q 230 16 235 9 q 224 31 226 23 q 222 46 222 39 z "},"^":{"ha":961,"x_min":0,"x_max":732,"o":"m 0 907 q 15 928 0 911 q 55 971 31 945 q 112 1030 80 998 q 178 1095 144 1062 q 245 1159 212 1128 q 305 1215 278 1191 q 349 1254 332 1239 q 370 1269 367 1269 q 394 1254 376 1269 q 438 1215 412 1239 q 497 1159 465 1191 q 562 1095 529 1128 q 625 1030 594 1062 q 679 971 655 998 q 718 928 703 945 q 732 907 732 911 q 730 887 732 897 q 723 869 728 877 q 712 857 719 861 q 694 852 705 852 l 583 852 q 548 866 565 852 q 514 902 530 881 q 480 949 497 924 q 446 996 464 975 q 410 1032 429 1017 q 370 1046 391 1046 q 339 1032 357 1046 q 302 996 321 1017 q 264 949 283 975 q 225 902 244 924 q 189 866 206 881 q 157 852 171 852 l 46 852 q 31 858 39 852 q 16 873 23 864 q 5 891 9 882 q 0 907 0 901 z "},"_":{"ha":961,"x_min":0,"x_max":842,"o":"m 0 -157 q 5 -142 0 -151 q 17 -127 9 -134 q 35 -116 25 -121 q 56 -111 45 -111 l 787 -111 q 807 -116 798 -111 q 825 -127 817 -121 q 838 -142 833 -134 q 842 -157 842 -151 q 841 -174 842 -164 q 834 -192 839 -183 q 823 -207 830 -201 q 806 -213 816 -213 l 37 -213 q 27 -207 34 -213 q 15 -192 21 -201 q 4 -174 9 -183 q 0 -157 0 -164 z "},"`":{"ha":961,"x_min":213,"x_max":519,"o":"m 315 1278 q 341 1279 329 1278 q 365 1278 353 1280 q 387 1270 376 1276 q 408 1250 397 1264 q 428 1214 422 1232 q 437 1181 434 1197 q 442 1149 440 1165 q 449 1118 444 1134 q 463 1087 453 1103 q 491 1055 473 1072 q 507 1044 501 1048 q 515 1036 513 1040 q 518 1025 518 1031 q 519 1009 519 1019 q 509 977 519 988 q 485 961 500 966 q 452 955 471 956 q 416 954 434 954 q 385 962 405 954 q 343 984 366 970 q 297 1015 321 998 q 255 1049 274 1032 q 225 1083 237 1067 q 213 1111 213 1099 l 213 1232 q 225 1258 213 1249 q 253 1272 237 1267 q 287 1277 270 1276 q 315 1278 304 1278 z "},"a":{"ha":961,"x_min":0,"x_max":732,"o":"m 408 574 q 404 596 408 585 q 395 617 401 607 q 380 633 389 627 q 361 639 371 639 l 157 639 q 124 656 136 639 q 111 694 111 673 q 115 709 111 701 q 124 724 118 718 q 139 736 130 731 q 157 741 147 741 l 472 741 q 498 731 481 741 q 534 705 515 721 q 574 670 554 690 q 611 631 595 650 q 638 594 627 612 q 648 565 648 576 l 648 148 q 661 120 648 131 q 690 100 674 110 q 719 79 706 91 q 732 46 732 67 q 728 31 732 39 q 720 16 725 23 q 708 5 715 9 q 694 0 701 0 l 574 0 q 545 15 557 0 q 521 46 533 29 q 493 78 509 64 q 454 93 478 93 q 436 86 442 93 q 426 69 430 79 q 420 46 422 58 q 413 24 418 35 q 401 7 409 14 q 380 0 394 0 l 148 0 q 131 10 143 0 q 101 34 118 20 q 67 67 85 49 q 34 101 49 85 q 10 131 20 118 q 0 148 0 143 l 0 380 q 13 401 0 387 q 44 431 26 415 q 78 460 61 446 q 102 481 95 475 l 139 519 l 157 537 l 370 537 q 384 542 377 537 q 396 552 391 546 q 404 565 401 558 q 408 574 408 571 m 315 416 q 283 414 301 416 q 250 405 266 412 q 224 386 235 398 q 213 352 213 373 l 213 167 q 218 154 213 163 q 229 136 222 145 q 244 119 236 126 q 259 111 252 111 l 398 111 l 416 130 l 416 361 q 406 393 416 382 q 380 409 395 404 q 347 415 364 414 q 315 416 329 416 z "},"b":{"ha":961,"x_min":0,"x_max":741,"o":"m 0 1009 q 6 1029 0 1019 q 22 1047 12 1040 q 43 1060 32 1055 q 65 1065 55 1065 l 250 1065 q 270 1059 257 1065 q 294 1044 282 1053 q 315 1026 307 1036 q 324 1009 324 1017 l 324 796 q 336 773 324 783 q 367 757 348 764 q 410 744 386 750 q 457 730 433 738 q 502 712 481 723 q 537 685 524 701 q 565 656 547 673 q 607 620 584 640 q 653 579 629 600 q 696 538 677 557 q 728 501 715 518 q 741 472 741 484 l 741 157 q 670 79 701 113 q 644 50 656 64 q 620 25 631 36 q 602 7 609 14 q 593 0 595 0 l 148 0 q 133 6 141 0 q 118 21 125 12 q 106 39 111 30 q 102 56 102 49 l 102 907 q 94 927 102 919 q 75 942 87 935 q 51 955 64 949 q 26 968 38 961 q 7 986 15 976 q 0 1009 0 996 m 370 621 q 355 617 363 621 q 340 609 347 614 q 329 597 334 604 q 324 583 324 590 l 324 157 q 329 142 324 151 q 340 127 334 134 q 355 116 347 121 q 370 111 363 111 l 481 111 l 519 148 l 519 481 q 510 502 519 488 q 486 530 500 515 q 455 562 472 545 q 421 591 437 578 q 391 612 405 604 q 370 621 377 621 z "},"c":{"ha":961,"x_min":0,"x_max":732,"o":"m 732 583 q 723 551 732 562 q 700 535 713 540 q 669 529 686 530 q 639 528 653 528 q 595 535 614 528 q 563 554 576 543 q 538 578 549 566 q 517 603 528 591 q 497 622 507 614 q 472 629 486 629 l 269 629 q 248 623 258 629 q 230 608 238 617 q 218 587 222 598 q 213 565 213 575 l 213 167 q 218 154 213 163 q 229 136 222 145 q 244 119 236 126 q 259 111 252 111 l 481 111 q 498 118 491 111 q 512 135 505 125 q 524 157 518 145 q 538 180 530 170 q 554 197 545 190 q 574 203 563 203 l 694 203 q 708 199 701 203 q 720 187 715 194 q 728 172 725 180 q 732 157 732 164 q 723 139 732 153 q 702 109 715 126 q 673 72 689 91 q 641 37 656 53 q 613 11 626 21 q 593 0 600 0 l 148 0 q 131 10 143 0 q 101 34 118 20 q 67 67 85 49 q 34 101 49 85 q 10 131 20 118 q 0 148 0 143 l 0 593 q 7 602 0 595 q 25 620 14 609 q 50 644 36 631 q 79 670 64 656 q 157 741 113 701 l 583 741 q 604 730 590 741 q 634 704 618 720 q 668 669 650 688 q 699 632 685 650 q 723 601 713 614 q 732 583 732 588 z "},"d":{"ha":961,"x_min":0,"x_max":732,"o":"m 416 852 q 410 888 416 873 q 393 916 403 903 q 370 938 382 928 q 348 958 358 947 q 331 981 338 968 q 324 1009 324 993 q 329 1029 324 1019 q 341 1047 334 1040 q 359 1060 349 1055 q 380 1065 370 1065 l 574 1065 q 597 1057 585 1065 q 622 1038 610 1049 q 641 1014 633 1027 q 648 991 648 1001 l 648 148 q 661 120 648 131 q 690 100 674 110 q 719 79 706 91 q 732 46 732 67 q 728 31 732 39 q 720 16 725 23 q 708 5 715 9 q 694 0 701 0 l 574 0 q 545 15 557 0 q 521 46 533 29 q 493 78 509 64 q 454 93 478 93 q 436 86 442 93 q 426 69 430 79 q 420 46 422 58 q 413 24 418 35 q 401 7 409 14 q 380 0 394 0 l 148 0 q 131 10 143 0 q 101 34 118 20 q 67 67 85 49 q 34 101 49 85 q 10 131 20 118 q 0 148 0 143 l 0 481 q 16 502 0 484 q 56 546 32 520 q 110 603 81 572 q 166 661 139 633 q 213 707 193 688 q 241 732 234 727 q 286 756 264 750 q 328 763 308 762 q 363 764 347 764 q 392 771 380 764 q 410 797 404 779 q 416 852 416 814 m 370 621 q 349 611 363 621 q 317 588 334 602 q 281 556 300 574 q 248 520 262 538 q 223 488 233 503 q 213 463 213 473 l 213 167 q 218 154 213 163 q 229 136 222 145 q 244 119 236 126 q 259 111 252 111 l 398 111 l 416 130 l 416 574 q 404 608 416 595 q 370 621 391 621 z "},"e":{"ha":961,"x_min":0,"x_max":741,"o":"m 732 157 q 723 139 732 153 q 702 109 715 126 q 673 72 689 91 q 641 37 656 53 q 613 11 626 21 q 593 0 600 0 l 148 0 q 131 10 143 0 q 101 34 118 20 q 67 67 85 49 q 34 101 49 85 q 10 131 20 118 q 0 148 0 143 l 0 593 q 7 602 0 595 q 25 620 14 609 q 50 644 36 631 q 79 670 64 656 q 157 741 113 701 l 583 741 q 601 730 588 741 q 632 704 614 720 q 669 669 650 688 q 704 632 688 650 q 730 601 720 614 q 741 583 741 588 l 741 472 q 735 461 741 469 q 721 446 729 454 q 706 432 713 438 q 694 426 698 426 l 269 426 q 252 417 262 426 q 234 396 243 408 q 219 371 225 384 q 213 352 213 359 l 213 167 q 218 154 213 163 q 229 136 222 145 q 244 119 236 126 q 259 111 252 111 l 481 111 q 498 118 491 111 q 512 135 505 125 q 524 157 518 145 q 538 180 530 170 q 554 197 545 190 q 574 203 563 203 l 694 203 q 708 199 701 203 q 720 187 715 194 q 728 172 725 180 q 732 157 732 164 m 222 583 q 225 568 222 576 q 234 553 229 560 q 245 542 239 547 q 259 537 252 537 l 472 537 q 486 542 479 537 q 498 553 492 547 q 506 568 503 560 q 509 583 509 576 q 506 598 509 590 q 498 613 503 606 q 486 625 492 620 q 472 629 479 629 l 269 629 q 254 625 262 629 q 239 613 245 620 q 227 598 232 606 q 222 583 222 590 z "},"f":{"ha":961,"x_min":0,"x_max":639,"o":"m 0 46 q 15 79 0 67 q 46 102 29 92 q 78 124 64 112 q 93 157 93 136 l 93 481 q 86 501 93 493 q 69 516 79 509 q 46 529 58 523 q 24 543 35 535 q 7 560 14 550 q 0 583 0 570 q 7 607 0 597 q 26 624 15 616 q 51 637 38 631 q 75 650 64 644 q 94 665 87 657 q 102 685 102 673 l 102 898 q 112 914 102 901 q 139 945 123 927 q 176 985 155 964 q 216 1024 196 1006 q 252 1053 235 1042 q 278 1065 269 1065 l 463 1065 q 499 1052 479 1065 q 537 1020 518 1040 q 575 975 557 1000 q 608 925 593 949 q 630 878 622 900 q 639 842 639 856 q 636 812 639 829 q 627 782 634 796 q 608 759 621 768 q 574 750 595 750 q 539 765 556 750 q 505 801 522 779 q 472 847 488 822 q 439 894 456 873 q 406 930 423 916 q 370 945 389 945 q 355 941 363 945 q 340 933 347 938 q 329 921 334 928 q 324 907 324 914 l 324 685 q 331 665 324 673 q 348 650 338 657 q 370 637 358 644 q 393 624 382 631 q 410 607 403 616 q 416 583 416 597 q 410 560 416 570 q 393 542 403 550 q 370 528 382 534 q 348 513 358 521 q 331 495 338 505 q 324 472 324 486 l 324 157 q 331 134 324 144 q 348 116 338 124 q 370 102 358 109 q 393 87 382 95 q 410 70 403 79 q 416 46 416 60 l 416 37 q 407 27 413 34 q 395 15 401 21 q 380 0 388 8 l 37 0 q 19 20 27 11 q 6 35 12 28 q 0 46 0 43 z "},"g":{"ha":961,"x_min":0,"x_max":732,"o":"m 0 -157 q 11 -131 0 -140 q 37 -117 22 -121 q 71 -112 53 -113 q 102 -111 88 -111 q 146 -119 127 -111 q 179 -138 164 -126 q 208 -162 195 -149 q 237 -186 222 -175 q 271 -205 252 -198 q 315 -213 290 -213 q 393 -190 370 -213 q 416 -111 416 -167 q 414 -82 416 -101 q 406 -45 412 -64 q 389 -14 400 -27 q 361 0 378 0 l 148 0 q 131 10 143 0 q 101 34 118 20 q 67 67 85 49 q 34 101 49 85 q 10 131 20 118 q 0 148 0 143 l 0 593 q 7 602 0 595 q 25 620 14 609 q 50 644 36 631 q 79 670 64 656 q 157 741 113 701 l 370 741 q 393 734 385 741 q 407 717 401 727 q 417 694 412 707 q 427 672 421 682 q 441 655 433 662 q 463 648 450 648 q 491 655 479 648 q 511 672 502 662 q 527 694 519 682 q 542 717 534 707 q 560 734 550 727 q 583 741 570 741 l 694 741 q 712 736 705 741 q 723 724 719 731 q 730 709 728 718 q 732 694 732 701 q 726 671 732 681 q 710 654 720 661 q 690 640 701 646 q 670 627 680 634 q 654 612 661 621 q 648 593 648 604 l 648 -148 q 636 -174 648 -157 q 605 -210 623 -191 q 564 -250 586 -230 q 522 -287 542 -271 q 489 -314 503 -303 q 472 -324 475 -324 l 157 -324 q 139 -314 153 -324 q 109 -287 126 -303 q 72 -251 91 -271 q 37 -213 53 -231 q 11 -179 21 -195 q 0 -157 0 -164 m 241 120 l 259 111 l 370 111 q 385 117 377 111 q 400 132 393 123 q 412 150 407 140 q 416 167 416 160 l 416 602 l 408 621 l 398 629 l 269 629 q 248 623 258 629 q 230 608 238 617 q 218 587 222 598 q 213 565 213 575 l 213 167 q 219 152 216 159 q 225 139 222 146 q 231 130 228 133 l 241 120 z "},"h":{"ha":961,"x_min":0,"x_max":741,"o":"m 0 46 q 15 79 0 67 q 46 102 29 92 q 78 124 64 112 q 93 157 93 136 l 93 907 q 86 927 93 919 q 69 942 79 935 q 46 955 58 949 q 24 968 35 961 q 7 986 14 976 q 0 1009 0 996 q 6 1029 0 1019 q 22 1047 12 1040 q 43 1060 32 1055 q 65 1065 55 1065 l 250 1065 q 270 1059 257 1065 q 294 1044 282 1053 q 315 1026 307 1036 q 324 1009 324 1017 l 324 685 q 330 668 324 675 q 346 656 336 661 q 367 650 355 652 q 389 648 378 648 l 408 648 q 420 674 414 659 q 433 705 426 690 q 449 730 440 720 q 472 741 458 741 l 583 741 q 601 730 588 741 q 632 704 614 720 q 669 669 650 688 q 704 632 688 650 q 730 601 720 614 q 741 583 741 588 l 741 46 q 736 31 741 39 q 724 16 731 23 q 709 5 718 9 q 694 0 701 0 l 574 0 q 555 9 564 0 q 541 29 547 18 q 531 51 534 40 q 528 65 528 62 l 528 593 q 519 606 528 600 q 498 618 510 613 q 473 626 486 623 q 454 629 460 629 q 397 564 422 593 q 375 539 386 551 q 356 517 365 527 q 342 500 348 507 q 334 491 336 493 l 324 472 l 324 56 q 318 39 324 49 q 303 21 312 30 q 285 6 294 12 q 269 0 275 0 l 37 0 q 19 20 27 11 q 6 35 12 28 q 0 46 0 43 z "},"i":{"ha":961,"x_min":222,"x_max":629,"o":"m 222 46 q 235 79 222 67 q 264 100 248 91 q 293 120 280 110 q 306 148 306 131 l 306 583 q 293 612 306 601 q 264 635 280 624 q 235 660 248 646 q 222 694 222 673 q 224 709 222 701 q 230 724 226 718 q 242 736 235 731 q 259 741 249 741 l 472 741 q 494 736 482 741 q 515 723 505 731 q 531 705 525 715 q 537 685 537 695 l 537 157 q 544 137 537 146 q 561 121 551 128 q 583 106 571 113 q 606 92 595 100 q 623 76 616 85 q 629 56 629 67 q 628 39 629 49 q 622 21 626 30 q 610 6 617 12 q 593 0 603 0 l 259 0 q 242 5 249 0 q 230 16 235 9 q 224 31 226 23 q 222 46 222 39 m 315 963 q 320 1010 315 991 q 339 1042 326 1029 q 373 1059 352 1054 q 426 1065 395 1065 q 456 1064 440 1065 q 488 1058 473 1063 q 513 1041 503 1053 q 528 1009 524 1030 l 528 963 q 522 907 528 928 q 505 873 517 885 q 473 856 492 861 q 426 852 454 852 l 370 852 q 338 867 349 855 q 322 894 327 878 q 316 928 317 909 q 315 963 315 946 z "},"j":{"ha":961,"x_min":102,"x_max":741,"o":"m 102 -111 q 102 -84 102 -101 q 107 -50 103 -66 q 121 -21 112 -33 q 148 -9 131 -9 l 269 -9 q 297 -18 288 -9 q 310 -41 307 -27 q 314 -74 314 -56 q 316 -111 315 -92 q 322 -149 317 -130 q 338 -181 326 -167 q 370 -204 349 -195 q 426 -213 391 -213 q 448 -212 433 -213 q 479 -207 463 -212 q 507 -194 495 -203 q 519 -167 519 -184 l 519 593 q 506 616 519 606 q 477 636 493 626 q 448 660 461 647 q 435 694 435 673 q 437 709 435 701 q 443 724 439 718 q 455 736 448 731 q 472 741 462 741 l 694 741 q 709 736 701 741 q 724 724 718 731 q 736 709 731 718 q 741 694 741 701 l 741 -167 q 730 -185 741 -172 q 704 -216 720 -198 q 669 -252 688 -233 q 632 -287 650 -271 q 601 -314 614 -303 q 583 -324 588 -324 l 269 -324 q 237 -312 255 -324 q 200 -281 219 -300 q 164 -239 182 -262 q 133 -191 146 -215 q 110 -146 119 -168 q 102 -111 102 -125 m 528 963 q 533 1010 528 991 q 552 1042 539 1029 q 586 1059 565 1054 q 639 1065 608 1065 q 666 1064 649 1065 q 700 1058 684 1063 q 729 1041 717 1053 q 741 1009 741 1030 l 741 898 q 736 883 741 891 q 724 868 731 875 q 709 857 718 861 q 694 852 701 852 l 583 852 q 551 864 562 852 q 535 893 540 876 q 529 930 530 911 q 528 963 528 949 z "},"k":{"ha":961,"x_min":0,"x_max":741,"o":"m 0 46 q 15 79 0 67 q 46 102 29 92 q 78 124 64 112 q 93 157 93 136 l 93 907 q 86 927 93 919 q 69 942 79 935 q 46 955 58 949 q 24 968 35 961 q 7 986 14 976 q 0 1009 0 996 q 6 1029 0 1019 q 22 1047 12 1040 q 43 1060 32 1055 q 65 1065 55 1065 l 250 1065 q 270 1059 257 1065 q 294 1044 282 1053 q 315 1026 307 1036 q 324 1009 324 1017 l 324 583 q 329 570 324 576 q 340 558 334 563 q 355 550 347 553 q 370 547 363 547 q 410 561 391 547 q 446 597 429 575 q 480 644 464 618 q 514 690 497 669 q 548 726 530 712 q 583 741 565 741 l 694 741 q 712 736 705 741 q 723 724 719 731 q 730 709 728 718 q 732 694 732 701 q 717 656 732 676 q 681 616 703 636 q 634 576 660 596 q 588 538 609 557 q 552 503 566 519 q 537 472 537 486 l 537 370 q 552 334 537 352 q 590 299 567 316 q 639 264 612 281 q 688 229 665 246 q 726 194 711 212 q 741 157 741 176 l 741 46 q 736 31 741 39 q 724 16 731 23 q 709 5 718 9 q 694 0 701 0 l 574 0 q 552 22 563 0 q 529 77 541 44 q 503 148 517 110 q 470 219 489 186 q 427 274 452 252 q 370 296 403 296 q 355 293 363 296 q 340 285 347 290 q 329 273 334 279 q 324 259 324 267 l 324 56 q 318 39 324 49 q 303 21 312 30 q 285 6 294 12 q 269 0 275 0 l 37 0 q 19 20 27 11 q 6 35 12 28 q 0 46 0 43 z "},"l":{"ha":961,"x_min":222,"x_max":629,"o":"m 222 46 q 235 79 222 67 q 264 100 248 91 q 293 120 280 110 q 306 148 306 131 l 306 907 q 300 927 306 919 q 284 942 294 935 q 264 955 275 949 q 244 968 254 961 q 229 986 235 976 q 222 1009 222 996 q 278 1065 222 1065 l 463 1065 q 483 1059 470 1065 q 507 1044 495 1053 q 528 1026 519 1036 q 537 1009 537 1017 l 537 157 q 544 137 537 146 q 561 121 551 128 q 583 106 571 113 q 606 92 595 100 q 623 76 616 85 q 629 56 629 67 q 628 39 629 49 q 622 21 626 30 q 610 6 617 12 q 593 0 603 0 l 259 0 q 242 5 249 0 q 230 16 235 9 q 224 31 226 23 q 222 46 222 39 z "},"m":{"ha":961,"x_min":0,"x_max":852,"o":"m 0 694 q 5 709 0 701 q 16 724 9 718 q 31 736 23 731 q 46 741 39 741 l 259 741 q 283 734 273 741 q 300 717 292 727 q 313 694 307 707 q 326 672 319 682 q 341 655 333 662 q 361 648 349 648 l 481 648 q 502 655 493 648 q 518 672 511 662 q 532 694 526 682 q 547 717 539 707 q 563 734 554 727 q 583 741 572 741 l 694 741 q 712 730 699 741 q 743 703 726 720 q 780 667 761 687 q 815 627 799 646 q 841 590 831 607 q 852 565 852 574 l 852 65 q 848 47 852 58 q 839 25 845 36 q 824 7 833 15 q 806 0 816 0 l 685 0 q 674 6 682 0 q 659 20 667 12 q 645 35 651 28 q 639 46 639 43 l 639 472 q 633 486 639 479 q 618 498 627 492 q 600 506 609 503 q 583 509 590 509 q 568 506 576 509 q 553 498 560 503 q 542 486 547 492 q 537 472 537 479 l 537 46 q 530 35 537 43 q 513 20 522 28 q 494 6 503 12 q 481 0 485 0 l 361 0 q 346 7 354 0 q 331 24 338 15 q 319 43 324 34 q 315 56 315 52 l 315 481 q 309 497 315 492 q 295 506 303 503 q 280 509 288 509 q 269 509 272 509 q 230 497 248 509 q 213 463 213 484 l 213 37 l 167 0 l 37 0 l 0 37 l 0 694 z "},"n":{"ha":961,"x_min":0,"x_max":741,"o":"m 0 694 q 5 706 0 698 q 16 721 9 713 q 31 735 23 729 q 46 741 39 741 l 157 741 q 181 734 172 741 q 199 717 191 727 q 214 694 207 707 q 230 672 221 682 q 250 655 239 662 q 278 648 262 648 q 300 655 292 648 q 314 672 309 662 q 324 694 320 682 q 334 717 328 707 q 348 734 340 727 q 370 741 356 741 l 583 741 q 601 730 588 741 q 632 704 614 720 q 669 669 650 688 q 704 632 688 650 q 730 601 720 614 q 741 583 741 588 l 741 46 q 736 31 741 39 q 724 16 731 23 q 709 5 718 9 q 694 0 701 0 l 574 0 q 555 9 564 0 q 541 29 547 18 q 531 51 534 40 q 528 65 528 62 l 528 593 q 513 603 519 598 q 500 612 507 608 q 491 621 494 617 l 472 629 l 342 629 l 324 611 l 324 56 q 318 39 324 49 q 303 21 312 30 q 285 6 294 12 q 269 0 275 0 l 148 0 q 133 6 141 0 q 118 21 125 12 q 106 39 111 30 q 102 56 102 49 l 102 583 q 86 612 102 601 q 51 635 70 624 q 16 660 32 646 q 0 694 0 673 z "},"o":{"ha":961,"x_min":0,"x_max":741,"o":"m 130 9 q 110 24 123 14 q 83 47 98 35 q 54 75 69 60 q 27 103 39 90 q 8 129 16 117 q 0 148 0 141 l 0 593 q 7 602 0 595 q 25 620 14 609 q 50 644 36 631 q 79 670 64 656 q 157 741 113 701 l 583 741 q 601 730 588 741 q 632 704 614 720 q 669 669 650 688 q 704 632 688 650 q 730 601 720 614 q 741 583 741 588 l 741 157 q 670 79 701 113 q 644 50 656 64 q 620 25 631 36 q 602 7 609 14 q 593 0 595 0 l 148 0 l 130 9 m 519 593 q 499 611 508 603 q 483 624 491 618 q 472 629 475 629 l 269 629 q 248 623 258 629 q 230 608 238 617 q 218 587 222 598 q 213 565 213 575 l 213 167 q 218 154 213 163 q 229 136 222 145 q 244 119 236 126 q 259 111 252 111 l 481 111 l 519 148 l 519 593 z "},"p":{"ha":961,"x_min":0,"x_max":741,"o":"m 0 -269 q 15 -240 0 -252 q 46 -218 29 -228 q 78 -196 64 -208 q 93 -167 93 -184 l 93 583 q 78 612 93 601 q 46 635 64 624 q 15 660 29 646 q 0 694 0 673 q 5 706 0 698 q 16 721 9 713 q 31 735 23 729 q 46 741 39 741 l 157 741 q 181 734 172 741 q 199 717 191 727 q 214 694 207 707 q 230 672 221 682 q 250 655 239 662 q 278 648 262 648 q 300 655 292 648 q 314 672 309 662 q 324 694 320 682 q 334 717 328 707 q 348 734 340 727 q 370 741 356 741 l 583 741 q 601 730 588 741 q 632 704 614 720 q 669 669 650 688 q 704 632 688 650 q 730 601 720 614 q 741 583 741 588 l 741 157 q 732 141 741 153 q 711 115 724 130 q 683 83 699 100 q 653 52 667 66 q 627 26 638 37 q 611 9 616 14 q 598 5 604 9 q 593 0 595 3 l 380 0 q 367 -6 376 0 q 349 -21 358 -12 q 332 -39 339 -30 q 324 -56 324 -49 l 324 -167 q 331 -187 324 -178 q 348 -203 338 -196 q 370 -218 358 -211 q 393 -232 382 -224 q 410 -248 403 -239 q 416 -269 416 -257 q 412 -289 416 -279 q 399 -307 407 -299 q 381 -319 391 -315 q 361 -324 371 -324 l 56 -324 q 35 -319 45 -324 q 17 -307 25 -315 q 5 -289 9 -299 q 0 -269 0 -279 m 324 157 q 329 142 324 151 q 340 127 334 134 q 355 116 347 121 q 370 111 363 111 l 481 111 l 519 148 l 519 593 q 499 611 508 603 q 483 624 491 618 q 472 629 475 629 l 342 629 l 324 611 l 324 157 z "},"q":{"ha":961,"x_min":0,"x_max":732,"o":"m 324 -278 q 331 -247 324 -260 q 348 -222 338 -233 q 370 -201 358 -212 q 393 -179 382 -191 q 410 -151 403 -167 q 416 -111 416 -134 q 414 -82 416 -101 q 406 -45 412 -64 q 389 -14 400 -27 q 361 0 378 0 l 148 0 q 131 10 143 0 q 101 34 118 20 q 67 67 85 49 q 34 101 49 85 q 10 131 20 118 q 0 148 0 143 l 0 593 q 7 602 0 595 q 25 620 14 609 q 50 644 36 631 q 79 670 64 656 q 157 741 113 701 l 370 741 q 393 734 385 741 q 407 717 401 727 q 417 694 412 707 q 427 672 421 682 q 441 655 433 662 q 463 648 450 648 q 491 655 479 648 q 511 672 502 662 q 527 694 519 682 q 542 717 534 707 q 560 734 550 727 q 583 741 570 741 l 694 741 q 712 736 705 741 q 723 724 719 731 q 730 709 728 718 q 732 694 732 701 q 726 671 732 681 q 710 654 720 661 q 690 640 701 646 q 670 627 680 634 q 654 612 661 621 q 648 593 648 604 l 648 -176 q 661 -199 648 -190 q 690 -219 674 -209 q 719 -240 706 -229 q 732 -269 732 -252 q 730 -289 732 -279 q 722 -307 728 -299 q 708 -319 717 -315 q 685 -324 699 -324 l 370 -324 q 355 -319 363 -324 q 340 -308 347 -315 q 329 -293 334 -301 q 324 -278 324 -285 m 241 120 l 259 111 l 370 111 q 385 117 377 111 q 400 132 393 123 q 412 150 407 140 q 416 167 416 160 l 416 602 l 408 621 l 398 629 l 269 629 q 248 623 258 629 q 230 608 238 617 q 218 587 222 598 q 213 565 213 575 l 213 167 q 219 152 216 159 q 225 139 222 146 q 231 130 228 133 l 241 120 z "},"r":{"ha":961,"x_min":0,"x_max":741,"o":"m 0 46 q 15 79 0 67 q 46 102 29 92 q 78 124 64 112 q 93 157 93 136 l 93 583 q 78 612 93 601 q 46 635 64 624 q 15 660 29 646 q 0 694 0 673 q 5 706 0 698 q 16 721 9 713 q 31 735 23 729 q 46 741 39 741 l 157 741 q 178 734 169 741 q 194 717 186 727 q 210 694 202 707 q 225 672 217 682 q 244 655 234 662 q 269 648 254 648 q 289 655 280 648 q 305 672 298 662 q 319 694 313 682 q 334 717 326 707 q 350 734 341 727 q 370 741 359 741 l 583 741 q 601 730 588 741 q 632 704 614 720 q 669 669 650 688 q 704 632 688 650 q 730 601 720 614 q 741 583 741 588 l 741 472 q 736 457 741 465 q 724 442 731 449 q 709 431 718 435 q 694 426 701 426 l 574 426 q 551 438 561 426 q 535 467 541 450 q 526 506 529 485 q 521 545 522 527 q 519 577 519 564 q 519 593 519 590 q 503 613 511 606 q 481 621 495 621 q 464 611 477 621 q 433 586 450 601 q 396 553 415 571 q 361 519 377 536 q 335 490 345 503 q 324 472 324 477 l 324 157 q 331 134 324 144 q 348 116 338 124 q 370 102 358 109 q 393 87 382 95 q 410 70 403 79 q 416 46 416 60 l 416 37 q 407 27 413 34 q 395 15 401 21 q 380 0 388 8 l 37 0 q 19 20 27 11 q 6 35 12 28 q 0 46 0 43 z "},"s":{"ha":961,"x_min":0,"x_max":732,"o":"m 0 157 q 4 169 0 161 q 15 184 9 176 q 27 198 21 192 q 37 203 34 203 l 167 203 q 183 197 176 203 q 197 180 191 190 q 210 157 203 170 q 223 135 216 145 q 239 118 230 125 q 259 111 248 111 l 481 111 q 497 116 492 111 q 506 127 503 121 q 509 142 509 134 q 509 157 509 151 q 501 178 509 164 q 479 208 492 192 q 450 242 467 224 q 419 273 434 259 q 390 297 404 288 q 370 306 377 306 q 332 312 347 311 q 306 313 317 313 q 287 313 295 313 q 272 314 279 313 q 254 320 264 315 q 231 334 245 324 q 216 346 228 335 q 187 374 204 357 q 150 412 170 391 q 109 455 130 433 q 68 498 88 477 q 34 538 49 520 q 9 568 18 555 q 0 583 0 580 q 11 605 0 590 q 37 636 21 619 q 72 672 53 654 q 109 706 91 691 q 139 731 126 721 q 157 741 153 741 l 583 741 q 604 730 590 741 q 634 704 618 720 q 668 669 650 688 q 699 632 685 650 q 723 601 713 614 q 732 583 732 588 q 723 551 732 562 q 700 535 713 540 q 669 529 686 530 q 639 528 653 528 q 595 535 614 528 q 563 554 576 543 q 538 578 549 566 q 517 603 528 591 q 497 622 507 614 q 472 629 486 629 l 269 629 q 254 625 262 629 q 239 613 245 620 q 227 598 232 606 q 222 583 222 590 q 230 560 222 570 q 249 543 238 551 q 273 527 260 535 q 296 509 286 519 q 329 474 317 488 q 349 450 340 460 q 366 435 357 441 q 389 426 374 429 q 428 421 404 422 q 491 416 452 419 q 518 390 498 410 q 566 343 539 370 q 622 287 593 317 q 675 231 651 257 q 716 184 700 204 q 732 157 732 164 q 723 139 732 153 q 702 109 715 126 q 673 72 689 91 q 641 37 656 53 q 613 11 626 21 q 593 0 600 0 l 148 0 q 127 10 141 0 q 97 35 113 20 q 63 68 81 50 q 32 104 46 87 q 9 136 18 121 q 0 157 0 151 z "},"t":{"ha":961,"x_min":0,"x_max":732,"o":"m 0 694 q 7 726 0 717 q 27 737 14 735 q 55 736 39 739 q 89 735 71 734 q 125 741 107 735 q 160 766 144 747 q 191 818 177 785 q 213 907 204 852 q 223 928 213 914 q 247 958 233 942 q 280 992 262 975 q 314 1023 298 1009 q 343 1046 331 1037 q 361 1055 356 1055 q 379 1052 368 1055 q 400 1044 390 1049 q 418 1032 411 1039 q 426 1019 426 1025 l 426 814 q 441 771 426 785 q 478 753 456 758 q 528 748 501 748 q 577 744 554 747 q 614 730 600 741 q 629 694 629 720 q 614 654 629 667 q 577 638 600 642 q 528 633 554 633 q 478 627 501 632 q 441 608 456 622 q 426 565 426 595 l 426 176 q 438 137 426 155 q 472 120 451 120 q 505 133 493 120 q 527 162 517 146 q 547 191 536 178 q 574 203 557 203 l 694 203 q 708 199 701 203 q 720 187 715 194 q 728 172 725 180 q 732 157 732 164 q 723 139 732 153 q 702 109 715 126 q 673 72 689 91 q 641 37 656 53 q 613 11 626 21 q 593 0 600 0 l 361 0 q 343 10 356 0 q 314 34 331 20 q 280 67 298 49 q 247 101 262 85 q 223 131 233 118 q 213 148 213 143 l 213 574 q 197 611 213 600 q 158 626 181 622 q 106 631 134 630 q 55 636 79 631 q 16 654 32 642 q 0 694 0 667 z "},"u":{"ha":961,"x_min":0,"x_max":732,"o":"m 426 130 l 426 694 q 432 706 426 698 q 446 721 438 713 q 461 735 454 729 q 472 741 469 741 l 583 741 q 605 733 593 741 q 626 714 616 725 q 642 690 636 703 q 648 667 648 677 l 648 148 q 661 120 648 131 q 690 100 674 110 q 719 79 706 91 q 732 46 732 67 q 728 31 732 39 q 720 16 725 23 q 708 5 715 9 q 694 0 701 0 l 574 0 q 545 15 557 0 q 521 46 533 29 q 493 78 509 64 q 454 93 478 93 q 436 86 442 93 q 426 69 430 79 q 420 46 422 58 q 413 24 418 35 q 401 7 409 14 q 380 0 394 0 l 148 0 q 131 10 143 0 q 101 34 118 20 q 67 67 85 49 q 34 101 49 85 q 10 131 20 118 q 0 148 0 143 l 0 694 q 5 709 0 701 q 16 724 9 718 q 31 736 23 731 q 46 741 39 741 l 157 741 q 170 735 161 741 q 189 721 179 729 q 205 706 198 713 q 213 694 213 698 l 213 167 q 218 154 213 163 q 229 136 222 145 q 244 119 236 126 q 259 111 252 111 l 398 111 l 426 130 z "},"v":{"ha":961,"x_min":0,"x_max":852,"o":"m 426 213 q 458 222 437 213 q 502 245 478 231 q 550 278 526 260 q 594 313 574 296 q 626 346 614 331 q 639 370 639 361 l 639 694 q 645 706 639 698 q 659 721 651 713 q 674 735 667 729 q 685 741 682 741 l 796 741 q 817 734 806 741 q 834 719 827 728 q 847 698 842 709 q 852 676 852 686 l 852 389 q 837 364 852 383 q 797 316 821 345 q 740 253 772 288 q 673 184 707 219 q 607 116 640 149 q 547 57 574 83 q 503 16 520 31 q 481 0 485 0 l 361 0 q 343 15 359 0 q 301 55 326 31 q 243 112 275 80 q 177 177 210 144 q 112 243 144 210 q 55 301 80 275 q 15 343 31 326 q 0 361 0 359 l 0 694 q 5 709 0 701 q 16 724 9 718 q 31 736 23 731 q 46 741 39 741 l 157 741 q 170 735 161 741 q 189 721 179 729 q 205 706 198 713 q 213 694 213 698 l 213 389 q 224 353 213 372 q 254 314 235 334 q 295 277 272 295 q 342 244 318 258 q 388 221 366 230 q 426 213 410 213 z "},"w":{"ha":961,"x_min":0,"x_max":852,"o":"m 259 222 q 296 237 285 222 q 310 273 307 251 q 314 319 314 294 q 316 366 313 345 q 328 402 319 388 q 361 416 338 416 l 491 416 q 500 411 494 416 q 513 397 507 405 q 523 381 519 389 q 528 370 528 374 q 529 348 528 363 q 532 315 530 332 q 536 282 534 298 q 537 259 537 267 q 557 234 545 245 q 583 222 570 222 q 596 227 587 222 q 614 239 605 232 q 631 254 624 245 q 639 269 639 262 l 639 694 q 645 706 639 698 q 659 721 651 713 q 674 735 667 729 q 685 741 682 741 l 796 741 q 817 734 806 741 q 834 719 827 728 q 847 698 842 709 q 852 676 852 686 l 852 167 q 842 145 852 160 q 817 111 832 130 q 784 73 802 93 q 748 37 765 54 q 716 11 730 21 q 694 0 701 0 l 574 0 q 545 15 557 0 q 524 46 534 29 q 505 78 515 64 q 481 93 496 93 l 370 93 q 341 78 353 93 q 319 46 330 64 q 298 15 309 29 q 269 0 286 0 l 148 0 q 131 10 143 0 q 101 34 118 20 q 67 67 85 49 q 34 101 49 85 q 10 131 20 118 q 0 148 0 143 l 0 694 q 5 709 0 701 q 16 724 9 718 q 31 736 23 731 q 46 741 39 741 l 157 741 q 170 735 161 741 q 189 721 179 729 q 205 706 198 713 q 213 694 213 698 l 213 278 q 218 261 213 271 q 229 243 222 252 q 244 229 236 235 q 259 222 252 222 z "},"x":{"ha":961,"x_min":0,"x_max":842,"o":"m 0 46 q 22 93 0 67 q 77 149 44 119 q 148 208 110 178 q 219 268 186 239 q 274 323 252 297 q 296 370 296 349 q 274 414 296 389 q 219 469 252 439 q 148 529 186 498 q 77 590 110 560 q 22 647 44 620 q 0 694 0 673 q 5 706 0 698 q 16 721 9 713 q 31 735 23 729 q 46 741 39 741 l 157 741 q 194 726 176 741 q 229 688 212 711 q 264 639 246 665 q 299 590 281 612 q 334 552 316 567 q 370 537 352 537 l 472 537 q 501 552 484 537 q 538 590 518 567 q 579 639 557 612 q 620 688 600 665 q 656 726 640 711 q 685 741 673 741 l 796 741 q 811 736 803 741 q 826 723 819 731 q 838 705 833 715 q 842 685 842 695 q 830 656 842 673 q 796 619 817 639 q 749 576 775 599 q 694 531 722 554 q 640 485 667 508 q 593 441 614 463 q 559 402 572 420 q 547 370 547 384 q 559 338 547 357 q 593 299 572 320 q 640 255 614 278 q 694 210 667 233 q 749 164 722 186 q 796 122 775 142 q 830 85 817 102 q 842 56 842 68 q 841 39 842 49 q 834 21 839 30 q 823 6 830 12 q 806 0 816 0 l 685 0 q 649 15 667 0 q 612 53 631 30 q 573 102 593 75 q 530 151 553 128 q 482 189 508 174 q 426 203 456 203 q 369 189 396 203 q 318 151 342 174 q 272 102 294 128 q 232 53 251 75 q 197 15 213 30 q 167 0 181 0 l 37 0 q 19 20 27 11 q 6 35 12 28 q 0 46 0 43 z "},"y":{"ha":961,"x_min":0,"x_max":741,"o":"m 0 -269 q 6 -256 0 -265 q 20 -237 12 -247 q 35 -220 28 -228 q 46 -213 43 -213 l 361 -213 q 378 -202 366 -213 q 408 -176 391 -192 q 442 -141 425 -160 q 475 -104 460 -122 q 499 -74 490 -87 q 509 -56 509 -60 q 506 -39 509 -49 q 496 -21 503 -30 q 482 -6 490 -12 q 463 0 473 0 l 148 0 q 131 10 143 0 q 101 34 118 20 q 67 67 85 49 q 34 101 49 85 q 10 131 20 118 q 0 148 0 143 l 0 694 q 5 709 0 701 q 16 724 9 718 q 31 736 23 731 q 46 741 39 741 l 157 741 q 170 735 161 741 q 189 721 179 729 q 205 706 198 713 q 213 694 213 698 l 213 167 q 218 154 213 163 q 229 136 222 145 q 244 119 236 126 q 259 111 252 111 l 481 111 l 528 148 l 528 676 q 534 694 528 683 q 549 715 540 705 q 567 733 557 726 q 583 741 576 741 l 694 741 q 709 736 701 741 q 724 724 718 731 q 736 709 731 718 q 741 694 741 701 l 741 -56 q 729 -72 741 -59 q 700 -105 718 -85 q 658 -149 682 -125 q 610 -197 635 -172 q 561 -244 585 -221 q 518 -285 537 -267 q 486 -313 498 -302 q 472 -324 474 -324 l 56 -324 q 35 -319 45 -324 q 17 -307 25 -315 q 5 -289 9 -299 q 0 -269 0 -279 z "},"z":{"ha":961,"x_min":0,"x_max":741,"o":"m 0 167 q 18 191 0 172 q 64 236 35 209 q 129 296 92 262 q 204 363 165 329 q 279 432 242 398 q 344 495 315 466 q 390 545 372 524 q 408 574 408 566 q 398 606 408 595 q 375 622 389 617 q 345 628 361 627 q 315 629 329 629 q 272 622 290 629 q 239 603 254 614 q 213 578 225 591 q 186 554 201 566 q 155 535 172 543 q 111 528 137 528 q 82 528 101 528 q 45 533 64 529 q 14 547 27 538 q 0 574 0 557 l 0 694 q 5 709 0 701 q 16 724 9 718 q 31 736 23 731 q 46 741 39 741 l 694 741 q 712 736 705 741 q 723 724 719 731 q 730 709 728 718 q 732 694 732 701 q 710 650 732 679 q 652 584 688 621 q 571 505 616 547 q 477 419 525 463 q 384 334 429 376 q 302 257 338 292 q 244 196 267 222 q 222 157 222 170 q 225 142 222 151 q 234 127 229 134 q 245 116 239 121 q 259 111 252 111 l 481 111 q 498 118 491 111 q 512 135 505 125 q 524 157 518 145 q 538 180 530 170 q 554 197 545 190 q 574 203 563 203 l 694 203 q 709 199 701 203 q 724 187 718 194 q 736 172 731 180 q 741 157 741 164 l 741 46 q 736 31 741 39 q 724 16 731 23 q 709 5 718 9 q 694 0 701 0 l 37 0 l 0 37 l 0 167 z "},"{":{"ha":961,"x_min":111,"x_max":732,"o":"m 111 583 q 126 621 111 609 q 164 636 141 632 q 213 641 186 641 q 262 644 239 642 q 300 655 285 647 q 315 685 315 664 l 315 898 q 326 920 315 905 q 354 954 337 935 q 392 991 372 972 q 433 1027 413 1011 q 468 1054 452 1044 q 491 1065 484 1065 l 676 1065 q 696 1060 686 1065 q 714 1047 707 1055 q 727 1029 722 1040 q 732 1009 732 1019 q 712 972 732 985 q 667 953 693 959 q 614 946 641 947 q 574 945 588 945 l 547 917 l 537 898 l 537 694 q 530 671 537 681 q 511 653 522 661 q 486 639 499 646 q 462 624 473 632 q 443 607 450 616 q 435 583 435 597 q 443 560 435 570 q 462 542 450 550 q 486 528 473 534 q 511 513 499 521 q 530 495 522 505 q 537 472 537 486 l 537 157 q 552 125 537 134 q 588 112 566 115 q 634 109 609 109 q 681 104 660 109 q 717 86 703 99 q 732 46 732 74 q 728 31 732 39 q 720 16 725 23 q 708 5 715 9 q 694 0 701 0 l 472 0 q 451 11 465 0 q 419 37 436 21 q 383 73 401 54 q 349 111 364 93 q 325 145 334 130 q 315 167 315 160 l 315 481 q 300 511 315 503 q 262 522 285 519 q 213 525 239 525 q 164 530 186 526 q 126 546 141 534 q 111 583 111 557 z "},"|":{"ha":961,"x_min":315,"x_max":528,"o":"m 370 528 l 426 528 q 453 527 436 528 q 487 520 471 526 q 516 504 504 515 q 528 472 528 493 l 528 46 q 523 31 528 39 q 511 16 518 23 q 496 5 505 9 q 481 0 488 0 l 361 0 q 346 7 354 0 q 331 24 338 15 q 319 43 324 34 q 315 56 315 52 l 315 463 q 319 484 315 473 q 332 503 324 494 q 350 518 340 511 q 370 528 360 524 m 426 1065 q 453 1064 436 1065 q 487 1058 471 1063 q 516 1041 504 1053 q 528 1009 528 1030 l 528 694 q 523 678 528 688 q 511 660 518 669 q 496 645 505 651 q 481 639 488 639 l 370 639 q 350 644 360 639 q 332 656 340 648 q 319 674 324 664 q 315 694 315 684 l 315 1000 q 326 1034 315 1021 q 353 1053 336 1046 q 389 1062 370 1060 q 426 1065 409 1065 z "},"}":{"ha":961,"x_min":111,"x_max":732,"o":"m 111 46 q 131 87 111 74 q 176 106 150 101 q 228 112 202 112 q 269 111 254 111 l 315 148 l 315 463 q 329 497 315 484 q 361 522 344 511 q 393 545 378 533 q 408 574 408 557 q 401 602 408 591 q 384 622 394 613 q 361 638 373 631 q 339 653 349 645 q 321 671 328 661 q 315 694 315 680 l 315 907 q 300 937 315 928 q 262 948 285 945 q 213 951 239 951 q 164 956 186 951 q 126 972 141 960 q 111 1009 111 984 q 116 1029 111 1019 q 129 1047 121 1040 q 146 1060 136 1055 q 167 1065 157 1065 l 361 1065 q 387 1055 370 1065 q 423 1030 404 1045 q 463 996 443 1015 q 500 958 484 977 q 527 923 516 939 q 537 898 537 907 l 537 694 q 542 688 540 692 q 547 676 547 682 l 574 648 q 614 647 588 648 q 667 640 641 646 q 712 621 693 634 q 732 583 732 608 q 723 553 732 565 q 699 533 713 541 q 667 523 685 526 q 631 519 649 520 q 598 518 614 518 q 574 519 583 519 l 547 491 l 537 472 l 537 157 q 530 143 537 153 q 510 122 522 134 q 484 97 498 111 q 456 72 469 84 q 432 51 443 60 q 416 37 421 42 q 407 27 413 34 q 395 15 401 21 q 380 0 388 8 l 148 0 q 131 5 138 0 q 119 16 123 9 q 113 31 115 23 q 111 46 111 39 z "},"~":{"ha":961,"x_min":0,"x_max":732,"o":"m 0 907 q 11 929 0 914 q 37 961 21 943 q 73 997 54 978 q 111 1030 93 1015 q 145 1055 130 1045 q 167 1065 160 1065 l 361 1065 q 385 1058 375 1065 q 404 1041 395 1051 q 421 1019 413 1031 q 438 996 429 1006 q 457 979 447 986 q 481 972 468 972 q 507 979 496 972 q 529 996 518 986 q 550 1019 539 1006 q 573 1041 560 1031 q 602 1058 586 1051 q 639 1065 618 1065 q 669 1064 653 1065 q 700 1058 686 1063 q 723 1041 713 1053 q 732 1009 732 1030 q 723 991 732 1004 q 699 960 713 978 q 668 924 685 943 q 634 889 650 905 q 604 862 618 873 q 583 852 590 852 l 370 852 q 341 866 353 852 q 319 898 330 881 q 298 930 309 916 q 269 945 286 945 q 234 930 248 945 q 209 898 220 916 q 186 866 198 881 q 157 852 175 852 l 46 852 q 31 858 39 852 q 16 873 23 864 q 5 891 9 882 q 0 907 0 901 z "},"":{"ha":961,"x_min":0,"x_max":0,"o":""},"":{"ha":961,"x_min":213,"x_max":642,"o":"m 370 741 l 426 741 q 455 740 436 741 q 492 733 473 739 q 524 717 510 728 q 537 685 537 706 l 537 481 q 550 450 537 465 q 581 420 564 435 q 615 389 598 406 q 639 352 632 373 l 639 269 q 640 244 639 262 q 642 207 642 227 q 639 168 642 187 q 629 139 637 149 q 617 119 627 132 q 593 91 608 106 q 563 59 579 75 q 530 30 546 43 q 502 8 515 17 q 481 0 488 0 l 361 0 q 340 9 354 0 q 310 32 327 18 q 277 63 294 46 q 245 97 260 81 q 222 127 231 113 q 213 148 213 141 l 213 380 q 225 396 213 387 q 251 417 237 406 q 279 437 266 427 q 296 454 293 447 q 299 460 296 457 q 306 467 302 464 q 315 472 309 469 l 315 676 q 321 696 315 686 q 336 715 327 707 q 354 731 345 724 q 370 741 363 737 m 315 963 q 320 1010 315 991 q 339 1042 326 1029 q 373 1059 352 1054 q 426 1065 395 1065 q 456 1064 440 1065 q 488 1058 473 1063 q 513 1041 503 1053 q 528 1009 524 1030 l 528 963 q 522 907 528 928 q 505 873 517 885 q 473 856 492 861 q 426 852 454 852 l 370 852 q 338 867 349 855 q 322 894 327 878 q 316 928 317 909 q 315 963 315 946 z "},"":{"ha":961,"x_min":0,"x_max":842,"o":"m 842 796 q 832 768 842 779 q 806 751 821 758 q 772 743 790 745 q 741 741 755 741 q 700 748 718 741 q 669 767 683 755 q 645 791 655 779 q 624 816 634 804 q 605 835 614 827 q 583 842 595 842 l 269 842 q 248 836 258 842 q 230 821 238 830 q 218 800 222 811 q 213 778 213 788 l 213 389 q 216 371 213 382 q 226 350 220 360 q 240 332 232 339 q 259 324 249 324 l 583 324 q 604 331 595 324 q 620 348 612 338 q 633 370 627 358 q 646 393 640 382 q 660 410 652 403 q 676 416 667 416 l 806 416 q 823 410 816 416 q 834 396 830 404 q 841 378 839 387 q 842 361 842 368 q 833 343 842 356 q 810 314 824 331 q 779 280 796 298 q 745 247 762 262 q 715 223 729 233 q 694 213 701 213 q 640 211 665 213 q 597 205 618 209 q 565 195 576 202 q 542 167 549 185 q 533 127 535 149 q 530 83 530 106 q 526 42 530 60 q 512 12 522 24 q 481 0 503 0 l 361 0 q 330 12 340 0 q 315 42 319 24 q 309 83 311 60 q 306 127 308 106 q 298 167 304 149 q 278 195 292 185 q 246 205 268 202 q 203 211 224 209 q 148 213 177 213 q 127 222 141 213 q 97 245 113 231 q 63 277 81 260 q 32 310 46 294 q 9 340 18 327 q 0 361 0 354 l 0 806 q 12 828 0 817 q 37 848 23 839 q 74 870 53 859 q 84 883 77 873 q 97 903 90 892 q 111 922 104 913 q 120 935 117 932 q 146 951 132 947 q 176 958 161 956 q 209 960 192 960 q 241 962 225 960 q 271 971 256 964 q 296 991 285 977 q 303 1014 301 998 q 307 1049 305 1029 q 311 1089 309 1068 q 319 1127 314 1110 q 335 1155 325 1144 q 361 1166 345 1166 l 481 1166 q 515 1152 505 1166 q 529 1116 525 1138 q 533 1068 532 1094 q 536 1020 533 1042 q 550 982 540 998 q 583 963 560 966 q 661 954 634 956 q 700 949 688 951 q 716 943 713 947 q 726 931 720 940 q 744 905 732 922 q 787 861 757 889 q 804 848 794 854 q 822 836 813 842 q 836 820 830 829 q 842 796 842 810 z "},"":{"ha":961,"x_min":0,"x_max":732,"o":"m 0 167 q 15 190 0 180 q 46 210 29 200 q 78 231 64 219 q 93 259 93 242 l 93 583 q 78 612 93 601 q 46 635 64 624 q 15 660 29 646 q 0 694 0 673 q 7 715 0 706 q 26 731 15 724 q 51 745 38 739 q 75 760 64 752 q 94 776 87 767 q 102 796 102 785 l 102 1000 q 112 1022 102 1007 q 136 1056 121 1038 q 170 1094 151 1074 q 206 1129 189 1114 q 238 1156 223 1145 q 259 1166 252 1166 l 481 1166 q 509 1155 493 1166 q 543 1124 526 1143 q 577 1082 560 1105 q 608 1036 595 1059 q 630 994 622 1014 q 639 963 639 975 q 638 928 639 946 q 632 895 637 909 q 615 871 627 880 q 583 861 604 861 q 544 875 562 861 q 510 909 526 888 q 477 954 493 930 q 444 999 460 978 q 409 1033 427 1019 q 370 1046 391 1046 q 355 1043 363 1046 q 340 1035 347 1040 q 329 1023 334 1029 q 324 1009 324 1017 l 324 796 q 331 776 324 785 q 348 759 338 767 q 370 744 358 751 q 393 728 382 736 q 410 709 403 720 q 416 685 416 699 q 410 665 416 673 q 393 648 403 656 q 370 634 382 641 q 348 620 358 627 q 331 604 338 612 q 324 583 324 595 l 324 157 q 329 142 324 151 q 340 127 334 134 q 355 116 347 121 q 370 111 363 111 l 481 111 q 498 118 491 111 q 512 135 505 125 q 524 157 518 145 q 538 180 530 170 q 554 197 545 190 q 574 203 563 203 l 694 203 q 708 199 701 203 q 720 187 715 194 q 728 172 725 180 q 732 157 732 164 q 723 139 732 153 q 702 109 715 126 q 673 72 689 91 q 641 37 656 53 q 613 11 626 21 q 593 0 600 0 l 37 0 l 0 37 l 0 167 z "},"":{"ha":961,"x_min":0,"x_max":741,"o":"m 0 46 q 13 79 0 67 q 42 102 26 92 q 71 124 58 112 q 83 157 83 136 q 71 186 83 175 q 42 208 58 198 q 13 230 26 218 q 0 259 0 242 l 0 593 q 13 620 0 610 q 42 639 26 630 q 71 658 58 648 q 83 685 83 668 q 77 712 83 701 q 62 730 71 723 q 42 744 52 738 q 22 757 31 750 q 6 773 12 764 q 0 796 0 782 q 11 828 0 817 q 37 845 22 840 q 71 851 53 850 q 102 852 88 852 q 149 844 130 852 q 182 825 168 837 q 206 801 196 814 q 225 777 216 788 q 244 758 235 765 q 269 750 254 750 l 472 750 q 497 758 486 750 q 517 777 507 765 q 538 801 528 788 q 563 825 549 814 q 595 844 576 837 q 639 852 613 852 q 669 851 653 852 q 700 845 686 850 q 723 828 713 840 q 732 796 732 817 q 726 773 732 783 q 710 755 720 763 q 690 742 701 748 q 670 729 680 736 q 654 714 661 722 q 648 694 648 706 q 655 670 648 681 q 672 651 662 660 q 694 635 682 643 q 717 620 707 628 q 734 604 727 612 q 741 583 741 595 l 741 259 q 734 239 741 248 q 717 222 727 230 q 694 208 707 215 q 672 194 682 201 q 655 178 662 186 q 648 157 648 169 q 661 124 648 136 q 690 102 674 112 q 719 79 706 92 q 732 46 732 67 q 728 31 732 39 q 720 16 725 23 q 708 5 715 9 q 694 0 701 0 l 574 0 q 545 15 557 0 q 524 46 534 29 q 505 78 515 64 q 481 93 496 93 l 259 93 q 231 78 242 93 q 210 46 219 64 q 190 15 200 29 q 167 0 180 0 l 37 0 q 19 20 27 11 q 6 35 12 28 q 0 46 0 43 m 250 222 l 278 213 l 463 213 q 479 218 470 213 q 498 229 489 222 q 513 244 507 236 q 519 259 519 252 l 519 593 q 499 611 508 603 q 483 624 491 618 q 472 629 475 629 l 269 629 q 248 623 258 629 q 230 608 238 617 q 218 587 222 598 q 213 565 213 575 l 213 278 q 216 263 213 271 q 224 247 219 254 q 237 232 230 239 q 250 222 243 226 z "},"":{"ha":961,"x_min":0,"x_max":842,"o":"m 269 315 l 56 315 q 35 319 45 315 q 17 332 25 324 q 5 350 9 340 q 0 370 0 360 l 9 389 q 18 398 13 392 q 26 411 22 405 q 37 426 32 418 l 241 426 q 283 438 269 426 q 296 472 296 451 q 295 489 296 479 q 289 507 293 498 q 280 522 286 515 q 269 528 275 528 l 65 528 q 43 532 55 528 q 22 545 32 537 q 6 563 12 553 q 0 583 0 573 q 6 605 0 593 q 22 626 12 616 q 43 642 32 636 q 65 648 55 648 l 269 648 q 284 653 279 648 q 293 665 290 658 q 296 680 296 671 q 296 694 296 688 q 274 736 296 711 q 219 792 252 762 q 148 855 186 823 q 77 917 110 888 q 22 971 44 947 q 0 1009 0 995 q 12 1041 0 1030 q 42 1058 24 1053 q 78 1064 59 1063 q 111 1065 97 1065 q 165 1050 139 1065 q 215 1012 191 1035 q 260 963 239 989 q 300 914 282 937 q 334 876 319 891 q 361 861 349 861 l 481 861 q 518 876 500 861 q 555 914 536 891 q 595 963 574 937 q 640 1012 616 989 q 690 1050 663 1035 q 750 1065 718 1065 q 776 1064 760 1065 q 807 1059 792 1063 q 832 1045 821 1055 q 842 1019 842 1036 q 820 967 842 996 q 766 909 798 939 q 694 849 733 880 q 623 791 656 819 q 569 738 591 762 q 547 694 547 713 q 548 680 547 688 q 553 665 550 671 q 562 653 557 658 q 574 648 568 648 l 778 648 q 803 642 791 648 q 824 625 815 635 q 838 601 833 614 q 842 574 842 588 q 836 559 842 568 q 822 544 830 551 q 804 532 813 537 q 787 528 794 528 l 574 528 q 558 522 564 528 q 550 508 553 516 q 547 493 547 500 q 547 481 547 485 q 602 426 547 426 l 806 426 q 819 418 812 426 q 831 400 826 411 q 839 379 836 390 q 842 361 842 368 q 836 346 842 354 q 822 331 830 338 q 804 319 813 324 q 787 315 794 315 l 574 315 q 564 300 569 307 q 555 288 559 294 q 547 278 550 281 q 542 265 547 271 q 537 259 540 262 l 537 46 q 530 35 537 43 q 513 20 522 28 q 494 6 503 12 q 481 0 485 0 l 361 0 q 346 7 354 0 q 331 24 338 15 q 319 43 324 34 q 315 56 315 52 l 315 269 l 269 315 z "},"":{"ha":961,"x_min":315,"x_max":528,"o":"m 370 528 l 426 528 q 453 527 436 528 q 487 520 471 526 q 516 504 504 515 q 528 472 528 493 l 528 46 q 523 31 528 39 q 511 16 518 23 q 496 5 505 9 q 481 0 488 0 l 361 0 q 346 7 354 0 q 331 24 338 15 q 319 43 324 34 q 315 56 315 52 l 315 463 q 319 484 315 473 q 332 503 324 494 q 350 518 340 511 q 370 528 360 524 m 426 1065 q 453 1064 436 1065 q 487 1058 471 1063 q 516 1041 504 1053 q 528 1009 528 1030 l 528 694 q 523 678 528 688 q 511 660 518 669 q 496 645 505 651 q 481 639 488 639 l 370 639 q 350 644 360 639 q 332 656 340 648 q 319 674 324 664 q 315 694 315 684 l 315 1000 q 326 1034 315 1021 q 353 1053 336 1046 q 389 1062 370 1060 q 426 1065 409 1065 z "},"":{"ha":961,"x_min":0,"x_max":741,"o":"m 0 46 q 11 78 0 67 q 37 95 22 90 q 71 101 53 100 q 102 102 88 102 q 149 94 130 102 q 182 75 168 87 q 207 51 197 64 q 228 26 218 38 q 250 7 239 15 q 278 0 262 0 l 463 0 q 497 13 484 0 q 509 46 509 25 q 500 67 509 53 q 477 97 491 81 q 445 132 463 114 q 412 165 428 150 q 381 191 395 180 q 361 203 368 201 q 342 204 357 203 q 308 206 327 204 q 270 212 289 208 q 241 222 251 216 q 213 247 234 227 q 166 293 193 267 q 110 351 139 320 q 56 407 81 381 q 16 452 32 433 q 0 472 0 470 l 0 593 q 15 619 0 604 q 51 651 29 634 q 97 687 72 669 q 144 725 123 706 q 180 762 165 744 q 195 796 195 780 q 180 835 195 817 q 144 870 165 853 q 97 903 123 886 q 51 936 72 919 q 15 970 29 952 q 0 1009 0 988 q 9 1030 0 1016 q 32 1062 18 1045 q 63 1098 46 1080 q 97 1132 81 1117 q 127 1157 113 1147 q 148 1166 141 1166 l 583 1166 q 604 1156 590 1166 q 634 1130 618 1146 q 668 1095 650 1114 q 699 1058 685 1076 q 723 1027 713 1041 q 732 1009 732 1014 q 722 977 732 988 q 698 961 713 966 q 665 955 684 956 q 629 954 647 954 q 572 969 595 954 q 534 1004 550 985 q 504 1039 517 1023 q 472 1055 490 1055 l 259 1055 q 245 1051 252 1055 q 234 1039 239 1046 q 225 1024 229 1032 q 222 1009 222 1017 q 231 993 222 1004 q 254 967 240 981 q 284 935 268 952 q 317 904 301 918 q 344 878 332 889 q 361 861 356 866 q 382 860 368 861 q 412 857 396 859 q 442 853 428 854 q 463 852 456 852 q 480 841 467 852 q 514 812 494 830 q 559 772 534 795 q 609 724 584 749 q 658 676 634 700 q 700 633 682 652 q 729 600 718 613 q 741 583 741 587 l 741 472 q 726 436 741 454 q 690 403 712 419 q 644 370 669 387 q 597 338 618 354 q 561 304 575 321 q 547 269 547 287 q 560 229 547 248 q 594 192 574 210 q 639 157 615 174 q 684 122 663 140 q 718 86 705 104 q 732 46 732 67 q 723 25 732 39 q 699 -7 713 10 q 667 -43 685 -24 q 631 -77 649 -62 q 598 -101 614 -92 q 574 -111 583 -111 l 157 -111 q 139 -101 153 -111 q 109 -74 126 -90 q 72 -39 91 -58 q 37 -3 53 -20 q 11 28 21 15 q 0 46 0 41 m 213 528 q 221 494 213 514 q 241 453 229 474 q 271 410 254 431 q 305 372 288 389 q 339 344 322 355 q 370 334 356 334 q 391 342 377 334 q 421 363 405 351 q 455 392 437 376 q 486 424 472 408 q 510 452 500 439 q 519 472 519 465 l 519 593 q 508 603 513 598 q 499 612 504 608 q 491 621 494 617 q 465 646 481 627 q 431 683 448 664 q 397 717 413 702 q 370 732 380 732 q 339 720 357 732 q 305 689 322 708 q 271 647 288 671 q 241 601 254 624 q 221 559 229 578 q 213 528 213 539 z "},"":{"ha":961,"x_min":0,"x_max":732,"o":"m 0 1120 q 5 1132 0 1124 q 16 1147 9 1139 q 31 1161 23 1155 q 46 1166 39 1166 l 157 1166 q 172 1161 164 1166 q 187 1147 180 1155 q 199 1132 194 1139 q 203 1120 203 1124 q 199 1104 203 1114 q 187 1086 194 1095 q 172 1071 180 1077 q 157 1065 164 1065 l 46 1065 q 31 1071 39 1065 q 16 1086 23 1077 q 5 1104 9 1095 q 0 1120 0 1114 m 537 1111 q 539 1128 537 1118 q 546 1146 541 1137 q 557 1160 550 1154 q 574 1166 564 1166 l 694 1166 q 712 1162 705 1166 q 723 1150 719 1157 q 730 1135 728 1143 q 732 1120 732 1127 q 723 1088 732 1099 q 700 1072 713 1077 q 669 1066 686 1067 q 639 1065 653 1065 l 583 1065 q 568 1073 576 1068 q 553 1084 560 1078 q 542 1097 547 1090 q 537 1111 537 1104 z "},"":{"ha":961,"x_min":0,"x_max":741,"o":"m 130 9 q 103 33 111 24 q 93 48 96 41 q 89 60 90 55 q 83 73 88 66 q 65 89 78 79 q 28 111 53 98 q 20 116 24 111 q 11 126 15 120 q 3 138 6 132 q 0 148 0 144 l 0 907 q 52 961 28 936 q 72 982 62 971 q 90 1001 82 992 q 104 1018 98 1010 q 111 1028 109 1025 q 121 1042 115 1035 q 135 1054 127 1048 q 152 1062 143 1059 q 167 1065 160 1065 l 574 1065 l 741 907 l 741 157 q 726 129 741 143 q 692 101 711 115 q 655 71 673 86 q 629 37 637 55 q 623 27 626 34 q 615 15 619 21 q 605 4 610 9 q 593 0 600 0 l 148 0 l 130 9 m 611 111 l 629 130 l 629 945 l 111 945 l 111 111 l 611 111 m 426 852 q 456 851 440 852 q 487 845 473 850 q 510 828 500 840 q 519 796 519 817 q 507 762 519 775 q 477 742 495 749 q 436 733 458 735 q 394 730 414 730 q 357 731 373 730 q 334 732 340 732 l 324 722 l 324 342 l 342 324 l 472 324 q 495 318 486 324 q 509 302 504 312 q 517 281 515 292 q 519 259 519 269 q 515 244 519 252 q 507 229 512 236 q 495 218 502 222 q 481 213 488 213 l 361 213 q 334 226 344 213 q 315 257 323 239 q 296 291 306 274 q 269 315 286 308 q 256 322 265 318 q 237 331 247 326 q 220 343 228 336 q 213 361 213 351 l 213 694 q 225 724 213 715 q 252 738 237 733 q 283 746 268 742 q 306 760 299 749 q 328 801 319 784 q 348 830 337 819 q 377 846 359 841 q 426 852 395 852 z "},"":{"ha":961,"x_min":102,"x_max":732,"o":"m 111 583 q 130 625 111 612 q 176 639 148 639 l 667 639 q 713 625 695 639 q 732 583 732 612 q 727 563 732 573 q 714 545 722 553 q 696 532 707 537 q 676 528 686 528 l 167 528 q 146 532 157 528 q 129 545 136 537 q 116 563 121 553 q 111 583 111 573 m 102 954 q 110 985 102 965 q 130 1029 117 1006 q 160 1078 143 1053 q 194 1122 176 1102 q 228 1154 211 1141 q 259 1166 245 1166 l 583 1166 q 601 1159 590 1166 q 623 1141 612 1152 q 641 1120 633 1131 q 648 1102 648 1109 l 648 898 q 661 870 648 881 q 690 850 674 860 q 719 829 706 841 q 732 796 732 817 q 727 776 732 786 q 714 758 722 766 q 696 745 707 750 q 676 741 686 741 l 278 741 q 242 752 262 741 q 203 783 223 764 q 165 826 184 802 q 133 873 147 850 q 110 919 119 897 q 102 954 102 940 m 370 1046 q 355 1043 363 1046 q 340 1035 347 1040 q 329 1023 334 1029 q 324 1009 324 1017 l 324 907 q 329 892 324 901 q 340 878 334 884 q 355 866 347 871 q 370 861 363 861 q 397 872 388 861 q 411 897 406 882 q 416 927 415 911 q 416 954 416 943 q 416 984 416 968 q 411 1014 415 1000 q 397 1037 406 1028 q 370 1046 388 1046 z "},"":{"ha":961,"x_min":0,"x_max":732,"o":"m 0 481 q 11 495 0 484 q 39 526 22 507 q 80 568 57 545 q 126 614 102 591 q 173 661 150 638 q 215 701 197 684 q 245 730 233 719 q 259 741 258 741 l 370 741 q 393 734 385 741 q 407 717 401 727 q 417 694 412 707 q 427 672 421 682 q 441 655 433 662 q 463 648 450 648 q 491 655 479 648 q 511 672 502 662 q 527 694 519 682 q 542 717 534 707 q 560 734 550 727 q 583 741 570 741 l 694 741 q 712 736 705 741 q 723 724 719 731 q 730 709 728 718 q 732 694 732 701 q 718 655 732 673 q 684 618 705 636 q 639 584 663 601 q 594 551 615 568 q 560 517 574 534 q 547 481 547 500 q 560 439 547 458 q 594 403 574 420 q 639 370 615 386 q 684 337 663 355 q 718 301 705 320 q 732 259 732 282 q 728 244 732 252 q 720 229 725 236 q 708 218 715 222 q 694 213 701 213 l 574 213 q 551 220 561 213 q 535 237 542 227 q 522 259 528 248 q 508 282 516 271 q 490 299 500 292 q 463 306 479 306 q 442 299 450 306 q 429 282 434 292 q 421 259 425 271 q 414 237 418 248 q 401 220 409 227 q 380 213 394 213 l 259 213 q 245 224 258 213 q 215 252 233 235 q 173 293 197 270 q 126 340 150 316 q 80 389 102 365 q 39 432 57 412 q 11 465 22 452 q 0 481 0 478 m 324 389 q 342 342 324 361 q 389 324 361 324 q 406 330 396 324 q 416 342 416 336 q 397 397 416 377 q 342 416 377 416 q 330 406 336 416 q 324 389 324 396 m 222 472 q 227 455 222 462 q 239 443 232 448 q 254 437 245 439 q 269 435 262 435 q 288 433 279 433 q 300 435 294 433 q 306 444 306 437 l 306 509 q 302 515 306 513 q 292 517 298 517 q 278 519 286 519 q 240 506 257 519 q 222 472 222 493 m 324 565 q 331 547 324 557 q 352 537 338 537 q 398 555 380 537 q 416 602 416 574 q 410 619 416 609 q 389 629 403 629 q 342 611 361 629 q 324 565 324 593 z "},"":{"ha":961,"x_min":0,"x_max":741,"o":"m 0 583 q 6 604 0 593 q 22 622 12 614 q 43 634 32 629 q 65 639 55 639 l 667 639 q 690 634 677 639 q 714 622 703 629 q 733 604 725 614 q 741 583 741 593 l 741 157 q 730 125 741 136 q 704 109 720 114 q 671 103 688 104 q 639 102 653 102 q 606 104 625 102 q 569 114 587 106 q 540 133 552 121 q 528 167 528 146 l 528 481 q 519 488 522 484 q 512 493 515 490 q 509 500 509 496 l 500 509 q 493 512 496 509 q 488 519 490 515 q 481 528 484 522 l 65 528 q 43 532 55 528 q 22 545 32 537 q 6 563 12 553 q 0 583 0 573 z "},"":{"ha":961,"x_min":0,"x_max":732,"o":"m 0 481 q 5 493 0 485 q 16 508 9 500 q 31 522 23 516 q 46 528 39 528 l 685 528 q 708 523 699 528 q 722 510 717 518 q 730 492 728 503 q 732 472 732 482 q 730 457 732 465 q 723 442 728 449 q 712 431 719 435 q 694 426 705 426 l 46 426 q 31 432 39 426 q 16 447 23 438 q 5 465 9 456 q 0 481 0 475 z "},"":{"ha":961,"x_min":0,"x_max":741,"o":"m 139 111 q 107 143 118 129 q 87 170 96 157 q 65 196 77 183 q 28 222 52 208 q 20 227 24 222 q 11 237 15 231 q 3 250 6 243 q 0 259 0 256 l 0 907 q 52 961 28 936 q 72 982 62 971 q 90 1001 82 992 q 104 1018 98 1010 q 111 1028 109 1025 q 121 1042 115 1035 q 135 1054 127 1048 q 152 1062 143 1059 q 167 1065 160 1065 l 574 1065 l 741 907 l 741 259 q 729 229 741 238 q 701 216 717 220 q 670 209 686 212 q 648 195 655 205 q 637 164 642 180 q 625 134 632 148 q 606 111 618 120 q 574 102 595 102 l 157 102 l 139 111 m 111 231 l 120 222 q 138 218 127 222 q 148 213 142 216 l 583 213 q 598 213 590 213 q 613 216 606 214 q 625 225 620 219 q 629 241 629 231 l 629 945 l 111 945 l 111 231 m 315 852 q 368 846 349 852 q 396 831 387 840 q 408 811 405 823 q 413 789 410 800 q 422 767 416 777 q 444 750 428 757 q 476 740 462 743 q 499 731 490 736 q 514 716 509 726 q 519 685 519 706 q 506 658 519 668 q 477 642 493 648 q 448 632 461 636 q 435 621 435 627 l 435 547 q 442 541 435 545 q 459 532 449 537 q 481 518 469 526 q 504 496 494 509 q 521 466 514 484 q 528 426 528 449 l 528 370 q 519 355 524 363 q 508 340 514 347 q 495 329 502 334 q 481 324 488 324 q 465 327 475 324 q 447 335 456 330 q 432 347 438 340 q 426 361 426 354 l 426 500 l 408 519 l 389 519 q 353 510 366 519 q 334 488 340 502 q 325 457 327 475 q 322 421 323 439 q 319 386 321 404 q 313 355 318 368 q 298 333 309 341 q 269 324 288 324 q 252 326 262 324 q 234 332 243 328 q 219 343 225 336 q 213 361 213 351 l 213 806 q 225 832 213 823 q 253 846 237 842 q 287 851 270 850 q 315 852 304 852 m 334 694 q 348 657 334 667 q 389 648 361 648 l 408 648 q 415 668 414 655 q 416 694 416 681 q 415 713 416 702 q 408 732 414 724 l 389 732 q 351 724 368 732 q 334 694 334 715 z "},"":{"ha":961,"x_min":0,"x_max":842,"o":"m 0 1120 q 5 1132 0 1124 q 16 1147 9 1139 q 31 1161 23 1155 q 46 1166 39 1166 l 796 1166 q 811 1162 803 1166 q 826 1150 819 1157 q 838 1135 833 1143 q 842 1120 842 1127 q 838 1100 842 1110 q 826 1082 833 1090 q 811 1069 819 1074 q 796 1065 803 1065 l 46 1065 q 31 1071 39 1065 q 16 1086 23 1077 q 5 1104 9 1095 q 0 1120 0 1114 z "},"":{"ha":961,"x_min":102,"x_max":639,"o":"m 102 954 q 110 985 102 965 q 130 1029 117 1006 q 160 1078 143 1053 q 194 1122 176 1102 q 228 1154 211 1141 q 259 1166 245 1166 l 481 1166 q 509 1155 493 1166 q 543 1124 526 1143 q 577 1082 560 1105 q 608 1036 595 1059 q 630 994 622 1014 q 639 963 639 975 q 630 924 639 947 q 608 877 622 901 q 575 827 593 852 q 537 784 557 803 q 499 752 518 764 q 463 741 479 741 l 278 741 q 242 752 262 741 q 203 783 223 764 q 165 826 184 802 q 133 873 147 850 q 110 919 119 897 q 102 954 102 940 m 370 1046 q 355 1043 363 1046 q 340 1035 347 1040 q 329 1023 334 1029 q 324 1009 324 1017 l 324 907 q 329 892 324 901 q 340 878 334 884 q 355 866 347 871 q 370 861 363 861 q 397 872 388 861 q 411 897 406 882 q 416 927 415 911 q 416 954 416 943 q 416 984 416 968 q 411 1014 415 1000 q 397 1037 406 1028 q 370 1046 388 1046 z "},"":{"ha":961,"x_min":0,"x_max":842,"o":"m 0 46 q 5 66 0 56 q 17 84 9 77 q 35 97 25 92 q 56 102 45 102 l 787 102 q 807 97 798 102 q 825 85 817 92 q 838 71 833 79 q 842 56 842 62 q 841 39 842 49 q 834 21 839 30 q 823 6 830 12 q 806 0 816 0 l 37 0 q 19 20 27 11 q 6 35 12 28 q 0 46 0 43 m 306 481 q 278 511 296 503 q 239 522 260 519 q 194 525 217 525 q 153 530 172 526 q 123 546 135 534 q 111 583 111 557 q 118 620 111 609 q 136 632 125 630 q 163 631 148 634 q 196 626 179 627 q 230 629 212 625 q 263 650 248 633 q 293 699 279 667 q 315 787 306 732 q 330 821 318 808 q 357 840 341 833 q 391 849 372 847 q 426 852 409 852 q 483 841 463 852 q 512 813 503 831 q 525 774 522 796 q 532 730 528 752 q 545 686 536 707 q 574 648 553 665 q 614 647 588 648 q 667 640 641 646 q 712 621 693 634 q 732 583 732 608 q 723 553 732 565 q 699 533 713 541 q 667 523 685 526 q 631 519 649 520 q 598 518 614 518 q 574 519 583 519 q 542 478 551 500 q 528 433 532 456 q 521 389 524 410 q 510 351 519 368 q 482 325 501 334 q 426 315 463 315 q 360 327 385 315 q 324 360 336 338 q 309 413 312 382 q 306 481 306 444 z "},"":{"ha":961,"x_min":0,"x_max":528,"o":"m 203 926 l 203 926 l 195 945 q 174 944 190 945 q 136 945 157 944 q 90 949 114 946 q 46 959 66 952 q 13 979 26 966 q 0 1009 0 991 q 9 1030 0 1016 q 32 1062 18 1045 q 63 1098 46 1080 q 97 1132 81 1117 q 127 1157 113 1147 q 148 1166 141 1166 l 370 1166 q 391 1156 377 1166 q 421 1130 405 1146 q 455 1095 437 1114 q 486 1058 472 1076 q 510 1027 500 1041 q 519 1009 519 1014 q 497 962 519 988 q 442 907 475 936 q 371 847 409 878 q 299 787 332 817 q 244 732 267 758 q 222 685 222 706 l 222 676 q 231 668 226 673 q 239 659 235 663 q 250 648 245 654 l 380 648 q 403 661 393 648 q 422 690 413 674 q 444 719 432 706 q 472 732 455 732 q 504 723 493 732 q 520 700 515 713 q 527 669 526 686 q 528 639 528 653 l 528 583 q 518 563 524 573 q 503 545 511 553 q 484 532 494 537 q 463 528 473 528 l 65 528 q 47 531 58 528 q 25 541 36 534 q 7 555 15 547 q 0 574 0 564 l 0 694 q 15 726 0 709 q 53 763 30 743 q 102 803 75 782 q 151 845 128 824 q 189 887 174 866 q 203 926 203 907 m 222 972 l 241 963 l 241 963 q 283 976 269 963 q 296 1009 296 988 q 289 1035 296 1023 q 269 1046 282 1046 q 232 1034 241 1046 q 222 1000 222 1021 l 222 972 z "},"":{"ha":961,"x_min":0,"x_max":528,"o":"m 0 583 q 6 605 0 593 q 22 626 12 616 q 43 642 32 636 q 65 648 55 648 l 269 648 q 275 653 271 651 q 280 656 277 654 q 287 657 283 657 q 300 671 294 665 q 306 685 306 678 l 306 796 q 291 829 306 819 q 255 844 277 840 q 209 848 234 848 q 162 854 183 849 q 126 870 140 859 q 111 907 111 882 q 125 940 111 930 q 159 952 138 949 q 204 955 180 956 q 249 958 228 955 q 283 973 269 962 q 296 1009 296 984 q 293 1026 296 1017 q 285 1044 290 1036 q 273 1059 279 1053 q 259 1065 267 1065 l 46 1065 q 31 1071 39 1065 q 16 1085 23 1077 q 5 1100 9 1093 q 0 1111 0 1107 l 0 1120 q 5 1132 0 1124 q 16 1147 9 1139 q 31 1161 23 1155 q 46 1166 39 1166 l 370 1166 q 391 1156 377 1166 q 421 1130 405 1146 q 455 1095 437 1114 q 486 1058 472 1076 q 510 1027 500 1041 q 519 1009 519 1014 q 513 986 519 996 q 497 968 507 976 q 477 955 488 961 q 457 942 467 949 q 441 927 448 935 q 435 907 435 919 q 449 873 435 886 q 478 848 462 859 q 509 825 494 837 q 528 796 524 814 l 528 750 q 520 711 528 734 q 499 664 512 688 q 469 614 486 639 q 433 571 452 590 q 396 539 414 551 q 361 528 377 528 l 65 528 q 43 532 55 528 q 22 545 32 537 q 6 563 12 553 q 0 583 0 573 z "},"":{"ha":961,"x_min":222,"x_max":629,"o":"m 222 907 q 232 921 222 909 q 259 952 242 933 q 297 994 275 970 q 340 1040 318 1017 q 385 1087 363 1064 q 425 1127 407 1109 q 456 1156 444 1145 q 472 1166 469 1166 l 583 1166 q 598 1162 590 1166 q 613 1150 606 1157 q 625 1135 620 1143 q 629 1120 629 1127 q 618 1106 629 1118 q 590 1075 608 1094 q 550 1031 572 1055 q 503 982 527 1007 q 456 934 479 958 q 415 892 433 911 q 384 863 396 874 q 370 852 372 852 l 259 852 q 242 857 249 852 q 230 869 235 861 q 224 887 226 877 q 222 907 222 897 z "},"":{"ha":961,"x_min":0,"x_max":741,"o":"m 0 -56 q 16 -27 0 -39 q 51 -5 32 -15 q 86 17 70 5 q 102 46 102 29 l 102 787 q 113 821 102 808 q 140 840 123 833 q 176 849 157 847 q 213 852 196 852 q 242 850 223 852 q 279 842 260 848 q 311 825 297 836 q 324 796 324 814 l 324 370 q 330 359 324 367 q 343 343 336 351 q 359 330 351 336 q 370 324 367 324 l 472 324 l 491 334 q 500 342 494 337 q 513 351 507 347 q 528 361 519 355 l 528 787 q 540 821 528 808 q 569 840 552 833 q 606 849 587 847 q 639 852 625 852 q 671 850 653 852 q 704 842 688 848 q 730 825 720 836 q 741 796 741 814 l 741 370 q 726 344 741 360 q 692 310 711 328 q 655 277 673 293 q 629 250 637 260 q 620 240 626 247 q 608 228 614 234 q 593 213 601 221 l 380 213 q 348 189 361 213 q 322 129 335 165 q 293 51 309 93 q 252 -27 277 9 q 191 -87 227 -63 q 102 -111 155 -111 q 71 -110 88 -111 q 37 -104 53 -109 q 11 -88 22 -99 q 0 -56 0 -77 z "},"":{"ha":961,"x_min":0,"x_max":852,"o":"m 574 945 l 574 945 l 547 917 l 537 898 l 537 46 q 530 35 537 43 q 513 20 522 28 q 494 6 503 12 q 481 0 485 0 l 361 0 q 346 7 354 0 q 331 24 338 15 q 319 43 324 34 q 315 56 315 52 l 315 481 q 303 507 315 498 q 275 521 292 516 q 237 527 258 526 q 197 529 216 528 q 162 531 178 530 q 139 537 146 532 q 122 553 134 542 q 95 577 110 564 q 62 607 79 591 q 32 638 45 623 q 9 666 18 653 q 0 685 0 678 l 0 907 q 11 929 0 914 q 37 961 21 943 q 73 997 54 978 q 111 1030 93 1015 q 145 1055 130 1045 q 167 1065 160 1065 l 787 1065 q 813 1058 801 1065 q 833 1042 825 1052 q 847 1018 842 1031 q 852 991 852 1005 l 852 65 q 848 47 852 58 q 839 25 845 36 q 824 7 833 15 q 806 0 816 0 l 685 0 q 674 6 682 0 q 659 20 667 12 q 645 35 651 28 q 639 46 639 43 l 639 898 q 631 913 639 905 q 614 928 624 922 q 596 940 605 935 q 583 945 587 945 l 574 945 m 269 945 q 248 940 258 945 q 230 927 238 935 q 218 909 222 920 q 213 889 213 899 l 213 704 q 218 684 213 694 q 230 666 222 673 q 248 653 238 658 q 269 648 258 648 q 278 651 272 648 q 291 660 285 654 q 301 671 297 665 q 306 685 306 678 l 306 907 q 301 921 306 914 q 291 933 297 928 q 278 941 285 938 q 269 945 272 945 z "},"":{"ha":961,"x_min":324,"x_max":519,"o":"m 324 370 q 326 385 324 377 q 332 400 328 393 q 343 412 336 407 q 361 416 351 416 l 491 416 q 507 412 501 416 q 515 400 513 407 q 518 385 518 393 q 519 370 519 377 q 510 338 519 349 q 487 322 500 327 q 456 316 473 317 q 426 315 440 315 q 391 316 409 315 q 358 322 372 317 q 334 338 343 327 q 324 370 324 349 z "},"":{"ha":961,"x_min":111,"x_max":629,"o":"m 111 -167 q 116 -149 111 -160 q 127 -127 121 -138 q 142 -109 134 -117 q 157 -102 151 -102 l 370 -102 q 384 -97 377 -102 q 396 -85 391 -92 q 404 -71 401 -79 q 408 -56 408 -62 q 395 -28 408 -39 q 366 -7 382 -18 q 337 17 350 3 q 324 56 324 31 q 335 82 324 73 q 361 96 345 92 q 394 101 376 100 q 426 102 412 102 q 460 94 440 102 q 504 73 481 86 q 549 43 526 60 q 589 7 571 26 q 618 -30 607 -12 q 629 -65 629 -49 q 620 -82 629 -70 q 597 -112 611 -95 q 566 -146 583 -128 q 532 -179 549 -164 q 502 -203 516 -193 q 481 -213 488 -213 l 148 -213 q 131 -208 138 -213 q 119 -197 123 -203 q 113 -182 115 -190 q 111 -167 111 -174 z "},"":{"ha":961,"x_min":111,"x_max":519,"o":"m 111 583 q 118 607 111 597 q 135 625 125 616 q 157 640 145 633 q 180 656 170 647 q 197 676 190 665 q 203 704 203 688 l 203 889 q 197 917 203 905 q 180 937 190 928 q 157 952 170 945 q 135 968 145 960 q 118 986 125 976 q 111 1009 111 996 q 120 1030 111 1016 q 143 1062 130 1045 q 175 1098 157 1080 q 208 1132 192 1117 q 238 1157 224 1147 q 259 1166 252 1166 l 370 1166 l 389 1158 q 398 1149 392 1154 q 411 1140 405 1145 q 426 1130 418 1135 l 426 713 q 433 685 426 696 q 450 663 439 673 q 472 645 460 653 q 495 627 484 636 q 512 608 505 618 q 519 583 519 597 q 514 563 519 573 q 502 545 509 553 q 484 532 494 537 q 463 528 473 528 l 167 528 q 146 532 157 528 q 129 545 136 537 q 116 563 121 553 q 111 583 111 573 z "},"":{"ha":961,"x_min":102,"x_max":639,"o":"m 111 583 q 130 625 111 612 q 176 639 148 639 l 565 639 q 587 634 575 639 q 608 622 598 629 q 623 604 617 614 q 629 583 629 593 q 625 563 629 573 q 612 545 620 553 q 594 532 604 537 q 574 528 585 528 l 167 528 q 146 532 157 528 q 129 545 136 537 q 116 563 121 553 q 111 583 111 573 m 102 954 q 110 985 102 965 q 130 1029 117 1006 q 160 1078 143 1053 q 194 1122 176 1102 q 228 1154 211 1141 q 259 1166 245 1166 l 481 1166 q 509 1155 493 1166 q 543 1124 526 1143 q 577 1082 560 1105 q 608 1036 595 1059 q 630 994 622 1014 q 639 963 639 975 q 630 924 639 947 q 608 877 622 901 q 575 827 593 852 q 537 784 557 803 q 499 752 518 764 q 463 741 479 741 l 278 741 q 242 752 262 741 q 203 783 223 764 q 165 826 184 802 q 133 873 147 850 q 110 919 119 897 q 102 954 102 940 m 370 1046 q 355 1043 363 1046 q 340 1035 347 1040 q 329 1023 334 1029 q 324 1009 324 1017 l 324 907 q 329 892 324 901 q 340 878 334 884 q 355 866 347 871 q 370 861 363 861 q 397 872 388 861 q 411 897 406 882 q 416 927 415 911 q 416 954 416 943 q 416 984 416 968 q 411 1014 415 1000 q 397 1037 406 1028 q 370 1046 388 1046 z "},"":{"ha":961,"x_min":0,"x_max":732,"o":"m 0 259 q 15 299 0 280 q 51 335 29 317 q 97 370 72 353 q 144 405 123 387 q 180 442 165 423 q 195 481 195 460 q 180 517 195 500 q 144 551 165 534 q 97 584 123 568 q 51 618 72 601 q 15 655 29 636 q 0 694 0 673 q 5 706 0 698 q 16 721 9 713 q 31 735 23 729 q 46 741 39 741 l 157 741 q 181 734 172 741 q 199 717 191 727 q 214 694 207 707 q 230 672 221 682 q 250 655 239 662 q 278 648 262 648 q 304 660 296 648 q 320 688 313 672 q 339 719 328 703 q 370 741 349 734 l 426 741 q 445 742 436 741 q 463 743 454 743 q 480 741 471 743 q 500 732 490 739 q 527 711 507 730 q 572 666 547 693 q 626 609 598 640 q 678 550 654 578 q 716 500 701 522 q 732 472 732 479 q 722 458 732 471 q 695 428 712 446 q 657 386 679 410 q 613 339 636 363 q 569 293 591 315 q 528 252 547 270 q 497 224 510 235 q 481 213 485 213 l 361 213 q 339 220 347 213 q 327 237 332 227 q 320 259 323 248 q 312 282 317 271 q 300 299 307 292 q 278 306 292 306 q 239 291 254 306 q 214 259 225 277 q 191 228 203 242 q 157 213 178 213 l 46 213 q 31 218 39 213 q 16 229 23 222 q 5 244 9 236 q 0 259 0 252 m 324 352 q 352 324 324 324 q 398 342 380 324 q 416 389 416 361 l 416 389 q 411 401 413 396 q 406 410 409 406 q 400 415 404 413 q 389 416 396 416 q 342 398 361 416 q 324 352 324 380 m 463 519 q 450 517 456 519 q 440 515 444 517 q 435 509 435 513 l 435 435 q 462 436 449 435 q 486 441 475 437 q 503 455 496 446 q 509 481 509 465 q 497 511 509 503 q 463 519 484 519 m 324 602 q 342 555 324 574 q 389 537 361 537 q 397 539 392 537 q 406 546 401 541 q 413 557 410 550 q 416 574 416 564 q 410 598 416 588 q 395 616 404 609 q 374 626 385 623 q 352 629 362 629 q 331 619 338 629 q 324 602 324 609 z "},"":{"ha":961,"x_min":0,"x_max":741,"o":"m 222 46 q 232 86 222 67 q 258 121 242 104 q 294 152 274 137 q 335 179 314 166 q 374 202 355 191 q 408 222 393 213 q 428 243 417 227 q 453 281 439 259 q 480 326 466 302 q 510 370 495 350 q 542 403 526 390 q 574 416 558 416 l 704 416 q 722 397 714 406 q 735 381 730 389 q 741 370 741 374 l 741 -167 q 736 -182 741 -174 q 724 -197 731 -190 q 709 -208 718 -203 q 694 -213 701 -213 l 574 -213 q 547 -204 557 -213 q 532 -180 537 -195 q 525 -145 527 -165 q 522 -106 524 -126 q 518 -67 521 -87 q 510 -33 516 -48 q 493 -9 505 -18 q 463 0 482 0 l 259 0 q 242 5 249 0 q 230 16 235 9 q 224 31 226 23 q 222 46 222 39 m 694 945 q 709 943 701 945 q 724 936 718 941 q 736 925 731 932 q 741 907 741 918 l 741 796 q 722 772 741 793 q 670 718 703 751 q 594 640 637 684 q 502 547 551 596 q 400 447 452 498 q 299 347 349 395 q 204 256 249 298 q 126 181 160 213 q 70 130 92 149 q 46 111 49 111 q 31 113 39 111 q 16 119 23 115 q 5 131 9 123 q 0 148 0 138 l 0 269 q 19 292 0 271 q 71 346 38 313 q 146 422 103 379 q 239 514 190 466 q 340 613 288 563 q 442 712 393 664 q 536 802 492 760 q 615 876 581 844 q 671 926 650 908 q 694 945 692 945 m 435 176 q 443 134 435 148 q 472 120 451 120 q 501 128 493 120 q 509 157 509 136 q 496 191 509 178 q 454 203 482 203 l 454 203 l 435 195 l 435 176 m 28 648 q 20 656 24 652 q 11 667 15 661 q 3 677 6 672 q 0 685 0 682 l 0 1120 q 5 1135 0 1127 q 16 1150 9 1143 q 31 1162 23 1157 q 46 1166 39 1166 l 157 1166 q 169 1161 161 1166 q 184 1148 176 1156 q 203 1130 193 1140 l 203 676 q 184 658 193 666 q 169 645 176 650 q 157 639 161 639 l 46 639 l 28 648 z "},"":{"ha":961,"x_min":0,"x_max":842,"o":"m 324 -157 q 339 -127 324 -144 q 375 -92 353 -110 q 421 -53 396 -73 q 468 -13 447 -33 q 504 27 490 7 q 519 65 519 47 q 519 73 519 68 q 518 82 519 78 q 515 90 517 87 q 509 93 513 93 q 492 93 507 93 q 457 93 477 92 q 413 96 437 94 q 370 105 390 99 q 337 121 351 111 q 324 148 324 132 q 333 176 324 159 q 357 212 342 193 q 389 249 371 231 q 424 282 407 267 q 457 306 441 296 q 481 315 472 315 l 685 315 q 703 305 690 315 q 734 280 717 295 q 771 245 751 264 q 806 208 790 227 q 832 173 822 189 q 842 148 842 157 q 828 112 842 130 q 792 79 814 95 q 745 46 770 62 q 699 14 720 30 q 663 -20 677 -3 q 648 -56 648 -37 q 663 -92 648 -81 q 699 -107 677 -103 q 745 -110 720 -111 q 792 -113 770 -110 q 828 -125 814 -115 q 842 -157 842 -134 q 841 -174 842 -164 q 834 -192 839 -183 q 823 -207 830 -201 q 806 -213 816 -213 l 361 -213 q 343 -207 351 -213 q 332 -192 336 -201 q 326 -174 328 -183 q 324 -157 324 -164 m 694 945 q 709 943 701 945 q 724 936 718 941 q 736 925 731 932 q 741 907 741 918 l 741 796 q 722 772 741 793 q 670 718 703 751 q 594 640 637 684 q 502 547 551 596 q 400 447 452 498 q 299 347 349 395 q 204 256 249 298 q 126 181 160 213 q 70 130 92 149 q 46 111 49 111 q 31 113 39 111 q 16 119 23 115 q 5 131 9 123 q 0 148 0 138 l 0 269 q 19 292 0 271 q 71 346 38 313 q 146 422 103 379 q 239 514 190 466 q 340 613 288 563 q 442 712 393 664 q 536 802 492 760 q 615 876 581 844 q 671 926 650 908 q 694 945 692 945 m 537 139 q 565 111 537 111 q 585 113 575 111 q 603 119 595 115 q 616 131 611 123 q 621 148 621 138 q 608 182 621 169 q 574 195 595 195 q 557 190 564 195 q 546 177 550 185 q 539 159 541 170 q 537 139 537 149 m 28 648 q 20 656 24 652 q 11 667 15 661 q 3 677 6 672 q 0 685 0 682 l 0 1120 q 5 1135 0 1127 q 16 1150 9 1143 q 31 1162 23 1157 q 46 1166 39 1166 l 157 1166 q 169 1161 161 1166 q 184 1148 176 1156 q 203 1130 193 1140 l 203 676 q 184 658 193 666 q 169 645 176 650 q 157 639 161 639 l 46 639 l 28 648 z "},"":{"ha":961,"x_min":0,"x_max":741,"o":"m 222 46 q 232 86 222 67 q 258 121 242 104 q 294 152 274 137 q 335 179 314 166 q 374 202 355 191 q 408 222 393 213 q 428 243 417 227 q 453 281 439 259 q 480 326 466 302 q 510 370 495 350 q 542 403 526 390 q 574 416 558 416 l 704 416 q 722 397 714 406 q 735 381 730 389 q 741 370 741 374 l 741 -167 q 736 -182 741 -174 q 724 -197 731 -190 q 709 -208 718 -203 q 694 -213 701 -213 l 574 -213 q 547 -204 557 -213 q 532 -180 537 -195 q 525 -145 527 -165 q 522 -106 524 -126 q 518 -67 521 -87 q 510 -33 516 -48 q 493 -9 505 -18 q 463 0 482 0 l 259 0 q 242 5 249 0 q 230 16 235 9 q 224 31 226 23 q 222 46 222 39 m 306 602 q 306 611 306 605 q 303 624 305 618 q 298 634 302 630 q 287 639 294 639 l 46 639 q 31 645 39 639 q 16 659 23 651 q 5 674 9 667 q 0 685 0 682 l 0 694 q 15 730 0 720 q 51 743 29 741 q 97 745 72 746 q 144 747 123 745 q 180 761 165 750 q 195 796 195 771 q 189 819 195 810 q 173 835 182 828 q 153 848 163 842 q 133 862 142 854 q 117 880 123 869 q 111 907 111 891 q 117 930 111 922 q 133 946 123 939 q 153 960 142 954 q 173 973 163 966 q 189 991 182 981 q 195 1019 195 1002 q 180 1051 195 1042 q 144 1063 165 1061 q 97 1066 123 1066 q 51 1069 72 1065 q 15 1084 29 1073 q 0 1120 0 1095 q 5 1132 0 1124 q 16 1147 9 1139 q 31 1161 23 1155 q 46 1166 39 1166 l 269 1166 q 289 1157 275 1166 q 319 1132 303 1147 q 353 1098 336 1117 q 384 1062 370 1080 q 407 1030 398 1045 q 416 1009 416 1016 q 410 986 416 996 q 395 970 404 977 q 375 957 386 963 q 355 943 364 951 q 340 925 346 936 q 334 898 334 914 l 454 750 q 500 765 479 750 q 541 801 522 779 q 577 847 559 822 q 613 894 595 873 q 651 930 631 916 q 694 945 671 945 q 709 943 701 945 q 724 936 718 941 q 736 925 731 932 q 741 907 741 918 l 741 796 q 722 772 741 793 q 670 718 703 751 q 594 640 637 684 q 502 547 551 596 q 400 447 452 498 q 299 347 349 395 q 204 256 249 298 q 126 181 160 213 q 70 130 92 149 q 46 111 49 111 q 31 113 39 111 q 16 119 23 115 q 5 131 9 123 q 0 148 0 138 l 0 269 q 23 308 0 283 q 79 363 45 332 q 153 428 113 394 q 227 495 193 463 q 283 555 260 527 q 306 602 306 583 m 435 176 q 443 134 435 148 q 472 120 451 120 q 501 128 493 120 q 509 157 509 136 q 496 191 509 178 q 454 203 482 203 l 454 203 l 435 195 l 435 176 m 324 667 q 332 651 324 653 q 361 648 340 648 q 381 653 371 648 q 399 667 391 659 q 412 687 407 675 q 416 713 416 699 l 416 713 l 408 732 l 389 732 q 342 713 361 732 q 324 667 324 695 z "},"":{"ha":961,"x_min":0,"x_max":741,"o":"m 519 148 q 520 191 519 165 q 527 242 521 217 q 546 288 533 267 q 583 315 559 308 l 639 315 q 718 292 694 315 q 741 213 741 269 q 733 181 741 201 q 712 137 725 161 q 684 89 700 113 q 652 45 668 65 q 620 13 635 25 q 593 0 604 0 l 148 0 q 131 10 143 0 q 101 34 118 20 q 67 67 85 49 q 34 101 49 85 q 10 131 20 118 q 0 148 0 143 l 0 380 q 14 395 0 382 q 48 428 28 408 q 94 469 69 447 q 140 511 118 491 q 177 545 161 530 q 195 565 192 560 q 201 591 199 574 q 203 627 202 607 q 206 667 204 646 q 214 703 208 687 q 230 730 219 720 q 259 741 241 741 l 370 741 q 381 735 374 741 q 397 722 389 730 q 416 704 406 714 l 416 574 q 401 543 416 561 q 364 506 387 526 q 315 467 341 487 q 266 426 288 446 q 228 387 243 406 q 213 352 213 368 l 213 167 q 218 154 213 163 q 229 136 222 145 q 244 119 236 126 q 259 111 252 111 l 481 111 l 519 148 m 324 1065 q 350 1063 334 1065 q 381 1056 366 1061 q 406 1041 395 1050 q 416 1019 416 1032 l 416 889 q 397 871 406 879 q 381 858 389 863 q 370 852 374 852 l 259 852 q 244 857 252 852 q 229 868 236 861 q 218 883 222 875 q 213 898 213 891 l 213 1019 q 227 1045 213 1036 q 258 1059 240 1055 q 295 1064 277 1063 q 324 1065 314 1065 z "},"":{"ha":961,"x_min":0,"x_max":741,"o":"m 0 694 q 15 713 0 696 q 55 755 31 729 q 112 813 80 781 q 177 878 144 845 q 243 943 210 911 q 301 1000 275 975 q 343 1040 326 1025 q 361 1055 359 1055 q 385 1040 366 1055 q 432 1001 404 1025 q 493 946 460 977 q 561 882 527 915 q 628 817 595 849 q 685 759 660 785 q 725 715 710 732 q 741 694 741 698 l 741 46 q 736 31 741 39 q 724 16 731 23 q 709 5 718 9 q 694 0 701 0 l 574 0 q 555 9 564 0 q 541 29 547 18 q 531 51 534 40 q 528 65 528 62 l 528 370 q 520 381 528 374 q 503 397 513 389 q 485 411 494 405 q 472 416 475 416 l 269 416 q 252 409 262 416 q 234 391 243 401 q 219 370 225 380 q 213 352 213 359 l 213 37 l 167 0 l 37 0 l 0 37 l 0 694 m 213 639 q 214 611 213 629 q 219 577 214 594 q 233 549 223 561 q 259 537 242 537 l 472 537 q 483 543 475 537 q 499 556 491 549 q 519 574 508 564 l 519 694 q 510 714 519 701 q 486 743 500 728 q 455 774 472 758 q 421 804 437 791 q 391 825 405 817 q 370 833 377 833 q 339 823 357 833 q 305 795 322 812 q 271 757 288 779 q 241 714 254 736 q 221 672 229 692 q 213 639 213 652 m 435 1222 q 443 1254 435 1243 q 464 1271 451 1265 q 494 1277 477 1276 q 528 1278 511 1278 q 565 1271 544 1278 q 609 1251 587 1263 q 654 1223 632 1239 q 693 1190 676 1208 q 721 1155 711 1173 q 732 1120 732 1137 q 723 1088 732 1099 q 700 1072 713 1077 q 669 1066 686 1067 q 639 1065 653 1065 l 583 1065 q 563 1078 576 1067 q 532 1104 549 1088 q 499 1137 516 1119 q 468 1171 481 1154 q 445 1201 454 1187 q 435 1222 435 1215 z "},"":{"ha":961,"x_min":0,"x_max":741,"o":"m 0 694 q 15 713 0 696 q 55 755 31 729 q 112 813 80 781 q 177 878 144 845 q 243 943 210 911 q 301 1000 275 975 q 343 1040 326 1025 q 361 1055 359 1055 q 385 1040 366 1055 q 432 1001 404 1025 q 493 946 460 977 q 561 882 527 915 q 628 817 595 849 q 685 759 660 785 q 725 715 710 732 q 741 694 741 698 l 741 46 q 736 31 741 39 q 724 16 731 23 q 709 5 718 9 q 694 0 701 0 l 574 0 q 555 9 564 0 q 541 29 547 18 q 531 51 534 40 q 528 65 528 62 l 528 370 q 520 381 528 374 q 503 397 513 389 q 485 411 494 405 q 472 416 475 416 l 269 416 q 252 409 262 416 q 234 391 243 401 q 219 370 225 380 q 213 352 213 359 l 213 37 l 167 0 l 37 0 l 0 37 l 0 694 m 213 639 q 214 611 213 629 q 219 577 214 594 q 233 549 223 561 q 259 537 242 537 l 472 537 q 483 543 475 537 q 499 556 491 549 q 519 574 508 564 l 519 694 q 510 714 519 701 q 486 743 500 728 q 455 774 472 758 q 421 804 437 791 q 391 825 405 817 q 370 833 377 833 q 339 823 357 833 q 305 795 322 812 q 271 757 288 779 q 241 714 254 736 q 221 672 229 692 q 213 639 213 652 m 0 1120 q 12 1148 0 1132 q 43 1182 24 1164 q 85 1216 62 1199 q 133 1247 109 1234 q 178 1269 157 1261 q 213 1278 199 1278 q 243 1277 227 1278 q 274 1271 260 1276 q 297 1254 288 1265 q 306 1222 306 1243 q 297 1201 306 1215 q 273 1169 288 1186 q 242 1133 259 1152 q 208 1099 224 1114 q 178 1075 192 1084 q 157 1065 164 1065 l 46 1065 q 31 1071 39 1065 q 16 1086 23 1077 q 5 1104 9 1095 q 0 1120 0 1114 z "},"":{"ha":961,"x_min":0,"x_max":741,"o":"m 0 694 q 15 713 0 696 q 55 755 31 729 q 112 813 80 781 q 177 878 144 845 q 243 943 210 911 q 301 1000 275 975 q 343 1040 326 1025 q 361 1055 359 1055 q 385 1040 366 1055 q 432 1001 404 1025 q 493 946 460 977 q 561 882 527 915 q 628 817 595 849 q 685 759 660 785 q 725 715 710 732 q 741 694 741 698 l 741 46 q 736 31 741 39 q 724 16 731 23 q 709 5 718 9 q 694 0 701 0 l 574 0 q 555 9 564 0 q 541 29 547 18 q 531 51 534 40 q 528 65 528 62 l 528 370 q 520 381 528 374 q 503 397 513 389 q 485 411 494 405 q 472 416 475 416 l 269 416 q 252 409 262 416 q 234 391 243 401 q 219 370 225 380 q 213 352 213 359 l 213 37 l 167 0 l 37 0 l 0 37 l 0 694 m 213 639 q 214 611 213 629 q 219 577 214 594 q 233 549 223 561 q 259 537 242 537 l 472 537 q 483 543 475 537 q 499 556 491 549 q 519 574 508 564 l 519 694 q 510 714 519 701 q 486 743 500 728 q 455 774 472 758 q 421 804 437 791 q 391 825 405 817 q 370 833 377 833 q 339 823 357 833 q 305 795 322 812 q 271 757 288 779 q 241 714 254 736 q 221 672 229 692 q 213 639 213 652 m 0 1120 q 11 1142 0 1127 q 37 1174 21 1156 q 73 1210 54 1191 q 111 1243 93 1228 q 145 1268 130 1258 q 167 1278 160 1278 l 574 1278 q 599 1268 584 1278 q 631 1243 614 1258 q 667 1210 649 1228 q 699 1174 685 1191 q 723 1142 713 1156 q 732 1120 732 1127 q 723 1088 732 1099 q 700 1072 713 1077 q 669 1066 686 1067 q 639 1065 653 1065 l 583 1065 q 549 1088 562 1072 q 522 1123 535 1105 q 494 1153 509 1140 q 454 1166 478 1166 l 278 1166 q 243 1151 257 1166 q 218 1116 230 1135 q 192 1081 205 1097 q 157 1065 178 1065 l 46 1065 q 31 1071 39 1065 q 16 1086 23 1077 q 5 1104 9 1095 q 0 1120 0 1114 z "},"":{"ha":961,"x_min":0,"x_max":741,"o":"m 0 593 q 16 610 0 594 q 57 652 31 627 q 115 708 82 677 q 181 772 147 739 q 249 836 216 804 q 309 891 282 867 q 352 930 335 915 q 370 945 368 945 q 391 930 374 945 q 436 891 409 915 q 495 835 463 867 q 562 771 528 804 q 628 706 596 738 q 685 647 661 673 q 725 604 710 621 q 741 583 741 587 l 741 46 q 736 31 741 39 q 724 16 731 23 q 709 5 718 9 q 694 0 701 0 l 574 0 q 555 9 564 0 q 541 29 547 18 q 531 51 534 40 q 528 65 528 62 l 528 269 q 520 278 528 272 q 505 291 513 285 q 481 306 494 298 l 259 306 q 244 298 252 306 q 229 281 236 291 q 218 263 222 272 q 213 250 213 254 l 213 37 l 167 0 l 37 0 l 0 37 l 0 593 m 213 528 q 215 496 213 514 q 225 463 218 479 q 244 437 232 448 q 278 426 257 426 l 454 426 q 472 429 460 426 q 493 439 483 433 q 511 453 504 445 q 519 472 519 462 l 519 593 q 508 603 513 598 q 499 612 504 608 q 491 621 494 617 q 465 646 481 627 q 431 683 448 664 q 397 717 413 702 q 370 732 380 732 q 339 720 357 732 q 305 689 322 708 q 271 647 288 671 q 241 601 254 624 q 221 559 229 578 q 213 528 213 539 m 0 1120 q 11 1142 0 1127 q 37 1174 21 1156 q 73 1210 54 1191 q 111 1243 93 1228 q 145 1268 130 1258 q 167 1278 160 1278 l 361 1278 q 385 1271 375 1278 q 404 1254 395 1264 q 421 1232 413 1244 q 438 1209 429 1219 q 457 1192 447 1199 q 481 1185 468 1185 q 507 1192 496 1185 q 529 1209 518 1199 q 550 1232 539 1219 q 573 1254 560 1244 q 602 1271 586 1264 q 639 1278 618 1278 q 669 1277 653 1278 q 700 1271 686 1276 q 723 1254 713 1265 q 732 1222 732 1243 q 723 1204 732 1217 q 699 1173 713 1191 q 668 1137 685 1156 q 634 1102 650 1118 q 604 1075 618 1086 q 583 1065 590 1065 l 370 1065 q 341 1079 353 1065 q 319 1111 330 1094 q 298 1143 309 1128 q 269 1158 286 1158 q 234 1143 248 1158 q 209 1111 220 1128 q 186 1079 198 1094 q 157 1065 175 1065 l 46 1065 q 31 1071 39 1065 q 16 1086 23 1077 q 5 1104 9 1095 q 0 1120 0 1114 z "},"":{"ha":961,"x_min":0,"x_max":741,"o":"m 0 593 q 16 610 0 594 q 57 652 31 627 q 115 708 82 677 q 181 772 147 739 q 249 836 216 804 q 309 891 282 867 q 352 930 335 915 q 370 945 368 945 q 391 930 374 945 q 436 891 409 915 q 495 835 463 867 q 562 771 528 804 q 628 706 596 738 q 685 647 661 673 q 725 604 710 621 q 741 583 741 587 l 741 46 q 736 31 741 39 q 724 16 731 23 q 709 5 718 9 q 694 0 701 0 l 574 0 q 555 9 564 0 q 541 29 547 18 q 531 51 534 40 q 528 65 528 62 l 528 269 q 520 278 528 272 q 505 291 513 285 q 481 306 494 298 l 259 306 q 244 298 252 306 q 229 281 236 291 q 218 263 222 272 q 213 250 213 254 l 213 37 l 167 0 l 37 0 l 0 37 l 0 593 m 213 528 q 215 496 213 514 q 225 463 218 479 q 244 437 232 448 q 278 426 257 426 l 454 426 q 472 429 460 426 q 493 439 483 433 q 511 453 504 445 q 519 472 519 462 l 519 593 q 508 603 513 598 q 499 612 504 608 q 491 621 494 617 q 465 646 481 627 q 431 683 448 664 q 397 717 413 702 q 370 732 380 732 q 339 720 357 732 q 305 689 322 708 q 271 647 288 671 q 241 601 254 624 q 221 559 229 578 q 213 528 213 539 m 0 1120 q 5 1132 0 1124 q 16 1147 9 1139 q 31 1161 23 1155 q 46 1166 39 1166 l 157 1166 q 172 1161 164 1166 q 187 1147 180 1155 q 199 1132 194 1139 q 203 1120 203 1124 q 199 1104 203 1114 q 187 1086 194 1095 q 172 1071 180 1077 q 157 1065 164 1065 l 46 1065 q 31 1071 39 1065 q 16 1086 23 1077 q 5 1104 9 1095 q 0 1120 0 1114 m 537 1111 q 539 1128 537 1118 q 546 1146 541 1137 q 557 1160 550 1154 q 574 1166 564 1166 l 694 1166 q 712 1162 705 1166 q 723 1150 719 1157 q 730 1135 728 1143 q 732 1120 732 1127 q 723 1088 732 1099 q 700 1072 713 1077 q 669 1066 686 1067 q 639 1065 653 1065 l 583 1065 q 568 1073 576 1068 q 553 1084 560 1078 q 542 1097 547 1090 q 537 1111 537 1104 z "},"":{"ha":961,"x_min":0,"x_max":741,"o":"m 0 593 q 11 606 0 594 q 41 637 22 618 q 83 679 59 655 q 132 726 106 702 q 182 772 157 749 q 227 812 206 795 q 261 841 247 830 q 278 852 275 852 l 463 852 q 480 841 467 852 q 514 812 494 830 q 559 772 534 795 q 609 724 584 749 q 658 676 634 700 q 700 633 682 652 q 729 600 718 613 q 741 583 741 587 l 741 46 q 736 31 741 39 q 724 16 731 23 q 709 5 718 9 q 694 0 701 0 l 574 0 q 555 9 564 0 q 541 29 547 18 q 531 51 534 40 q 528 65 528 62 l 528 269 q 520 278 528 272 q 505 291 513 285 q 481 306 494 298 l 259 306 q 244 298 252 306 q 229 281 236 291 q 218 263 222 272 q 213 250 213 254 l 213 37 l 167 0 l 37 0 l 0 37 l 0 593 m 213 528 q 215 496 213 514 q 225 463 218 479 q 244 437 232 448 q 278 426 257 426 l 454 426 q 472 429 460 426 q 493 439 483 433 q 511 453 504 445 q 519 472 519 462 l 519 593 q 508 603 513 598 q 499 612 504 608 q 491 621 494 617 q 465 646 481 627 q 431 683 448 664 q 397 717 413 702 q 370 732 380 732 q 339 720 357 732 q 305 689 322 708 q 271 647 288 671 q 241 601 254 624 q 221 559 229 578 q 213 528 213 539 m 111 1111 q 121 1136 111 1120 q 146 1171 131 1152 q 179 1208 161 1190 q 215 1243 198 1227 q 247 1268 233 1258 q 269 1278 262 1278 l 463 1278 q 485 1267 470 1278 q 519 1241 500 1257 q 557 1206 537 1225 q 592 1169 576 1187 q 619 1138 608 1152 q 629 1120 629 1125 q 621 1100 629 1114 q 600 1069 612 1086 q 571 1035 587 1053 q 539 1002 555 1017 q 511 976 524 987 q 491 963 498 965 q 462 954 481 956 q 424 951 443 951 q 389 952 405 951 q 370 954 374 954 l 278 954 q 256 964 271 954 q 222 990 241 975 q 184 1025 204 1006 q 149 1062 165 1044 q 122 1093 132 1080 q 111 1111 111 1106 m 334 1120 q 341 1091 334 1099 q 370 1083 349 1083 q 396 1091 384 1083 q 408 1120 408 1099 q 396 1146 408 1134 q 370 1158 384 1158 q 341 1146 349 1158 q 334 1120 334 1134 z "},"":{"ha":961,"x_min":0,"x_max":732,"o":"m 0 806 q 18 828 0 808 q 64 877 36 848 q 125 938 92 905 q 190 999 159 971 q 244 1046 220 1027 q 278 1065 269 1065 l 676 1065 q 696 1060 686 1065 q 714 1047 707 1055 q 727 1029 722 1040 q 732 1009 732 1019 q 726 986 732 996 q 710 968 720 976 q 690 955 701 961 q 670 942 680 949 q 654 927 661 935 q 648 907 648 919 l 648 685 q 661 657 648 668 q 690 637 674 647 q 719 616 706 628 q 732 583 732 604 q 726 560 732 570 q 710 543 720 550 q 690 529 701 535 q 670 516 680 523 q 654 501 661 509 q 648 481 648 493 l 648 148 q 661 120 648 131 q 690 100 674 110 q 719 79 706 91 q 732 46 732 67 q 728 31 732 39 q 720 16 725 23 q 708 5 715 9 q 694 0 701 0 l 472 0 q 461 6 469 0 q 446 20 454 12 q 432 35 438 28 q 426 46 426 43 l 426 472 q 418 483 426 475 q 401 499 411 491 q 383 513 392 507 q 370 519 374 519 l 259 519 q 244 513 252 519 q 229 498 236 507 q 218 479 222 489 q 213 463 213 470 l 213 37 l 167 0 l 37 0 l 0 37 l 0 806 m 213 741 q 214 719 213 734 q 218 688 214 703 q 229 660 221 672 q 250 648 236 648 l 380 648 q 398 668 390 659 q 411 683 406 675 q 416 694 416 691 l 416 898 q 411 913 416 905 q 397 928 405 922 q 381 940 389 935 q 370 945 374 945 q 342 934 359 945 q 309 906 326 924 q 274 867 292 889 q 243 822 257 845 q 221 778 230 800 q 213 741 213 757 z "},"":{"ha":961,"x_min":0,"x_max":741,"o":"m 111 -167 q 116 -149 111 -160 q 127 -127 121 -138 q 142 -109 134 -117 q 157 -102 151 -102 l 481 -102 q 497 -97 492 -102 q 506 -85 503 -92 q 509 -71 509 -79 q 509 -56 509 -62 q 505 -34 509 -41 q 493 -21 500 -26 q 478 -11 486 -16 q 463 0 470 -7 q 444 22 453 10 q 426 45 435 34 q 408 66 417 56 q 389 83 399 77 q 361 98 378 94 q 325 103 343 102 q 291 103 307 104 q 269 102 275 102 q 252 112 265 102 q 219 140 239 123 q 176 179 199 157 q 127 224 152 201 q 80 271 103 248 q 39 313 57 294 q 11 345 22 332 q 0 361 0 357 l 0 806 q 18 828 0 808 q 64 877 36 848 q 125 938 92 905 q 190 999 159 971 q 244 1046 220 1027 q 278 1065 269 1065 l 574 1065 q 596 1055 581 1065 q 630 1030 611 1045 q 668 997 648 1015 q 703 961 687 978 q 730 929 720 943 q 741 907 741 914 l 741 796 q 736 781 741 789 q 723 766 731 773 q 705 755 715 760 q 685 750 695 750 q 657 765 673 750 q 622 801 641 779 q 583 847 603 822 q 545 894 564 873 q 509 930 526 916 q 481 945 493 945 l 361 945 q 347 935 359 945 q 318 909 335 925 q 283 875 302 894 q 249 837 265 856 q 223 803 233 819 q 213 778 213 787 l 213 389 q 223 353 213 372 q 252 314 234 334 q 292 277 269 295 q 338 244 314 258 q 385 221 361 230 q 426 213 408 213 q 479 228 454 213 q 528 266 505 243 q 573 315 551 288 q 614 364 594 341 q 651 401 633 387 q 685 416 669 416 q 702 413 692 416 q 720 404 711 410 q 734 389 728 397 q 741 370 741 380 l 741 259 q 734 239 741 248 q 717 223 727 230 q 694 210 707 216 q 672 197 682 203 q 655 183 662 191 q 648 167 648 176 l 648 37 q 661 14 648 23 q 690 -6 674 4 q 719 -27 706 -16 q 732 -56 732 -39 q 723 -74 732 -60 q 702 -104 715 -87 q 673 -141 689 -122 q 641 -176 656 -160 q 613 -202 626 -192 q 593 -213 600 -213 l 148 -213 q 131 -208 138 -213 q 119 -197 123 -203 q 113 -182 115 -190 q 111 -167 111 -174 z "},"":{"ha":961,"x_min":0,"x_max":741,"o":"m 0 46 q 15 79 0 67 q 46 102 29 92 q 78 124 64 112 q 93 157 93 136 l 93 796 q 78 825 93 814 q 46 848 64 837 q 15 873 29 859 q 0 907 0 886 q 5 919 0 911 q 16 934 9 926 q 31 948 23 942 q 46 954 39 954 l 694 954 q 709 949 701 954 q 724 937 718 944 q 736 922 731 930 q 741 907 741 914 l 741 685 q 736 668 741 675 q 724 656 731 661 q 709 650 718 652 q 694 648 701 648 q 656 663 676 648 q 616 699 636 677 q 576 745 596 720 q 538 792 557 770 q 503 828 519 814 q 472 842 486 842 l 370 842 q 355 838 363 842 q 340 826 347 833 q 329 811 334 819 q 324 796 324 803 l 324 583 q 329 570 324 576 q 340 558 334 563 q 355 550 347 553 q 370 547 363 547 q 403 559 391 547 q 425 588 415 572 q 445 616 434 604 q 472 629 455 629 q 492 625 482 629 q 510 613 503 620 q 523 598 518 606 q 528 583 528 590 l 528 370 q 523 355 528 363 q 511 340 518 347 q 496 329 505 334 q 481 324 488 324 q 454 330 465 324 q 436 346 444 336 q 421 366 428 355 q 407 386 414 376 q 388 401 399 395 q 361 408 377 408 q 351 404 357 408 q 339 396 345 401 q 329 384 333 391 q 324 370 324 377 l 324 157 q 329 142 324 151 q 340 127 334 134 q 355 116 347 121 q 370 111 363 111 l 481 111 q 505 126 491 111 q 537 162 519 140 q 574 209 554 183 q 615 255 594 234 q 656 291 635 277 q 694 306 676 306 q 709 302 701 306 q 724 293 718 299 q 736 278 731 287 q 741 259 741 269 l 741 46 q 736 31 741 39 q 724 16 731 23 q 709 5 718 9 q 694 0 701 0 l 37 0 q 19 20 27 11 q 6 35 12 28 q 0 46 0 43 m 222 1222 q 230 1254 222 1243 q 251 1271 238 1265 q 281 1277 264 1276 q 315 1278 298 1278 q 349 1270 329 1278 q 392 1249 370 1262 q 438 1220 415 1236 q 478 1186 460 1203 q 508 1151 496 1168 q 519 1120 519 1134 q 511 1088 519 1099 q 490 1072 503 1077 q 460 1066 477 1067 q 426 1065 444 1065 l 370 1065 q 350 1078 363 1067 q 319 1104 336 1088 q 286 1137 303 1119 q 255 1171 269 1154 q 232 1201 241 1187 q 222 1222 222 1215 z "},"":{"ha":961,"x_min":0,"x_max":741,"o":"m 0 46 q 15 79 0 67 q 46 102 29 92 q 78 124 64 112 q 93 157 93 136 l 93 694 q 86 714 93 706 q 69 729 79 722 q 46 742 58 736 q 24 755 35 748 q 7 772 14 763 q 0 796 0 782 q 6 817 0 806 q 22 834 12 827 q 43 847 32 842 q 65 852 55 852 l 676 852 q 698 847 686 852 q 719 834 709 842 q 734 817 728 827 q 741 796 741 806 l 741 685 q 736 670 741 678 q 724 655 731 662 q 709 644 718 648 q 694 639 701 639 l 583 639 q 554 653 566 639 q 532 685 543 668 q 511 717 522 703 q 481 732 499 732 l 361 732 q 342 712 351 721 q 330 696 336 704 q 324 685 324 688 l 324 583 q 330 572 324 580 q 343 557 336 565 q 359 543 351 549 q 370 537 367 537 l 583 537 q 598 530 590 537 q 613 513 606 522 q 625 494 620 503 q 629 481 629 485 q 625 465 629 475 q 613 447 620 456 q 598 432 606 438 q 583 426 590 426 l 380 426 q 363 420 373 426 q 345 405 353 414 q 330 387 336 396 q 324 370 324 377 l 324 157 q 329 142 324 151 q 340 127 334 134 q 355 116 347 121 q 370 111 363 111 l 481 111 q 498 118 491 111 q 512 135 505 125 q 524 157 518 145 q 538 180 530 170 q 554 197 545 190 q 574 203 563 203 l 694 203 q 709 199 701 203 q 724 187 718 194 q 736 172 731 180 q 741 157 741 164 l 741 46 q 736 31 741 39 q 724 16 731 23 q 709 5 718 9 q 694 0 701 0 l 37 0 q 19 20 27 11 q 6 35 12 28 q 0 46 0 43 m 111 1009 q 127 1034 111 1014 q 168 1081 143 1053 q 221 1139 192 1108 q 277 1197 250 1170 q 325 1244 304 1225 q 352 1269 345 1264 q 385 1277 366 1276 q 426 1278 405 1278 q 456 1277 440 1278 q 487 1271 473 1276 q 510 1254 500 1265 q 519 1222 519 1243 q 503 1198 519 1217 q 463 1151 487 1178 q 409 1093 438 1124 q 353 1034 380 1061 q 306 987 326 1007 q 278 963 285 968 q 245 955 264 956 q 213 954 227 954 q 178 955 196 954 q 145 961 159 956 q 121 977 130 966 q 111 1009 111 988 z "},"":{"ha":961,"x_min":0,"x_max":741,"o":"m 0 46 q 15 79 0 67 q 46 102 29 92 q 78 124 64 112 q 93 157 93 136 l 93 796 q 78 825 93 814 q 46 848 64 837 q 15 873 29 859 q 0 907 0 886 q 5 919 0 911 q 16 934 9 926 q 31 948 23 942 q 46 954 39 954 l 694 954 q 709 949 701 954 q 724 937 718 944 q 736 922 731 930 q 741 907 741 914 l 741 685 q 736 668 741 675 q 724 656 731 661 q 709 650 718 652 q 694 648 701 648 q 656 663 676 648 q 616 699 636 677 q 576 745 596 720 q 538 792 557 770 q 503 828 519 814 q 472 842 486 842 l 370 842 q 355 838 363 842 q 340 826 347 833 q 329 811 334 819 q 324 796 324 803 l 324 583 q 329 570 324 576 q 340 558 334 563 q 355 550 347 553 q 370 547 363 547 q 403 559 391 547 q 425 588 415 572 q 445 616 434 604 q 472 629 455 629 q 492 625 482 629 q 510 613 503 620 q 523 598 518 606 q 528 583 528 590 l 528 370 q 523 355 528 363 q 511 340 518 347 q 496 329 505 334 q 481 324 488 324 q 454 330 465 324 q 436 346 444 336 q 421 366 428 355 q 407 386 414 376 q 388 401 399 395 q 361 408 377 408 q 351 404 357 408 q 339 396 345 401 q 329 384 333 391 q 324 370 324 377 l 324 157 q 329 142 324 151 q 340 127 334 134 q 355 116 347 121 q 370 111 363 111 l 481 111 q 505 126 491 111 q 537 162 519 140 q 574 209 554 183 q 615 255 594 234 q 656 291 635 277 q 694 306 676 306 q 709 302 701 306 q 724 293 718 299 q 736 278 731 287 q 741 259 741 269 l 741 46 q 736 31 741 39 q 724 16 731 23 q 709 5 718 9 q 694 0 701 0 l 37 0 q 19 20 27 11 q 6 35 12 28 q 0 46 0 43 m 111 1111 q 121 1136 111 1120 q 146 1171 131 1152 q 179 1208 161 1190 q 215 1243 198 1227 q 247 1268 233 1258 q 269 1278 262 1278 l 463 1278 q 485 1267 470 1278 q 519 1241 500 1257 q 557 1206 537 1225 q 592 1169 576 1187 q 619 1138 608 1152 q 629 1120 629 1125 q 625 1101 629 1110 q 613 1086 620 1093 q 598 1074 606 1079 q 583 1065 590 1068 l 537 1065 q 489 1072 509 1065 q 455 1089 469 1078 q 429 1111 440 1099 q 409 1134 418 1123 q 391 1151 400 1144 q 370 1158 382 1158 q 344 1151 354 1158 q 326 1134 334 1144 q 309 1111 317 1123 q 289 1089 301 1099 q 259 1072 277 1078 q 213 1065 241 1065 l 157 1065 q 142 1073 151 1068 q 127 1084 134 1078 q 116 1097 121 1090 q 111 1111 111 1104 z "},"":{"ha":961,"x_min":0,"x_max":741,"o":"m 0 46 q 15 79 0 67 q 46 102 29 92 q 78 124 64 112 q 93 157 93 136 l 93 796 q 78 825 93 814 q 46 848 64 837 q 15 873 29 859 q 0 907 0 886 q 5 919 0 911 q 16 934 9 926 q 31 948 23 942 q 46 954 39 954 l 694 954 q 709 949 701 954 q 724 937 718 944 q 736 922 731 930 q 741 907 741 914 l 741 685 q 736 668 741 675 q 724 656 731 661 q 709 650 718 652 q 694 648 701 648 q 656 663 676 648 q 616 699 636 677 q 576 745 596 720 q 538 792 557 770 q 503 828 519 814 q 472 842 486 842 l 370 842 q 355 838 363 842 q 340 826 347 833 q 329 811 334 819 q 324 796 324 803 l 324 583 q 329 570 324 576 q 340 558 334 563 q 355 550 347 553 q 370 547 363 547 q 403 559 391 547 q 425 588 415 572 q 445 616 434 604 q 472 629 455 629 q 492 625 482 629 q 510 613 503 620 q 523 598 518 606 q 528 583 528 590 l 528 370 q 523 355 528 363 q 511 340 518 347 q 496 329 505 334 q 481 324 488 324 q 454 330 465 324 q 436 346 444 336 q 421 366 428 355 q 407 386 414 376 q 388 401 399 395 q 361 408 377 408 q 351 404 357 408 q 339 396 345 401 q 329 384 333 391 q 324 370 324 377 l 324 157 q 329 142 324 151 q 340 127 334 134 q 355 116 347 121 q 370 111 363 111 l 481 111 q 505 126 491 111 q 537 162 519 140 q 574 209 554 183 q 615 255 594 234 q 656 291 635 277 q 694 306 676 306 q 709 302 701 306 q 724 293 718 299 q 736 278 731 287 q 741 259 741 269 l 741 46 q 736 31 741 39 q 724 16 731 23 q 709 5 718 9 q 694 0 701 0 l 37 0 q 19 20 27 11 q 6 35 12 28 q 0 46 0 43 m 0 1120 q 5 1132 0 1124 q 16 1147 9 1139 q 31 1161 23 1155 q 46 1166 39 1166 l 157 1166 q 172 1161 164 1166 q 187 1147 180 1155 q 199 1132 194 1139 q 203 1120 203 1124 q 199 1104 203 1114 q 187 1086 194 1095 q 172 1071 180 1077 q 157 1065 164 1065 l 46 1065 q 31 1071 39 1065 q 16 1086 23 1077 q 5 1104 9 1095 q 0 1120 0 1114 m 537 1111 q 539 1128 537 1118 q 546 1146 541 1137 q 557 1160 550 1154 q 574 1166 564 1166 l 694 1166 q 712 1162 705 1166 q 723 1150 719 1157 q 730 1135 728 1143 q 732 1120 732 1127 q 723 1088 732 1099 q 700 1072 713 1077 q 669 1066 686 1067 q 639 1065 653 1065 l 583 1065 q 568 1073 576 1068 q 553 1084 560 1078 q 542 1097 547 1090 q 537 1111 537 1104 z "},"":{"ha":961,"x_min":222,"x_max":629,"o":"m 222 46 q 235 79 222 67 q 264 100 248 91 q 293 120 280 110 q 306 148 306 131 l 306 796 q 293 825 306 814 q 264 848 280 837 q 235 873 248 859 q 222 907 222 886 q 224 922 222 914 q 230 937 226 930 q 242 949 235 944 q 259 954 249 954 l 583 954 q 598 949 590 954 q 613 937 606 944 q 625 922 620 930 q 629 907 629 914 q 623 883 629 894 q 606 864 616 873 q 583 848 595 856 q 561 833 571 841 q 544 817 551 825 q 537 796 537 808 l 537 157 q 544 134 537 144 q 561 117 551 124 q 583 103 571 109 q 606 90 595 97 q 623 75 616 83 q 629 56 629 67 q 628 39 629 49 q 622 21 626 30 q 610 6 617 12 q 593 0 603 0 l 259 0 q 242 5 249 0 q 230 16 235 9 q 224 31 226 23 q 222 46 222 39 m 222 1222 q 230 1254 222 1243 q 251 1271 238 1265 q 281 1277 264 1276 q 315 1278 298 1278 q 349 1270 329 1278 q 392 1249 370 1262 q 438 1220 415 1236 q 478 1186 460 1203 q 508 1151 496 1168 q 519 1120 519 1134 q 511 1088 519 1099 q 490 1072 503 1077 q 460 1066 477 1067 q 426 1065 444 1065 l 370 1065 q 350 1078 363 1067 q 319 1104 336 1088 q 286 1137 303 1119 q 255 1171 269 1154 q 232 1201 241 1187 q 222 1222 222 1215 z "},"":{"ha":961,"x_min":222,"x_max":629,"o":"m 222 46 q 235 79 222 67 q 264 100 248 91 q 293 120 280 110 q 306 148 306 131 l 306 796 q 293 825 306 814 q 264 848 280 837 q 235 873 248 859 q 222 907 222 886 q 224 922 222 914 q 230 937 226 930 q 242 949 235 944 q 259 954 249 954 l 583 954 q 598 949 590 954 q 613 937 606 944 q 625 922 620 930 q 629 907 629 914 q 623 883 629 894 q 606 864 616 873 q 583 848 595 856 q 561 833 571 841 q 544 817 551 825 q 537 796 537 808 l 537 157 q 544 134 537 144 q 561 117 551 124 q 583 103 571 109 q 606 90 595 97 q 623 75 616 83 q 629 56 629 67 q 628 39 629 49 q 622 21 626 30 q 610 6 617 12 q 593 0 603 0 l 259 0 q 242 5 249 0 q 230 16 235 9 q 224 31 226 23 q 222 46 222 39 m 324 1111 q 335 1146 324 1127 q 362 1183 345 1164 q 402 1219 380 1202 q 446 1249 424 1236 q 490 1270 469 1262 q 528 1278 511 1278 q 559 1277 542 1278 q 593 1271 577 1276 q 619 1254 608 1265 q 629 1222 629 1243 q 618 1191 629 1208 q 589 1157 607 1174 q 549 1123 571 1139 q 504 1093 526 1106 q 460 1073 481 1080 q 426 1065 439 1065 l 370 1065 q 355 1073 363 1068 q 340 1084 347 1078 q 329 1097 334 1090 q 324 1111 324 1104 z "},"":{"ha":961,"x_min":111,"x_max":732,"o":"m 222 46 q 235 79 222 67 q 264 100 248 91 q 293 120 280 110 q 306 148 306 131 l 306 796 q 293 825 306 814 q 264 848 280 837 q 235 873 248 859 q 222 907 222 886 q 224 922 222 914 q 230 937 226 930 q 242 949 235 944 q 259 954 249 954 l 583 954 q 598 949 590 954 q 613 937 606 944 q 625 922 620 930 q 629 907 629 914 q 623 883 629 894 q 606 864 616 873 q 583 848 595 856 q 561 833 571 841 q 544 817 551 825 q 537 796 537 808 l 537 157 q 544 134 537 144 q 561 117 551 124 q 583 103 571 109 q 606 90 595 97 q 623 75 616 83 q 629 56 629 67 q 628 39 629 49 q 622 21 626 30 q 610 6 617 12 q 593 0 603 0 l 259 0 q 242 5 249 0 q 230 16 235 9 q 224 31 226 23 q 222 46 222 39 m 111 1111 q 121 1136 111 1120 q 146 1171 131 1152 q 179 1208 161 1190 q 215 1243 198 1227 q 247 1268 233 1258 q 269 1278 262 1278 l 574 1278 q 599 1268 584 1278 q 631 1243 614 1258 q 667 1210 649 1228 q 699 1174 685 1191 q 723 1142 713 1156 q 732 1120 732 1127 q 723 1088 732 1099 q 700 1072 713 1077 q 669 1066 686 1067 q 639 1065 653 1065 l 583 1065 q 552 1079 565 1069 q 530 1099 540 1088 q 512 1123 520 1111 q 492 1144 503 1135 q 465 1160 480 1154 q 426 1166 449 1166 q 378 1159 398 1166 q 344 1140 359 1152 q 316 1116 329 1128 q 289 1091 303 1103 q 256 1072 274 1080 q 213 1065 238 1065 l 157 1065 q 142 1073 151 1068 q 127 1084 134 1078 q 116 1097 121 1090 q 111 1111 111 1104 z "},"":{"ha":961,"x_min":111,"x_max":732,"o":"m 222 46 q 235 79 222 67 q 264 100 248 91 q 293 120 280 110 q 306 148 306 131 l 306 796 q 293 825 306 814 q 264 848 280 837 q 235 873 248 859 q 222 907 222 886 q 224 922 222 914 q 230 937 226 930 q 242 949 235 944 q 259 954 249 954 l 583 954 q 598 949 590 954 q 613 937 606 944 q 625 922 620 930 q 629 907 629 914 q 623 883 629 894 q 606 864 616 873 q 583 848 595 856 q 561 833 571 841 q 544 817 551 825 q 537 796 537 808 l 537 157 q 544 134 537 144 q 561 117 551 124 q 583 103 571 109 q 606 90 595 97 q 623 75 616 83 q 629 56 629 67 q 628 39 629 49 q 622 21 626 30 q 610 6 617 12 q 593 0 603 0 l 259 0 q 242 5 249 0 q 230 16 235 9 q 224 31 226 23 q 222 46 222 39 m 111 1111 q 113 1128 111 1118 q 119 1146 115 1137 q 131 1160 123 1154 q 148 1166 138 1166 l 269 1166 q 282 1162 275 1166 q 294 1150 289 1157 q 302 1135 299 1143 q 306 1120 306 1127 q 298 1088 306 1099 q 277 1072 290 1077 q 247 1066 264 1067 q 213 1065 231 1065 l 157 1065 q 142 1073 151 1068 q 127 1084 134 1078 q 116 1097 121 1090 q 111 1111 111 1104 m 537 1111 q 539 1128 537 1118 q 546 1146 541 1137 q 557 1160 550 1154 q 574 1166 564 1166 l 694 1166 q 712 1162 705 1166 q 723 1150 719 1157 q 730 1135 728 1143 q 732 1120 732 1127 q 723 1088 732 1099 q 700 1072 713 1077 q 669 1066 686 1067 q 639 1065 653 1065 l 583 1065 q 568 1073 576 1068 q 553 1084 560 1078 q 542 1097 547 1090 q 537 1111 537 1104 z "},"":{"ha":961,"x_min":0,"x_max":741,"o":"m 0 46 q 15 79 0 67 q 46 102 29 92 q 78 124 64 112 q 93 157 93 136 l 93 481 q 86 501 93 493 q 69 516 79 509 q 46 529 58 523 q 24 543 35 535 q 7 560 14 550 q 0 583 0 570 q 15 616 0 604 q 46 637 29 628 q 78 657 64 647 q 93 685 93 668 l 93 907 q 86 927 93 919 q 69 942 79 935 q 46 955 58 949 q 24 968 35 961 q 7 986 14 976 q 0 1009 0 996 q 6 1029 0 1019 q 22 1047 12 1040 q 43 1060 32 1055 q 65 1065 55 1065 l 463 1065 q 480 1054 467 1065 q 514 1025 494 1043 q 559 985 534 1008 q 609 937 584 962 q 658 889 634 913 q 700 846 682 865 q 729 813 718 826 q 741 796 741 800 l 741 259 q 730 245 741 258 q 701 215 719 233 q 661 173 684 197 q 614 126 638 150 q 568 80 591 102 q 526 39 545 57 q 495 11 507 22 q 481 0 484 0 l 37 0 q 19 20 27 11 q 6 35 12 28 q 0 46 0 43 m 416 583 q 410 560 416 570 q 393 542 403 550 q 370 528 382 534 q 348 513 358 521 q 331 495 338 505 q 324 472 324 486 l 324 157 q 329 144 324 151 q 340 132 334 137 q 355 123 347 127 q 370 120 363 120 q 391 129 377 120 q 421 150 405 137 q 455 179 437 163 q 486 211 472 195 q 510 239 500 226 q 519 259 519 252 l 519 806 q 509 819 519 808 q 483 846 498 830 q 448 879 467 861 q 413 910 429 896 q 385 935 397 925 q 370 945 373 945 q 355 941 363 945 q 340 933 347 938 q 329 921 334 928 q 324 907 324 914 l 324 685 q 331 665 324 673 q 348 650 338 657 q 370 637 358 644 q 393 624 382 631 q 410 607 403 616 q 416 583 416 597 z "},"":{"ha":961,"x_min":0,"x_max":741,"o":"m 0 907 q 5 922 0 914 q 16 937 9 930 q 31 949 23 944 q 46 954 39 954 l 157 954 q 199 931 174 954 q 254 874 224 908 q 316 801 283 840 q 379 728 349 762 q 436 671 410 694 q 481 648 463 648 q 495 654 489 648 q 509 667 502 659 q 512 673 509 670 q 519 680 515 677 q 528 685 522 682 l 528 889 q 534 907 528 896 q 549 928 540 918 q 567 946 557 939 q 583 954 576 954 l 694 954 q 709 949 701 954 q 724 937 718 944 q 736 922 731 930 q 741 907 741 914 l 741 46 q 736 31 741 39 q 724 16 731 23 q 709 5 718 9 q 694 0 701 0 l 574 0 q 555 9 564 0 q 541 29 547 18 q 531 51 534 40 q 528 65 528 62 l 528 269 q 514 284 528 271 q 479 316 500 298 q 434 357 458 335 q 388 397 410 378 q 351 429 366 416 q 334 444 336 442 q 324 457 330 448 q 310 477 317 467 q 297 496 303 487 q 287 509 290 506 l 269 509 q 230 497 248 509 q 213 463 213 484 l 213 37 l 167 0 l 37 0 l 0 37 l 0 907 m 0 1120 q 11 1142 0 1127 q 37 1174 21 1156 q 73 1210 54 1191 q 111 1243 93 1228 q 145 1268 130 1258 q 167 1278 160 1278 l 361 1278 q 385 1271 375 1278 q 404 1254 395 1264 q 421 1232 413 1244 q 438 1209 429 1219 q 457 1192 447 1199 q 481 1185 468 1185 q 507 1192 496 1185 q 529 1209 518 1199 q 550 1232 539 1219 q 573 1254 560 1244 q 602 1271 586 1264 q 639 1278 618 1278 q 669 1277 653 1278 q 700 1271 686 1276 q 723 1254 713 1265 q 732 1222 732 1243 q 723 1204 732 1217 q 699 1173 713 1191 q 668 1137 685 1156 q 634 1102 650 1118 q 604 1075 618 1086 q 583 1065 590 1065 l 370 1065 q 341 1079 353 1065 q 319 1111 330 1094 q 298 1143 309 1128 q 269 1158 286 1158 q 234 1143 248 1158 q 209 1111 220 1128 q 186 1079 198 1094 q 157 1065 175 1065 l 46 1065 q 31 1071 39 1065 q 16 1086 23 1077 q 5 1104 9 1095 q 0 1120 0 1114 z "},"":{"ha":961,"x_min":0,"x_max":741,"o":"m 130 9 q 110 24 123 14 q 83 47 98 35 q 54 75 69 60 q 27 103 39 90 q 8 129 16 117 q 0 148 0 141 l 0 806 q 11 826 0 812 q 37 857 21 840 q 72 890 53 873 q 109 921 91 907 q 139 944 126 935 q 157 954 153 954 l 583 954 q 601 943 588 954 q 632 917 614 932 q 669 882 650 901 q 704 845 688 863 q 730 814 720 827 q 741 796 741 801 l 741 157 q 670 79 701 113 q 644 50 656 64 q 620 25 631 36 q 602 7 609 14 q 593 0 595 0 l 148 0 l 130 9 m 519 806 q 499 824 508 816 q 483 837 491 831 q 472 842 475 842 l 269 842 q 248 836 258 842 q 230 821 238 830 q 218 800 222 811 q 213 778 213 788 l 213 167 q 218 154 213 163 q 229 136 222 145 q 244 119 236 126 q 259 111 252 111 l 481 111 l 519 148 l 519 806 m 222 1222 q 230 1254 222 1243 q 251 1271 238 1265 q 281 1277 264 1276 q 315 1278 298 1278 q 349 1270 329 1278 q 392 1249 370 1262 q 438 1220 415 1236 q 478 1186 460 1203 q 508 1151 496 1168 q 519 1120 519 1134 q 511 1088 519 1099 q 490 1072 503 1077 q 460 1066 477 1067 q 426 1065 444 1065 l 370 1065 q 350 1078 363 1067 q 319 1104 336 1088 q 286 1137 303 1119 q 255 1171 269 1154 q 232 1201 241 1187 q 222 1222 222 1215 z "},"":{"ha":961,"x_min":0,"x_max":741,"o":"m 130 9 q 110 24 123 14 q 83 47 98 35 q 54 75 69 60 q 27 103 39 90 q 8 129 16 117 q 0 148 0 141 l 0 806 q 11 826 0 812 q 37 857 21 840 q 72 890 53 873 q 109 921 91 907 q 139 944 126 935 q 157 954 153 954 l 583 954 q 601 943 588 954 q 632 917 614 932 q 669 882 650 901 q 704 845 688 863 q 730 814 720 827 q 741 796 741 801 l 741 157 q 670 79 701 113 q 644 50 656 64 q 620 25 631 36 q 602 7 609 14 q 593 0 595 0 l 148 0 l 130 9 m 519 806 q 499 824 508 816 q 483 837 491 831 q 472 842 475 842 l 269 842 q 248 836 258 842 q 230 821 238 830 q 218 800 222 811 q 213 778 213 788 l 213 167 q 218 154 213 163 q 229 136 222 145 q 244 119 236 126 q 259 111 252 111 l 481 111 l 519 148 l 519 806 m 222 1120 q 233 1155 222 1137 q 261 1190 243 1173 q 300 1223 278 1208 q 344 1251 321 1239 q 388 1271 367 1263 q 426 1278 410 1278 q 456 1277 440 1278 q 487 1271 473 1276 q 510 1254 500 1265 q 519 1222 519 1243 q 510 1204 519 1217 q 486 1173 500 1191 q 455 1137 472 1156 q 421 1102 437 1118 q 391 1075 405 1086 q 370 1065 377 1065 l 259 1065 q 242 1069 249 1065 q 230 1082 235 1074 q 224 1100 226 1090 q 222 1120 222 1110 z "},"":{"ha":961,"x_min":0,"x_max":741,"o":"m 130 9 q 110 24 123 14 q 83 47 98 35 q 54 75 69 60 q 27 103 39 90 q 8 129 16 117 q 0 148 0 141 l 0 806 q 11 826 0 812 q 37 857 21 840 q 72 890 53 873 q 109 921 91 907 q 139 944 126 935 q 157 954 153 954 l 583 954 q 601 943 588 954 q 632 917 614 932 q 669 882 650 901 q 704 845 688 863 q 730 814 720 827 q 741 796 741 801 l 741 157 q 670 79 701 113 q 644 50 656 64 q 620 25 631 36 q 602 7 609 14 q 593 0 595 0 l 148 0 l 130 9 m 519 806 q 499 824 508 816 q 483 837 491 831 q 472 842 475 842 l 269 842 q 248 836 258 842 q 230 821 238 830 q 218 800 222 811 q 213 778 213 788 l 213 167 q 218 154 213 163 q 229 136 222 145 q 244 119 236 126 q 259 111 252 111 l 481 111 l 519 148 l 519 806 m 111 1111 q 121 1136 111 1120 q 146 1171 131 1152 q 179 1208 161 1190 q 215 1243 198 1227 q 247 1268 233 1258 q 269 1278 262 1278 l 463 1278 q 485 1267 470 1278 q 519 1241 500 1257 q 557 1206 537 1225 q 592 1169 576 1187 q 619 1138 608 1152 q 629 1120 629 1125 q 625 1101 629 1110 q 613 1086 620 1093 q 598 1074 606 1079 q 583 1065 590 1068 l 537 1065 q 489 1072 509 1065 q 455 1089 469 1078 q 429 1111 440 1099 q 409 1134 418 1123 q 391 1151 400 1144 q 370 1158 382 1158 q 344 1151 354 1158 q 326 1134 334 1144 q 309 1111 317 1123 q 289 1089 301 1099 q 259 1072 277 1078 q 213 1065 241 1065 l 157 1065 q 142 1073 151 1068 q 127 1084 134 1078 q 116 1097 121 1090 q 111 1111 111 1104 z "},"":{"ha":961,"x_min":0,"x_max":741,"o":"m 130 9 q 110 24 123 14 q 83 47 98 35 q 54 75 69 60 q 27 103 39 90 q 8 129 16 117 q 0 148 0 141 l 0 806 q 11 826 0 812 q 37 857 21 840 q 72 890 53 873 q 109 921 91 907 q 139 944 126 935 q 157 954 153 954 l 583 954 q 601 943 588 954 q 632 917 614 932 q 669 882 650 901 q 704 845 688 863 q 730 814 720 827 q 741 796 741 801 l 741 157 q 670 79 701 113 q 644 50 656 64 q 620 25 631 36 q 602 7 609 14 q 593 0 595 0 l 148 0 l 130 9 m 519 806 q 499 824 508 816 q 483 837 491 831 q 472 842 475 842 l 269 842 q 248 836 258 842 q 230 821 238 830 q 218 800 222 811 q 213 778 213 788 l 213 167 q 218 154 213 163 q 229 136 222 145 q 244 119 236 126 q 259 111 252 111 l 481 111 l 519 148 l 519 806 m 0 1120 q 11 1142 0 1127 q 37 1174 21 1156 q 73 1210 54 1191 q 111 1243 93 1228 q 145 1268 130 1258 q 167 1278 160 1278 l 361 1278 q 385 1271 375 1278 q 404 1254 395 1264 q 421 1232 413 1244 q 438 1209 429 1219 q 457 1192 447 1199 q 481 1185 468 1185 q 507 1192 496 1185 q 529 1209 518 1199 q 550 1232 539 1219 q 573 1254 560 1244 q 602 1271 586 1264 q 639 1278 618 1278 q 669 1277 653 1278 q 700 1271 686 1276 q 723 1254 713 1265 q 732 1222 732 1243 q 723 1204 732 1217 q 699 1173 713 1191 q 668 1137 685 1156 q 634 1102 650 1118 q 604 1075 618 1086 q 583 1065 590 1065 l 370 1065 q 341 1079 353 1065 q 319 1111 330 1094 q 298 1143 309 1128 q 269 1158 286 1158 q 234 1143 248 1158 q 209 1111 220 1128 q 186 1079 198 1094 q 157 1065 175 1065 l 46 1065 q 31 1071 39 1065 q 16 1086 23 1077 q 5 1104 9 1095 q 0 1120 0 1114 z "},"":{"ha":961,"x_min":0,"x_max":741,"o":"m 130 9 q 110 24 123 14 q 83 47 98 35 q 54 75 69 60 q 27 103 39 90 q 8 129 16 117 q 0 148 0 141 l 0 806 q 11 826 0 812 q 37 857 21 840 q 72 890 53 873 q 109 921 91 907 q 139 944 126 935 q 157 954 153 954 l 583 954 q 601 943 588 954 q 632 917 614 932 q 669 882 650 901 q 704 845 688 863 q 730 814 720 827 q 741 796 741 801 l 741 157 q 670 79 701 113 q 644 50 656 64 q 620 25 631 36 q 602 7 609 14 q 593 0 595 0 l 148 0 l 130 9 m 519 806 q 499 824 508 816 q 483 837 491 831 q 472 842 475 842 l 269 842 q 248 836 258 842 q 230 821 238 830 q 218 800 222 811 q 213 778 213 788 l 213 167 q 218 154 213 163 q 229 136 222 145 q 244 119 236 126 q 259 111 252 111 l 481 111 l 519 148 l 519 806 m 0 1120 q 5 1132 0 1124 q 16 1147 9 1139 q 31 1161 23 1155 q 46 1166 39 1166 l 157 1166 q 172 1161 164 1166 q 187 1147 180 1155 q 199 1132 194 1139 q 203 1120 203 1124 q 199 1104 203 1114 q 187 1086 194 1095 q 172 1071 180 1077 q 157 1065 164 1065 l 46 1065 q 31 1071 39 1065 q 16 1086 23 1077 q 5 1104 9 1095 q 0 1120 0 1114 m 537 1111 q 539 1128 537 1118 q 546 1146 541 1137 q 557 1160 550 1154 q 574 1166 564 1166 l 694 1166 q 712 1162 705 1166 q 723 1150 719 1157 q 730 1135 728 1143 q 732 1120 732 1127 q 723 1088 732 1099 q 700 1072 713 1077 q 669 1066 686 1067 q 639 1065 653 1065 l 583 1065 q 568 1073 576 1068 q 553 1084 560 1078 q 542 1097 547 1090 q 537 1111 537 1104 z "},"":{"ha":961,"x_min":0,"x_max":732,"o":"m 0 157 q 15 194 0 176 q 53 231 30 212 q 102 271 75 250 q 151 315 128 292 q 189 366 174 339 q 203 426 203 393 q 189 482 203 456 q 151 531 174 508 q 102 574 128 553 q 53 614 75 595 q 15 654 30 634 q 0 694 0 673 q 5 706 0 698 q 16 721 9 713 q 31 735 23 729 q 46 741 39 741 l 157 741 q 189 726 172 741 q 225 690 206 712 q 264 644 244 669 q 302 597 283 618 q 339 561 321 575 q 370 547 357 547 q 410 561 391 547 q 446 597 429 575 q 480 644 464 618 q 514 690 497 669 q 548 726 530 712 q 583 741 565 741 l 694 741 q 712 736 705 741 q 723 724 719 731 q 730 709 728 718 q 732 694 732 701 q 717 656 732 676 q 681 616 703 636 q 634 576 660 596 q 588 538 609 557 q 552 503 566 519 q 537 472 537 486 l 537 370 q 552 342 537 359 q 588 307 566 326 q 634 268 609 288 q 681 227 660 247 q 717 190 703 208 q 732 157 732 172 q 724 125 732 136 q 703 109 715 114 q 673 103 690 104 q 639 102 656 102 q 580 116 606 102 q 530 152 553 131 q 487 199 507 174 q 448 246 467 224 q 410 282 429 267 q 370 296 391 296 q 330 282 349 296 q 292 246 311 267 q 253 199 273 224 q 210 152 233 174 q 161 116 187 131 q 102 102 134 102 q 71 103 88 102 q 37 109 53 104 q 11 125 22 114 q 0 157 0 136 z "},"":{"ha":961,"x_min":0,"x_max":741,"o":"m 583 1158 q 614 1148 602 1158 q 633 1125 626 1139 q 644 1093 640 1111 q 648 1057 647 1075 q 649 1024 649 1040 q 648 1000 648 1009 q 670 982 655 994 q 701 957 686 970 q 729 931 717 944 q 741 907 741 918 l 741 157 q 732 141 741 153 q 711 115 724 130 q 683 83 699 100 q 653 52 667 66 q 627 26 638 37 q 611 9 616 14 q 598 5 604 9 q 593 0 595 3 l 278 0 q 243 -16 257 0 q 218 -51 230 -32 q 192 -86 205 -70 q 157 -102 178 -102 q 125 -92 136 -102 q 107 -67 113 -82 q 99 -33 101 -52 q 96 5 98 -14 q 93 40 95 24 q 83 65 90 56 q 63 81 77 72 q 35 100 49 90 q 11 122 21 110 q 0 148 0 134 l 0 907 q 11 929 0 914 q 37 963 21 945 q 73 1001 54 981 q 111 1037 93 1021 q 145 1064 130 1053 q 167 1074 160 1074 l 481 1074 q 501 1080 493 1074 q 516 1096 509 1086 q 529 1116 523 1105 q 543 1136 535 1126 q 560 1152 550 1145 q 583 1158 570 1158 m 463 732 q 434 719 442 732 q 426 685 426 706 l 426 361 q 417 355 420 358 q 411 349 414 353 q 408 342 408 346 q 387 330 401 336 q 359 319 372 325 q 335 309 345 314 q 324 296 324 303 l 324 157 q 329 142 324 151 q 340 127 334 134 q 355 116 347 121 q 370 111 363 111 l 481 111 l 519 148 l 519 694 q 513 712 519 705 q 498 723 507 719 q 479 730 489 728 q 463 732 470 732 m 287 324 q 301 326 294 324 q 311 329 307 327 q 315 334 315 330 l 315 676 q 322 703 315 692 q 341 721 330 713 q 366 734 353 728 q 390 745 378 739 q 409 759 401 751 q 416 778 416 766 l 416 898 q 411 909 416 901 q 398 925 406 917 q 380 945 390 934 l 250 945 q 237 939 243 945 q 224 924 230 932 q 216 905 219 915 q 213 889 213 896 l 213 389 q 219 363 213 375 q 236 343 226 351 q 260 329 247 334 q 287 324 273 324 z "},"":{"ha":961,"x_min":0,"x_max":741,"o":"m 528 148 l 528 889 q 534 907 528 896 q 549 928 540 918 q 567 946 557 939 q 583 954 576 954 l 694 954 q 709 949 701 954 q 724 937 718 944 q 736 922 731 930 q 741 907 741 914 l 741 157 q 670 79 701 113 q 644 50 656 64 q 620 25 631 36 q 602 7 609 14 q 593 0 595 0 l 148 0 q 131 10 143 0 q 101 34 118 20 q 67 67 85 49 q 34 101 49 85 q 10 131 20 118 q 0 148 0 143 l 0 907 q 5 922 0 914 q 16 937 9 930 q 31 949 23 944 q 46 954 39 954 l 157 954 l 176 945 q 185 937 179 941 q 198 927 192 932 q 213 917 205 922 l 213 167 q 218 154 213 163 q 229 136 222 145 q 244 119 236 126 q 259 111 252 111 l 481 111 l 528 148 m 222 1222 q 230 1254 222 1243 q 251 1271 238 1265 q 281 1277 264 1276 q 315 1278 298 1278 q 349 1270 329 1278 q 392 1249 370 1262 q 438 1220 415 1236 q 478 1186 460 1203 q 508 1151 496 1168 q 519 1120 519 1134 q 511 1088 519 1099 q 490 1072 503 1077 q 460 1066 477 1067 q 426 1065 444 1065 l 370 1065 q 350 1078 363 1067 q 319 1104 336 1088 q 286 1137 303 1119 q 255 1171 269 1154 q 232 1201 241 1187 q 222 1222 222 1215 z "},"":{"ha":961,"x_min":0,"x_max":741,"o":"m 528 148 l 528 889 q 534 907 528 896 q 549 928 540 918 q 567 946 557 939 q 583 954 576 954 l 694 954 q 709 949 701 954 q 724 937 718 944 q 736 922 731 930 q 741 907 741 914 l 741 157 q 670 79 701 113 q 644 50 656 64 q 620 25 631 36 q 602 7 609 14 q 593 0 595 0 l 148 0 q 131 10 143 0 q 101 34 118 20 q 67 67 85 49 q 34 101 49 85 q 10 131 20 118 q 0 148 0 143 l 0 907 q 5 922 0 914 q 16 937 9 930 q 31 949 23 944 q 46 954 39 954 l 157 954 l 176 945 q 185 937 179 941 q 198 927 192 932 q 213 917 205 922 l 213 167 q 218 154 213 163 q 229 136 222 145 q 244 119 236 126 q 259 111 252 111 l 481 111 l 528 148 m 222 1120 q 233 1155 222 1137 q 261 1190 243 1173 q 300 1223 278 1208 q 344 1251 321 1239 q 388 1271 367 1263 q 426 1278 410 1278 q 456 1277 440 1278 q 487 1271 473 1276 q 510 1254 500 1265 q 519 1222 519 1243 q 510 1204 519 1217 q 486 1173 500 1191 q 455 1137 472 1156 q 421 1102 437 1118 q 391 1075 405 1086 q 370 1065 377 1065 l 259 1065 q 242 1069 249 1065 q 230 1082 235 1074 q 224 1100 226 1090 q 222 1120 222 1110 z "},"":{"ha":961,"x_min":0,"x_max":741,"o":"m 528 148 l 528 889 q 534 907 528 896 q 549 928 540 918 q 567 946 557 939 q 583 954 576 954 l 694 954 q 709 949 701 954 q 724 937 718 944 q 736 922 731 930 q 741 907 741 914 l 741 157 q 670 79 701 113 q 644 50 656 64 q 620 25 631 36 q 602 7 609 14 q 593 0 595 0 l 148 0 q 131 10 143 0 q 101 34 118 20 q 67 67 85 49 q 34 101 49 85 q 10 131 20 118 q 0 148 0 143 l 0 907 q 5 922 0 914 q 16 937 9 930 q 31 949 23 944 q 46 954 39 954 l 157 954 l 176 945 q 185 937 179 941 q 198 927 192 932 q 213 917 205 922 l 213 167 q 218 154 213 163 q 229 136 222 145 q 244 119 236 126 q 259 111 252 111 l 481 111 l 528 148 m 111 1111 q 121 1136 111 1120 q 146 1171 131 1152 q 179 1208 161 1190 q 215 1243 198 1227 q 247 1268 233 1258 q 269 1278 262 1278 l 463 1278 q 485 1267 470 1278 q 519 1241 500 1257 q 557 1206 537 1225 q 592 1169 576 1187 q 619 1138 608 1152 q 629 1120 629 1125 q 625 1101 629 1110 q 613 1086 620 1093 q 598 1074 606 1079 q 583 1065 590 1068 l 537 1065 q 489 1072 509 1065 q 455 1089 469 1078 q 429 1111 440 1099 q 409 1134 418 1123 q 391 1151 400 1144 q 370 1158 382 1158 q 344 1151 354 1158 q 326 1134 334 1144 q 309 1111 317 1123 q 289 1089 301 1099 q 259 1072 277 1078 q 213 1065 241 1065 l 157 1065 q 142 1073 151 1068 q 127 1084 134 1078 q 116 1097 121 1090 q 111 1111 111 1104 z "},"":{"ha":961,"x_min":0,"x_max":741,"o":"m 528 148 l 528 889 q 534 907 528 896 q 549 928 540 918 q 567 946 557 939 q 583 954 576 954 l 694 954 q 709 949 701 954 q 724 937 718 944 q 736 922 731 930 q 741 907 741 914 l 741 157 q 670 79 701 113 q 644 50 656 64 q 620 25 631 36 q 602 7 609 14 q 593 0 595 0 l 148 0 q 131 10 143 0 q 101 34 118 20 q 67 67 85 49 q 34 101 49 85 q 10 131 20 118 q 0 148 0 143 l 0 907 q 5 922 0 914 q 16 937 9 930 q 31 949 23 944 q 46 954 39 954 l 157 954 l 176 945 q 185 937 179 941 q 198 927 192 932 q 213 917 205 922 l 213 167 q 218 154 213 163 q 229 136 222 145 q 244 119 236 126 q 259 111 252 111 l 481 111 l 528 148 m 0 1120 q 5 1132 0 1124 q 16 1147 9 1139 q 31 1161 23 1155 q 46 1166 39 1166 l 157 1166 q 172 1161 164 1166 q 187 1147 180 1155 q 199 1132 194 1139 q 203 1120 203 1124 q 199 1104 203 1114 q 187 1086 194 1095 q 172 1071 180 1077 q 157 1065 164 1065 l 46 1065 q 31 1071 39 1065 q 16 1086 23 1077 q 5 1104 9 1095 q 0 1120 0 1114 m 537 1111 q 539 1128 537 1118 q 546 1146 541 1137 q 557 1160 550 1154 q 574 1166 564 1166 l 694 1166 q 712 1162 705 1166 q 723 1150 719 1157 q 730 1135 728 1143 q 732 1120 732 1127 q 723 1088 732 1099 q 700 1072 713 1077 q 669 1066 686 1067 q 639 1065 653 1065 l 583 1065 q 568 1073 576 1068 q 553 1084 560 1078 q 542 1097 547 1090 q 537 1111 537 1104 z "},"":{"ha":961,"x_min":0,"x_max":852,"o":"m 222 46 q 235 79 222 67 q 264 100 248 91 q 293 120 280 110 q 306 148 306 131 l 306 481 q 293 502 306 487 q 258 537 279 516 q 209 583 237 558 q 153 634 182 608 q 97 686 124 661 q 48 732 69 711 q 13 767 26 753 q 0 787 0 782 l 0 1019 q 14 1045 0 1036 q 45 1059 27 1055 q 82 1064 64 1063 q 111 1065 101 1065 q 135 1063 118 1065 q 169 1056 152 1061 q 200 1041 186 1050 q 213 1019 213 1032 l 213 814 q 223 796 213 810 q 249 763 233 782 q 283 724 265 745 q 318 687 302 704 q 347 660 335 671 q 361 648 359 648 l 481 648 q 503 658 488 648 q 535 683 517 668 q 571 716 552 698 q 604 752 589 735 q 629 784 619 770 q 639 806 639 799 l 639 1009 q 651 1038 639 1027 q 681 1055 663 1048 q 717 1063 698 1061 q 750 1065 736 1065 q 809 1053 788 1065 q 839 1021 829 1042 q 850 971 848 1000 q 852 907 852 942 l 852 814 q 819 760 845 791 q 758 695 793 729 q 684 626 723 661 q 612 561 645 591 q 558 507 580 531 q 537 472 537 484 l 537 157 q 544 134 537 144 q 561 117 551 124 q 583 103 571 109 q 606 90 595 97 q 623 75 616 83 q 629 56 629 67 q 628 39 629 49 q 622 21 626 30 q 610 6 617 12 q 593 0 603 0 l 259 0 q 242 5 249 0 q 230 16 235 9 q 224 31 226 23 q 222 46 222 39 m 324 1111 q 335 1146 324 1127 q 362 1183 345 1164 q 402 1219 380 1202 q 446 1249 424 1236 q 490 1270 469 1262 q 528 1278 511 1278 q 559 1277 542 1278 q 593 1271 577 1276 q 619 1254 608 1265 q 629 1222 629 1243 q 618 1191 629 1208 q 589 1157 607 1174 q 549 1123 571 1139 q 504 1093 526 1106 q 460 1073 481 1080 q 426 1065 439 1065 l 370 1065 q 355 1073 363 1068 q 340 1084 347 1078 q 329 1097 334 1090 q 324 1111 324 1104 z "},"":{"ha":961,"x_min":0,"x_max":741,"o":"m 0 46 q 15 79 0 67 q 46 102 29 92 q 78 124 64 112 q 93 157 93 136 l 93 907 q 86 927 93 919 q 69 942 79 935 q 46 955 58 949 q 24 968 35 961 q 7 986 14 976 q 0 1009 0 996 q 6 1029 0 1019 q 22 1047 12 1040 q 43 1060 32 1055 q 65 1065 55 1065 l 361 1065 q 381 1060 371 1065 q 399 1047 391 1055 q 412 1029 407 1040 q 416 1009 416 1019 q 410 986 416 996 q 395 970 404 977 q 375 957 386 963 q 355 943 364 951 q 340 925 346 936 q 334 898 334 914 q 334 888 334 895 q 337 876 334 882 q 345 866 340 870 q 361 861 351 861 l 565 861 q 588 850 572 861 q 623 822 604 839 q 663 785 642 805 q 701 746 684 764 q 729 713 718 727 q 741 694 741 699 l 741 370 q 726 344 741 360 q 692 310 711 328 q 655 277 673 293 q 629 250 637 260 q 620 240 626 247 q 608 228 614 234 q 593 213 601 221 l 380 213 q 361 207 370 213 q 347 192 353 201 q 337 174 340 183 q 334 157 334 164 q 347 124 334 136 q 375 102 359 112 q 404 79 391 92 q 416 46 416 67 l 416 37 q 407 27 413 34 q 395 15 401 21 q 380 0 388 8 l 37 0 q 19 20 27 11 q 6 35 12 28 q 0 46 0 43 m 352 334 l 370 324 l 472 324 q 483 330 475 324 q 499 342 491 336 q 519 361 508 351 l 519 694 q 514 704 519 698 q 504 717 510 711 q 491 727 498 723 q 481 732 485 732 l 361 732 q 342 712 351 721 q 330 696 336 704 q 324 685 324 688 l 324 370 q 327 362 324 367 q 335 352 330 357 q 344 342 339 347 q 352 334 349 337 z "},"":{"ha":961,"x_min":0,"x_max":741,"o":"m 0 907 q 11 929 0 914 q 37 961 21 943 q 73 997 54 978 q 111 1030 93 1015 q 145 1055 130 1045 q 167 1065 160 1065 l 463 1065 q 487 1056 473 1065 q 518 1033 502 1046 q 553 1001 535 1019 q 586 968 571 984 q 613 938 602 951 q 629 917 625 924 q 639 888 637 907 q 642 850 642 869 q 640 815 642 831 q 639 796 639 800 q 632 730 639 757 q 615 684 625 703 q 593 652 605 665 q 570 628 581 639 q 553 608 560 618 q 547 583 547 597 q 561 552 547 570 q 597 515 575 534 q 644 477 618 496 q 690 438 669 457 q 726 402 712 419 q 741 370 741 385 l 741 157 q 670 79 701 113 q 644 50 656 64 q 620 25 631 36 q 602 7 609 14 q 593 0 595 0 l 472 0 q 455 5 462 0 q 443 16 448 9 q 437 31 439 23 q 435 46 435 39 q 448 79 435 67 q 477 100 461 91 q 506 120 493 110 q 519 148 519 131 l 519 370 q 504 398 519 382 q 468 433 490 414 q 421 473 447 452 q 375 513 396 494 q 339 551 353 533 q 324 583 324 570 q 331 607 324 597 q 348 624 338 616 q 370 639 358 632 q 393 653 382 646 q 410 671 403 661 q 416 694 416 681 l 416 898 q 411 909 416 901 q 398 925 406 917 q 380 945 390 934 l 250 945 q 240 937 247 945 q 228 920 234 930 q 217 902 222 911 q 213 889 213 892 l 213 37 l 167 0 l 37 0 l 0 37 l 0 907 z "},"":{"ha":961,"x_min":0,"x_max":732,"o":"m 408 574 q 404 596 408 585 q 395 617 401 607 q 380 633 389 627 q 361 639 371 639 l 157 639 q 124 656 136 639 q 111 694 111 673 q 115 709 111 701 q 124 724 118 718 q 139 736 130 731 q 157 741 147 741 l 472 741 q 498 731 481 741 q 534 705 515 721 q 574 670 554 690 q 611 631 595 650 q 638 594 627 612 q 648 565 648 576 l 648 148 q 661 120 648 131 q 690 100 674 110 q 719 79 706 91 q 732 46 732 67 q 728 31 732 39 q 720 16 725 23 q 708 5 715 9 q 694 0 701 0 l 574 0 q 545 15 557 0 q 521 46 533 29 q 493 78 509 64 q 454 93 478 93 q 436 86 442 93 q 426 69 430 79 q 420 46 422 58 q 413 24 418 35 q 401 7 409 14 q 380 0 394 0 l 148 0 q 131 10 143 0 q 101 34 118 20 q 67 67 85 49 q 34 101 49 85 q 10 131 20 118 q 0 148 0 143 l 0 380 q 13 401 0 387 q 44 431 26 415 q 78 460 61 446 q 102 481 95 475 l 139 519 l 157 537 l 370 537 q 384 542 377 537 q 396 552 391 546 q 404 565 401 558 q 408 574 408 571 m 315 416 q 283 414 301 416 q 250 405 266 412 q 224 386 235 398 q 213 352 213 373 l 213 167 q 218 154 213 163 q 229 136 222 145 q 244 119 236 126 q 259 111 252 111 l 398 111 l 416 130 l 416 361 q 406 393 416 382 q 380 409 395 404 q 347 415 364 414 q 315 416 329 416 m 111 1111 q 113 1128 111 1118 q 119 1146 115 1137 q 131 1160 123 1154 q 148 1166 138 1166 l 269 1166 q 284 1156 272 1166 q 315 1128 297 1145 q 356 1089 334 1112 q 400 1044 378 1067 q 445 998 423 1021 q 483 956 466 975 q 509 924 499 937 q 519 907 519 911 q 511 875 519 886 q 490 859 503 864 q 460 853 477 854 q 426 852 444 852 l 370 852 q 354 865 367 854 q 322 895 341 877 q 280 936 303 913 q 234 982 257 958 q 188 1027 210 1005 q 149 1068 166 1050 q 122 1098 132 1086 q 111 1111 111 1109 z "},"":{"ha":961,"x_min":0,"x_max":732,"o":"m 408 574 q 404 596 408 585 q 395 617 401 607 q 380 633 389 627 q 361 639 371 639 l 157 639 q 124 656 136 639 q 111 694 111 673 q 115 709 111 701 q 124 724 118 718 q 139 736 130 731 q 157 741 147 741 l 472 741 q 498 731 481 741 q 534 705 515 721 q 574 670 554 690 q 611 631 595 650 q 638 594 627 612 q 648 565 648 576 l 648 148 q 661 120 648 131 q 690 100 674 110 q 719 79 706 91 q 732 46 732 67 q 728 31 732 39 q 720 16 725 23 q 708 5 715 9 q 694 0 701 0 l 574 0 q 545 15 557 0 q 521 46 533 29 q 493 78 509 64 q 454 93 478 93 q 436 86 442 93 q 426 69 430 79 q 420 46 422 58 q 413 24 418 35 q 401 7 409 14 q 380 0 394 0 l 148 0 q 131 10 143 0 q 101 34 118 20 q 67 67 85 49 q 34 101 49 85 q 10 131 20 118 q 0 148 0 143 l 0 380 q 13 401 0 387 q 44 431 26 415 q 78 460 61 446 q 102 481 95 475 l 139 519 l 157 537 l 370 537 q 384 542 377 537 q 396 552 391 546 q 404 565 401 558 q 408 574 408 571 m 315 416 q 283 414 301 416 q 250 405 266 412 q 224 386 235 398 q 213 352 213 373 l 213 167 q 218 154 213 163 q 229 136 222 145 q 244 119 236 126 q 259 111 252 111 l 398 111 l 416 130 l 416 361 q 406 393 416 382 q 380 409 395 404 q 347 415 364 414 q 315 416 329 416 m 111 907 q 121 921 111 909 q 148 952 131 933 q 185 994 164 970 q 229 1040 207 1017 q 274 1087 252 1064 q 314 1127 296 1109 q 345 1156 332 1145 q 361 1166 357 1166 l 481 1166 q 495 1162 488 1166 q 507 1150 502 1157 q 515 1135 512 1143 q 519 1120 519 1127 q 500 1078 519 1104 q 452 1022 481 1052 q 387 962 422 992 q 317 907 351 931 q 255 867 283 882 q 213 852 227 852 q 178 853 196 852 q 145 859 159 854 q 121 875 130 864 q 111 907 111 886 z "},"":{"ha":961,"x_min":0,"x_max":732,"o":"m 408 574 q 404 596 408 585 q 395 617 401 607 q 380 633 389 627 q 361 639 371 639 l 157 639 q 124 656 136 639 q 111 694 111 673 q 115 709 111 701 q 124 724 118 718 q 139 736 130 731 q 157 741 147 741 l 472 741 q 498 731 481 741 q 534 705 515 721 q 574 670 554 690 q 611 631 595 650 q 638 594 627 612 q 648 565 648 576 l 648 148 q 661 120 648 131 q 690 100 674 110 q 719 79 706 91 q 732 46 732 67 q 728 31 732 39 q 720 16 725 23 q 708 5 715 9 q 694 0 701 0 l 574 0 q 545 15 557 0 q 521 46 533 29 q 493 78 509 64 q 454 93 478 93 q 436 86 442 93 q 426 69 430 79 q 420 46 422 58 q 413 24 418 35 q 401 7 409 14 q 380 0 394 0 l 148 0 q 131 10 143 0 q 101 34 118 20 q 67 67 85 49 q 34 101 49 85 q 10 131 20 118 q 0 148 0 143 l 0 380 q 13 401 0 387 q 44 431 26 415 q 78 460 61 446 q 102 481 95 475 l 139 519 l 157 537 l 370 537 q 384 542 377 537 q 396 552 391 546 q 404 565 401 558 q 408 574 408 571 m 315 416 q 283 414 301 416 q 250 405 266 412 q 224 386 235 398 q 213 352 213 373 l 213 167 q 218 154 213 163 q 229 136 222 145 q 244 119 236 126 q 259 111 252 111 l 398 111 l 416 130 l 416 361 q 406 393 416 382 q 380 409 395 404 q 347 415 364 414 q 315 416 329 416 m 111 907 q 129 932 111 912 q 172 981 146 953 q 230 1040 199 1008 q 291 1097 262 1071 q 341 1140 319 1123 q 370 1158 363 1158 q 387 1147 374 1158 q 418 1120 399 1137 q 460 1081 437 1103 q 507 1036 484 1059 q 552 991 530 1013 q 591 950 574 968 q 619 921 608 932 q 629 907 629 909 q 625 887 629 897 q 613 869 620 877 q 598 857 606 861 q 583 852 590 852 l 472 852 q 443 866 455 852 q 421 898 431 881 q 399 930 411 916 q 370 945 388 945 q 347 938 357 945 q 327 921 336 931 q 309 898 318 910 q 287 876 300 886 q 256 859 274 865 q 213 852 239 852 q 178 853 196 852 q 145 859 159 854 q 121 875 130 864 q 111 907 111 886 z "},"":{"ha":961,"x_min":0,"x_max":732,"o":"m 408 574 q 404 596 408 585 q 395 617 401 607 q 380 633 389 627 q 361 639 371 639 l 157 639 q 124 656 136 639 q 111 694 111 673 q 115 709 111 701 q 124 724 118 718 q 139 736 130 731 q 157 741 147 741 l 472 741 q 498 731 481 741 q 534 705 515 721 q 574 670 554 690 q 611 631 595 650 q 638 594 627 612 q 648 565 648 576 l 648 148 q 661 120 648 131 q 690 100 674 110 q 719 79 706 91 q 732 46 732 67 q 728 31 732 39 q 720 16 725 23 q 708 5 715 9 q 694 0 701 0 l 574 0 q 545 15 557 0 q 521 46 533 29 q 493 78 509 64 q 454 93 478 93 q 436 86 442 93 q 426 69 430 79 q 420 46 422 58 q 413 24 418 35 q 401 7 409 14 q 380 0 394 0 l 148 0 q 131 10 143 0 q 101 34 118 20 q 67 67 85 49 q 34 101 49 85 q 10 131 20 118 q 0 148 0 143 l 0 380 q 13 401 0 387 q 44 431 26 415 q 78 460 61 446 q 102 481 95 475 l 139 519 l 157 537 l 370 537 q 384 542 377 537 q 396 552 391 546 q 404 565 401 558 q 408 574 408 571 m 315 416 q 283 414 301 416 q 250 405 266 412 q 224 386 235 398 q 213 352 213 373 l 213 167 q 218 154 213 163 q 229 136 222 145 q 244 119 236 126 q 259 111 252 111 l 398 111 l 416 130 l 416 361 q 406 393 416 382 q 380 409 395 404 q 347 415 364 414 q 315 416 329 416 m 0 907 q 11 929 0 914 q 37 961 21 943 q 73 997 54 978 q 111 1030 93 1015 q 145 1055 130 1045 q 167 1065 160 1065 l 361 1065 q 385 1058 375 1065 q 404 1041 395 1051 q 421 1019 413 1031 q 438 996 429 1006 q 457 979 447 986 q 481 972 468 972 q 507 979 496 972 q 529 996 518 986 q 550 1019 539 1006 q 573 1041 560 1031 q 602 1058 586 1051 q 639 1065 618 1065 q 669 1064 653 1065 q 700 1058 686 1063 q 723 1041 713 1053 q 732 1009 732 1030 q 723 991 732 1004 q 699 960 713 978 q 668 924 685 943 q 634 889 650 905 q 604 862 618 873 q 583 852 590 852 l 370 852 q 341 866 353 852 q 319 898 330 881 q 298 930 309 916 q 269 945 286 945 q 234 930 248 945 q 209 898 220 916 q 186 866 198 881 q 157 852 175 852 l 46 852 q 31 858 39 852 q 16 873 23 864 q 5 891 9 882 q 0 907 0 901 z "},"":{"ha":961,"x_min":0,"x_max":732,"o":"m 408 574 q 404 596 408 585 q 395 617 401 607 q 380 633 389 627 q 361 639 371 639 l 157 639 q 124 656 136 639 q 111 694 111 673 q 115 709 111 701 q 124 724 118 718 q 139 736 130 731 q 157 741 147 741 l 472 741 q 498 731 481 741 q 534 705 515 721 q 574 670 554 690 q 611 631 595 650 q 638 594 627 612 q 648 565 648 576 l 648 148 q 661 120 648 131 q 690 100 674 110 q 719 79 706 91 q 732 46 732 67 q 728 31 732 39 q 720 16 725 23 q 708 5 715 9 q 694 0 701 0 l 574 0 q 545 15 557 0 q 521 46 533 29 q 493 78 509 64 q 454 93 478 93 q 436 86 442 93 q 426 69 430 79 q 420 46 422 58 q 413 24 418 35 q 401 7 409 14 q 380 0 394 0 l 148 0 q 131 10 143 0 q 101 34 118 20 q 67 67 85 49 q 34 101 49 85 q 10 131 20 118 q 0 148 0 143 l 0 380 q 13 401 0 387 q 44 431 26 415 q 78 460 61 446 q 102 481 95 475 l 139 519 l 157 537 l 370 537 q 384 542 377 537 q 396 552 391 546 q 404 565 401 558 q 408 574 408 571 m 315 416 q 283 414 301 416 q 250 405 266 412 q 224 386 235 398 q 213 352 213 373 l 213 167 q 218 154 213 163 q 229 136 222 145 q 244 119 236 126 q 259 111 252 111 l 398 111 l 416 130 l 416 361 q 406 393 416 382 q 380 409 395 404 q 347 415 364 414 q 315 416 329 416 m 0 1009 q 12 1041 0 1030 q 42 1058 24 1053 q 78 1064 59 1063 q 111 1065 97 1065 q 141 1063 125 1065 q 171 1055 157 1061 q 194 1038 185 1048 q 203 1009 203 1027 q 193 981 203 992 q 167 964 182 970 q 134 956 151 958 q 102 954 116 954 q 71 955 88 954 q 37 961 53 956 q 11 977 22 966 q 0 1009 0 988 m 435 1009 q 445 1041 435 1030 q 469 1058 454 1053 q 502 1064 484 1063 q 537 1065 520 1065 q 567 1064 551 1065 q 597 1058 583 1063 q 620 1041 611 1053 q 629 1009 629 1030 q 619 981 629 992 q 593 964 608 970 q 559 956 577 958 q 528 954 542 954 q 498 955 514 954 q 468 961 481 956 q 445 977 454 966 q 435 1009 435 988 z "},"":{"ha":961,"x_min":0,"x_max":732,"o":"m 408 574 q 404 596 408 585 q 395 617 401 607 q 380 633 389 627 q 361 639 371 639 l 157 639 q 124 656 136 639 q 111 694 111 673 q 115 709 111 701 q 124 724 118 718 q 139 736 130 731 q 157 741 147 741 l 472 741 q 498 731 481 741 q 534 705 515 721 q 574 670 554 690 q 611 631 595 650 q 638 594 627 612 q 648 565 648 576 l 648 148 q 661 120 648 131 q 690 100 674 110 q 719 79 706 91 q 732 46 732 67 q 728 31 732 39 q 720 16 725 23 q 708 5 715 9 q 694 0 701 0 l 574 0 q 545 15 557 0 q 521 46 533 29 q 493 78 509 64 q 454 93 478 93 q 436 86 442 93 q 426 69 430 79 q 420 46 422 58 q 413 24 418 35 q 401 7 409 14 q 380 0 394 0 l 148 0 q 131 10 143 0 q 101 34 118 20 q 67 67 85 49 q 34 101 49 85 q 10 131 20 118 q 0 148 0 143 l 0 380 q 13 401 0 387 q 44 431 26 415 q 78 460 61 446 q 102 481 95 475 l 139 519 l 157 537 l 370 537 q 384 542 377 537 q 396 552 391 546 q 404 565 401 558 q 408 574 408 571 m 315 416 q 283 414 301 416 q 250 405 266 412 q 224 386 235 398 q 213 352 213 373 l 213 167 q 218 154 213 163 q 229 136 222 145 q 244 119 236 126 q 259 111 252 111 l 398 111 l 416 130 l 416 361 q 406 393 416 382 q 380 409 395 404 q 347 415 364 414 q 315 416 329 416 m 111 1009 q 120 1030 111 1016 q 143 1062 130 1045 q 175 1098 157 1080 q 208 1132 192 1117 q 238 1157 224 1147 q 259 1166 252 1166 l 481 1166 q 502 1157 488 1166 q 532 1132 516 1147 q 566 1098 549 1117 q 597 1062 583 1080 q 620 1030 611 1045 q 629 1009 629 1016 q 620 985 629 1000 q 597 952 611 970 q 565 917 583 935 q 529 884 547 899 q 497 861 512 870 q 472 852 481 852 l 259 852 q 238 862 252 852 q 208 886 224 871 q 175 920 192 901 q 143 956 157 939 q 120 988 130 973 q 111 1009 111 1002 m 334 1009 q 341 980 334 988 q 370 972 349 972 q 399 985 391 972 q 408 1019 408 998 q 396 1039 408 1032 q 370 1046 384 1046 q 341 1038 349 1046 q 334 1009 334 1030 z "},"":{"ha":961,"x_min":0,"x_max":852,"o":"m 296 472 q 283 511 296 493 q 249 546 269 529 q 204 579 228 563 q 159 614 180 596 q 125 652 138 632 q 111 694 111 671 q 121 721 111 712 q 145 735 130 730 q 178 740 159 739 q 213 741 196 741 q 256 734 239 741 q 287 717 274 727 q 309 694 300 707 q 327 672 318 682 q 347 655 336 662 q 370 648 357 648 q 391 655 382 648 q 407 672 399 662 q 421 694 414 682 q 435 717 428 707 q 452 734 443 727 q 472 741 460 741 l 694 741 q 722 729 706 741 q 756 698 739 717 q 790 655 773 679 q 821 608 808 631 q 843 563 835 584 q 852 528 852 542 q 839 466 852 495 q 804 413 826 437 q 754 368 783 388 q 695 335 726 349 q 633 313 665 321 q 574 306 602 306 q 558 299 564 302 q 550 291 553 295 q 547 281 547 286 q 547 269 547 275 q 552 242 547 252 q 565 225 557 232 q 586 211 574 218 q 611 195 597 205 q 629 175 621 188 q 645 149 637 162 q 662 125 652 136 q 685 111 671 115 q 706 112 692 111 q 738 111 721 112 q 774 108 755 111 q 808 99 793 105 q 832 82 823 92 q 842 56 842 72 q 841 39 842 49 q 834 21 839 30 q 823 6 830 12 q 806 0 816 0 l 574 0 q 547 13 557 0 q 527 42 536 26 q 505 71 517 58 q 472 83 493 83 q 445 71 455 83 q 426 42 435 58 q 407 13 417 26 q 380 0 397 0 l 148 0 q 131 10 143 0 q 101 34 118 20 q 67 67 85 49 q 34 101 49 85 q 10 131 20 118 q 0 148 0 143 l 0 269 q 6 288 0 279 q 21 303 12 296 q 39 315 30 310 q 56 324 49 321 q 75 346 66 334 q 93 369 84 358 q 110 391 101 380 q 130 408 119 401 q 155 417 139 414 q 190 420 171 419 q 227 422 208 421 q 261 429 246 424 q 287 444 277 433 q 296 472 296 454 m 213 213 q 214 182 213 199 q 219 152 214 166 q 233 129 223 138 q 259 120 242 120 q 275 120 267 120 q 290 123 283 121 q 301 132 296 126 q 306 148 306 138 l 306 269 q 301 284 306 279 q 290 293 296 290 q 275 296 283 296 q 259 296 267 296 q 233 287 242 296 q 219 265 223 278 q 214 238 214 252 q 213 213 213 223 m 537 537 q 538 505 537 523 q 543 472 538 488 q 557 446 547 456 q 583 435 566 435 q 610 446 601 435 q 624 471 619 456 q 629 502 628 486 q 629 528 629 517 q 629 558 629 542 q 624 588 628 574 q 610 611 619 602 q 583 621 601 621 q 553 612 562 621 q 537 583 545 604 l 537 537 z "},"":{"ha":961,"x_min":102,"x_max":732,"o":"m 222 -56 q 224 -39 222 -49 q 230 -21 226 -30 q 242 -6 235 -12 q 259 0 249 0 l 463 0 q 482 5 473 0 q 496 16 490 9 q 506 31 503 23 q 509 46 509 39 q 502 65 509 53 q 485 91 495 77 q 461 119 474 104 q 435 147 448 134 q 413 170 422 160 q 398 185 403 180 q 369 201 388 195 q 329 210 349 207 q 289 213 308 212 q 259 213 269 213 q 238 227 252 216 q 206 254 223 238 q 170 290 189 271 q 136 326 151 309 q 112 358 121 344 q 102 380 102 373 l 102 685 q 112 707 102 692 q 139 741 123 722 q 176 779 155 759 q 216 814 196 798 q 252 841 235 831 q 278 852 269 852 l 565 852 q 597 843 579 852 q 633 819 614 833 q 669 787 652 805 q 701 752 687 769 q 723 719 715 734 q 732 694 732 704 q 730 674 732 684 q 723 656 728 664 q 712 644 719 648 q 694 639 705 639 l 583 639 q 554 653 566 639 q 532 685 543 668 q 511 717 522 703 q 481 732 499 732 l 361 732 q 342 712 351 721 q 330 696 336 704 q 324 685 324 688 l 324 370 q 329 355 324 363 q 340 340 334 347 q 355 329 347 334 q 370 324 363 324 l 472 324 q 492 331 484 324 q 509 348 501 338 q 523 370 517 358 q 537 393 530 382 q 554 410 545 403 q 574 416 563 416 l 704 416 q 720 412 714 416 q 728 400 726 407 q 731 385 731 393 q 732 370 732 377 q 726 347 732 357 q 710 330 720 337 q 690 316 701 322 q 670 303 680 310 q 654 288 661 296 q 648 269 648 280 l 648 148 q 661 120 648 131 q 690 100 674 110 q 719 79 706 91 q 732 46 732 67 q 723 25 732 39 q 699 -7 713 10 q 667 -43 685 -24 q 631 -77 649 -62 q 598 -101 614 -92 q 574 -111 583 -111 l 269 -111 q 245 -106 254 -111 q 232 -94 237 -102 q 224 -76 227 -86 q 222 -56 222 -66 z "}}}
